G75*
%MOIN*%
%OFA0B0*%
%FSLAX25Y25*%
%IPPOS*%
%LPD*%
%AMOC8*
5,1,8,0,0,1.08239X$1,22.5*
%
%ADD10C,0.12211*%
%ADD11C,0.06337*%
%ADD12C,0.06400*%
%ADD13C,0.07800*%
%ADD14C,0.04362*%
%ADD15C,0.04756*%
%ADD16C,0.05150*%
%ADD17C,0.04165*%
D10*
X0077591Y0081796D03*
X0199638Y0125890D03*
D11*
X0053095Y0037335D02*
X0053095Y0031398D01*
X0063095Y0031398D02*
X0063095Y0037335D01*
X0158095Y0036835D02*
X0158095Y0030898D01*
X0168095Y0030898D02*
X0168095Y0036835D01*
D12*
X0170095Y0014867D03*
X0180095Y0014867D03*
X0190095Y0014867D03*
X0073595Y0050367D03*
X0073595Y0060367D03*
X0073595Y0070367D03*
D13*
X0103595Y0033367D03*
X0113595Y0033367D03*
X0123595Y0033367D03*
X0133595Y0033367D03*
X0128595Y0016867D03*
X0138595Y0016867D03*
X0148595Y0016867D03*
X0118595Y0016867D03*
X0105595Y0016867D03*
X0095595Y0016867D03*
X0085595Y0016867D03*
X0075595Y0016867D03*
X0167595Y0105867D03*
X0177443Y0107603D03*
X0187291Y0109340D03*
X0197139Y0111076D03*
D14*
X0185595Y0098367D03*
X0171595Y0092367D03*
X0181095Y0065367D03*
X0185595Y0055867D03*
X0203595Y0021867D03*
X0087595Y0052867D03*
X0064095Y0090367D03*
X0085595Y0110867D03*
D15*
X0095595Y0040867D03*
D16*
X0107595Y0044867D03*
X0115095Y0052867D03*
X0123095Y0052367D03*
X0136595Y0056867D03*
X0143595Y0056867D03*
X0144095Y0030867D03*
X0086095Y0089367D03*
X0050595Y0076867D03*
D17*
X0055095Y0108367D03*
M02*
