%
M48
M72
T01C0.02165
T02C0.02362
T03C0.03937
T04C0.04000
T05C0.11811
%
T01
X55095Y97500
T02
X64095Y79500
X85595Y100000
X137095Y63500
X145595Y75000
X162595Y60500
X160595Y49500
X145095Y38000
X181095Y54500
X185595Y45000
X210095Y42000
X203595Y11000
X171595Y81500
X185595Y87500
X87595Y42000
T03
X53095Y23500
X63095Y23500
X158095Y23000
X168095Y23000
T04
X145095Y23500
X135095Y23500
X125095Y23500
X107095Y23500
X97095Y23500
X87095Y23500
X167595Y95000
X177443Y96736
X187291Y98473
X197139Y100209
X199595Y89500
X209595Y89500
X219595Y89500
X219595Y79500
X209595Y79500
X199595Y79500
X199595Y69500
X209595Y69500
X219595Y69500
X219595Y59500
X209595Y59500
X199595Y59500
T05
X199638Y115024
X77591Y70929
M30
