G75*
%MOIN*%
%OFA0B0*%
%FSLAX25Y25*%
%IPPOS*%
%LPD*%
%AMOC8*
5,1,8,0,0,1.08239X$1,22.5*
%
%ADD10C,0.05937*%
%ADD11C,0.06000*%
%ADD12C,0.07400*%
%ADD13C,0.03962*%
%ADD14C,0.02400*%
%ADD15C,0.02000*%
%ADD16C,0.01600*%
%ADD17C,0.04356*%
%ADD18C,0.04750*%
%ADD19C,0.03765*%
D10*
X0053095Y0031398D02*
X0053095Y0037335D01*
X0063095Y0037335D02*
X0063095Y0031398D01*
X0158095Y0030898D02*
X0158095Y0036835D01*
X0168095Y0036835D02*
X0168095Y0030898D01*
D11*
X0170095Y0014867D03*
X0180095Y0014867D03*
X0190095Y0014867D03*
X0073595Y0050367D03*
X0073595Y0060367D03*
X0073595Y0070367D03*
D12*
X0103595Y0033367D03*
X0113595Y0033367D03*
X0123595Y0033367D03*
X0133595Y0033367D03*
X0128595Y0016867D03*
X0138595Y0016867D03*
X0148595Y0016867D03*
X0118595Y0016867D03*
X0105595Y0016867D03*
X0095595Y0016867D03*
X0085595Y0016867D03*
X0075595Y0016867D03*
X0167595Y0105867D03*
X0177443Y0107603D03*
X0187291Y0109340D03*
X0197139Y0111076D03*
D13*
X0185595Y0098367D03*
X0171595Y0092367D03*
X0181095Y0065367D03*
X0185595Y0055867D03*
X0203595Y0021867D03*
X0087595Y0052867D03*
X0064095Y0090367D03*
X0085595Y0110867D03*
D14*
X0083095Y0108367D01*
X0055095Y0108367D01*
X0062446Y0094348D02*
X0088436Y0094348D01*
X0092970Y0089813D01*
X0092970Y0071492D01*
X0099095Y0065367D01*
X0138965Y0065367D01*
X0169946Y0096348D01*
X0173614Y0096348D01*
X0209595Y0060367D01*
X0209595Y0041367D01*
X0202083Y0033855D01*
X0207576Y0023516D01*
X0207576Y0020218D01*
X0205244Y0017886D01*
X0201946Y0017886D01*
X0199965Y0019867D01*
X0188024Y0019867D01*
X0185095Y0016938D01*
X0185095Y0016867D01*
X0183595Y0015367D01*
X0180595Y0015367D01*
X0180095Y0014867D01*
X0148595Y0016867D02*
X0146656Y0016867D01*
X0140956Y0022567D01*
X0116234Y0022567D01*
X0112895Y0019228D01*
X0110534Y0016867D01*
X0105595Y0016867D01*
X0103595Y0033367D02*
X0092095Y0033367D01*
X0075595Y0016867D01*
X0063095Y0034367D02*
X0069595Y0040867D01*
X0095595Y0040867D01*
X0105408Y0040867D01*
X0105783Y0040492D01*
X0109407Y0040492D01*
X0109782Y0040867D01*
X0126095Y0040867D01*
X0133595Y0033367D01*
X0153484Y0053256D01*
X0154852Y0052367D01*
X0155206Y0052367D01*
X0155502Y0052174D01*
X0156410Y0052367D01*
X0157338Y0052367D01*
X0173844Y0055867D01*
X0185595Y0055867D01*
X0148595Y0018367D02*
X0148595Y0016867D01*
X0148595Y0018367D02*
X0133595Y0033367D01*
X0107595Y0044867D02*
X0099595Y0052867D01*
X0087595Y0052867D01*
X0088595Y0054867D02*
X0088595Y0056867D01*
X0088595Y0086867D01*
X0086095Y0089367D01*
X0064095Y0090367D02*
X0064095Y0059867D01*
X0073095Y0059867D01*
X0073595Y0060367D01*
X0064095Y0059867D02*
X0064095Y0035367D01*
X0063095Y0034367D01*
X0090095Y0054367D02*
X0097095Y0061367D01*
X0062446Y0094348D02*
X0060114Y0092016D01*
X0060114Y0086386D01*
X0050595Y0076867D01*
X0185595Y0098367D02*
X0189534Y0098367D01*
D15*
X0181095Y0082867D02*
X0181095Y0065367D01*
X0175132Y0059403D01*
X0156095Y0055367D01*
X0150095Y0061367D01*
X0097095Y0061367D01*
X0090095Y0054367D02*
X0088595Y0052867D01*
X0087595Y0052867D01*
X0053383Y0034367D02*
X0053095Y0034367D01*
X0171595Y0092367D02*
X0181095Y0082867D01*
X0185595Y0055867D02*
X0185595Y0054867D01*
X0186595Y0053867D01*
X0203595Y0021867D01*
D16*
X0157595Y0017367D02*
X0157595Y0010817D01*
X0124645Y0010817D01*
X0118595Y0016867D01*
X0112545Y0010817D01*
X0075595Y0010817D01*
X0075595Y0016867D01*
X0087595Y0052867D02*
X0088595Y0053867D01*
X0088595Y0056867D01*
X0115095Y0052867D02*
X0117974Y0052867D01*
X0121449Y0056341D01*
X0136070Y0056341D01*
X0136595Y0056867D01*
X0139095Y0052367D02*
X0143595Y0056867D01*
X0139095Y0052367D02*
X0123095Y0052367D01*
X0144095Y0030867D02*
X0157595Y0017367D01*
X0189534Y0098367D02*
X0191495Y0100328D01*
X0191495Y0103722D01*
X0197139Y0109366D01*
X0197139Y0111076D01*
D17*
X0095595Y0040867D03*
D18*
X0107595Y0044867D03*
X0115095Y0052867D03*
X0123095Y0052367D03*
X0136595Y0056867D03*
X0143595Y0056867D03*
X0144095Y0030867D03*
X0086095Y0089367D03*
X0050595Y0076867D03*
D19*
X0055095Y0108367D03*
M02*
