G75*
%MOIN*%
%OFA0B0*%
%FSLAX25Y25*%
%IPPOS*%
%LPD*%
%AMOC8*
5,1,8,0,0,1.08239X$1,22.5*
%
%ADD10C,0.12211*%
%ADD11R,0.06306X0.05518*%
%ADD12R,0.02565X0.05124*%
%ADD13R,0.05518X0.06306*%
%ADD14R,0.08274X0.05124*%
%ADD15R,0.04337X0.03943*%
%ADD16R,0.05124X0.05124*%
%ADD17R,0.08601X0.11400*%
%ADD18R,0.03900X0.01601*%
%ADD19R,0.03550X0.05124*%
%ADD20R,0.05912X0.04731*%
%ADD21C,0.06337*%
%ADD22C,0.06400*%
%ADD23C,0.07800*%
%ADD24R,0.01575X0.03346*%
%ADD25R,0.03346X0.01575*%
%ADD26R,0.11024X0.11024*%
%ADD27C,0.04362*%
%ADD28C,0.04756*%
%ADD29C,0.05150*%
%ADD30C,0.04165*%
D10*
X0077591Y0081796D03*
X0199638Y0125890D03*
D11*
X0080095Y0102607D03*
X0080095Y0095127D03*
X0069595Y0096627D03*
X0069595Y0104107D03*
X0055095Y0102607D03*
X0055095Y0095127D03*
X0059095Y0085607D03*
X0059095Y0078127D03*
D12*
X0057355Y0070485D03*
X0064835Y0070485D03*
X0064835Y0060248D03*
X0061095Y0060248D03*
X0057355Y0060248D03*
D13*
X0059335Y0052867D03*
X0051855Y0052867D03*
X0163855Y0054367D03*
X0171335Y0054367D03*
X0174335Y0063867D03*
X0166855Y0063867D03*
X0163855Y0078367D03*
X0171335Y0078367D03*
D14*
X0153623Y0079587D03*
X0153623Y0071713D03*
X0153623Y0063839D03*
X0153623Y0055965D03*
X0153623Y0087461D03*
X0153623Y0095335D03*
X0153623Y0103209D03*
X0153623Y0111083D03*
X0094568Y0111083D03*
X0094568Y0103209D03*
X0094568Y0095335D03*
X0094568Y0087461D03*
X0094568Y0079587D03*
X0094568Y0071713D03*
X0094568Y0063839D03*
X0094568Y0055965D03*
D15*
X0061745Y0114796D03*
X0055446Y0114796D03*
X0055446Y0130938D03*
X0061745Y0130938D03*
X0182446Y0093438D03*
X0188745Y0093438D03*
X0188745Y0077296D03*
X0182446Y0077296D03*
D16*
X0179729Y0071367D03*
X0171461Y0071367D03*
D17*
X0188595Y0029367D03*
D18*
X0180290Y0029367D03*
X0180290Y0031335D03*
X0180290Y0033304D03*
X0180290Y0027398D03*
X0180290Y0025430D03*
X0196900Y0025430D03*
X0196900Y0027398D03*
X0196900Y0029367D03*
X0196900Y0031335D03*
X0196900Y0033304D03*
D19*
X0187138Y0042867D03*
X0180052Y0042867D03*
D20*
X0194595Y0052430D03*
X0201595Y0052430D03*
X0201595Y0060304D03*
X0194595Y0060304D03*
D21*
X0053095Y0037335D02*
X0053095Y0031398D01*
X0063095Y0031398D02*
X0063095Y0037335D01*
X0158095Y0036835D02*
X0158095Y0030898D01*
X0168095Y0030898D02*
X0168095Y0036835D01*
D22*
X0170095Y0014867D03*
X0180095Y0014867D03*
X0190095Y0014867D03*
X0073595Y0050367D03*
X0073595Y0060367D03*
X0073595Y0070367D03*
D23*
X0103595Y0033367D03*
X0113595Y0033367D03*
X0123595Y0033367D03*
X0133595Y0033367D03*
X0128595Y0016867D03*
X0138595Y0016867D03*
X0148595Y0016867D03*
X0118595Y0016867D03*
X0105595Y0016867D03*
X0095595Y0016867D03*
X0085595Y0016867D03*
X0075595Y0016867D03*
X0167595Y0105867D03*
X0177443Y0107603D03*
X0187291Y0109340D03*
X0197139Y0111076D03*
D24*
X0088516Y0043241D03*
X0086548Y0043241D03*
X0084579Y0043241D03*
X0082611Y0043241D03*
X0080642Y0043241D03*
X0078674Y0043241D03*
X0078674Y0027493D03*
X0080642Y0027493D03*
X0082611Y0027493D03*
X0084579Y0027493D03*
X0086548Y0027493D03*
X0088516Y0027493D03*
D25*
X0091469Y0030445D03*
X0091469Y0032414D03*
X0091469Y0034382D03*
X0091469Y0036351D03*
X0091469Y0038319D03*
X0091469Y0040288D03*
X0075721Y0040288D03*
X0075721Y0038319D03*
X0075721Y0036351D03*
X0075721Y0034382D03*
X0075721Y0032414D03*
X0075721Y0030445D03*
D26*
X0083595Y0035367D03*
D27*
X0087595Y0052867D03*
X0064095Y0090367D03*
X0085595Y0110867D03*
X0171595Y0092367D03*
X0185595Y0098367D03*
X0181095Y0065367D03*
X0185595Y0055867D03*
X0203595Y0021867D03*
D28*
X0095595Y0040867D03*
D29*
X0107595Y0044867D03*
X0115095Y0052867D03*
X0123095Y0052367D03*
X0136595Y0056867D03*
X0143595Y0056867D03*
X0144095Y0030867D03*
X0086095Y0089367D03*
X0050595Y0076867D03*
D30*
X0055095Y0108367D03*
M02*
