G75*
%MOIN*%
%OFA0B0*%
%FSLAX25Y25*%
%IPPOS*%
%LPD*%
%AMOC8*
5,1,8,0,0,1.08239X$1,22.5*
%
%ADD10C,0.00200*%
%ADD11C,0.00300*%
%ADD12C,0.01200*%
%ADD13C,0.00800*%
%ADD14C,0.00500*%
%ADD15C,0.00600*%
%ADD16R,0.00750X0.03500*%
%ADD17R,0.05512X0.02559*%
%ADD18C,0.01000*%
D10*
X0050195Y0006600D02*
X0051296Y0006600D01*
X0051663Y0006967D01*
X0051663Y0007334D01*
X0051296Y0007701D01*
X0050195Y0007701D01*
X0050195Y0008802D02*
X0051296Y0008802D01*
X0051663Y0008435D01*
X0051663Y0008068D01*
X0051296Y0007701D01*
X0052405Y0007701D02*
X0053873Y0007701D01*
X0053873Y0008068D02*
X0053873Y0006600D01*
X0053873Y0008068D02*
X0053139Y0008802D01*
X0052405Y0008068D01*
X0052405Y0006600D01*
X0050195Y0006600D02*
X0050195Y0008802D01*
X0054615Y0008802D02*
X0056083Y0008802D01*
X0055349Y0008802D02*
X0055349Y0006600D01*
X0062195Y0006967D02*
X0062562Y0006600D01*
X0063296Y0006600D01*
X0063663Y0006967D01*
X0063663Y0007701D01*
X0062929Y0007701D01*
X0062195Y0008435D02*
X0062195Y0006967D01*
X0062195Y0008435D02*
X0062562Y0008802D01*
X0063296Y0008802D01*
X0063663Y0008435D01*
X0064405Y0008802D02*
X0065873Y0006600D01*
X0065873Y0008802D01*
X0066615Y0008802D02*
X0067716Y0008802D01*
X0068083Y0008435D01*
X0068083Y0006967D01*
X0067716Y0006600D01*
X0066615Y0006600D01*
X0066615Y0008802D01*
X0064405Y0008802D02*
X0064405Y0006600D01*
X0085693Y0013390D02*
X0085693Y0014491D01*
X0086060Y0014858D01*
X0086427Y0014858D01*
X0086794Y0014491D01*
X0086794Y0013390D01*
X0087895Y0013390D02*
X0085693Y0013390D01*
X0086794Y0014491D02*
X0087161Y0014858D01*
X0087528Y0014858D01*
X0087895Y0014491D01*
X0087895Y0013390D01*
X0095693Y0013547D02*
X0096060Y0013180D01*
X0097528Y0013180D01*
X0097895Y0013547D01*
X0097895Y0014281D01*
X0097528Y0014648D01*
X0096060Y0014648D01*
X0095693Y0014281D01*
X0095693Y0013547D01*
X0096060Y0012438D02*
X0095693Y0012071D01*
X0095693Y0011337D01*
X0096060Y0010970D01*
X0097528Y0010970D01*
X0097895Y0011337D01*
X0097895Y0012071D01*
X0097528Y0012438D01*
X0097895Y0015390D02*
X0095693Y0015390D01*
X0096427Y0016124D01*
X0095693Y0016858D01*
X0097895Y0016858D01*
X0106193Y0014124D02*
X0106927Y0014858D01*
X0108395Y0014858D01*
X0107294Y0014858D02*
X0107294Y0013390D01*
X0106927Y0013390D02*
X0106193Y0014124D01*
X0106927Y0013390D02*
X0108395Y0013390D01*
X0123793Y0013278D02*
X0125995Y0013278D01*
X0123793Y0011810D01*
X0125995Y0011810D01*
X0125628Y0011068D02*
X0124894Y0011068D01*
X0124894Y0010334D01*
X0124160Y0011068D02*
X0123793Y0010701D01*
X0123793Y0009967D01*
X0124160Y0009600D01*
X0125628Y0009600D01*
X0125995Y0009967D01*
X0125995Y0010701D01*
X0125628Y0011068D01*
X0125995Y0014020D02*
X0123793Y0014020D01*
X0123793Y0015121D01*
X0124160Y0015488D01*
X0125628Y0015488D01*
X0125995Y0015121D01*
X0125995Y0014020D01*
X0134293Y0014020D02*
X0134293Y0015121D01*
X0134660Y0015488D01*
X0135394Y0015488D01*
X0135761Y0015121D01*
X0135761Y0014020D01*
X0135761Y0014754D02*
X0136495Y0015488D01*
X0136495Y0014020D02*
X0134293Y0014020D01*
X0134293Y0013278D02*
X0136495Y0013278D01*
X0135761Y0012544D01*
X0136495Y0011810D01*
X0134293Y0011810D01*
X0134660Y0011068D02*
X0135394Y0011068D01*
X0135761Y0010701D01*
X0135761Y0009600D01*
X0136495Y0009600D02*
X0134293Y0009600D01*
X0134293Y0010701D01*
X0134660Y0011068D01*
X0143793Y0010967D02*
X0144160Y0010600D01*
X0144527Y0010600D01*
X0144894Y0010967D01*
X0144894Y0011701D01*
X0145261Y0012068D01*
X0145628Y0012068D01*
X0145995Y0011701D01*
X0145995Y0010967D01*
X0145628Y0010600D01*
X0143793Y0010967D02*
X0143793Y0011701D01*
X0144160Y0012068D01*
X0143793Y0012810D02*
X0143793Y0013544D01*
X0143793Y0013177D02*
X0145995Y0013177D01*
X0145995Y0012810D02*
X0145995Y0013544D01*
X0145628Y0014283D02*
X0145995Y0014650D01*
X0145995Y0015384D01*
X0145628Y0015751D01*
X0144894Y0015751D01*
X0144894Y0015017D01*
X0144160Y0014283D02*
X0145628Y0014283D01*
X0144160Y0014283D02*
X0143793Y0014650D01*
X0143793Y0015384D01*
X0144160Y0015751D01*
X0156793Y0014334D02*
X0158995Y0014334D01*
X0158995Y0013600D02*
X0158995Y0015068D01*
X0157527Y0013600D02*
X0156793Y0014334D01*
X0157695Y0008302D02*
X0158429Y0007568D01*
X0159163Y0008302D01*
X0159163Y0006100D01*
X0159905Y0006467D02*
X0160272Y0006100D01*
X0161006Y0006100D01*
X0161373Y0006467D01*
X0161373Y0007935D01*
X0161006Y0008302D01*
X0160272Y0008302D01*
X0159905Y0007935D01*
X0159905Y0006467D01*
X0157695Y0006100D02*
X0157695Y0008302D01*
X0162115Y0008302D02*
X0163583Y0008302D01*
X0162849Y0008302D02*
X0162849Y0006100D01*
X0164325Y0006467D02*
X0164325Y0007935D01*
X0164692Y0008302D01*
X0165426Y0008302D01*
X0165793Y0007935D01*
X0165793Y0006467D01*
X0165426Y0006100D01*
X0164692Y0006100D01*
X0164325Y0006467D01*
X0166535Y0006834D02*
X0167636Y0006834D01*
X0168003Y0007201D01*
X0168003Y0007935D01*
X0167636Y0008302D01*
X0166535Y0008302D01*
X0166535Y0006100D01*
X0167269Y0006834D02*
X0168003Y0006100D01*
X0167160Y0013600D02*
X0166793Y0013967D01*
X0166793Y0014701D01*
X0167160Y0015068D01*
X0167527Y0015068D01*
X0168995Y0013600D01*
X0168995Y0015068D01*
X0207695Y0051467D02*
X0208062Y0051100D01*
X0208796Y0051100D01*
X0209163Y0051467D01*
X0209163Y0052201D01*
X0208429Y0052201D01*
X0207695Y0052935D02*
X0207695Y0051467D01*
X0207695Y0052935D02*
X0208062Y0053302D01*
X0208796Y0053302D01*
X0209163Y0052935D01*
X0209905Y0053302D02*
X0209905Y0051100D01*
X0211373Y0051100D02*
X0211373Y0053302D01*
X0212115Y0053302D02*
X0213216Y0053302D01*
X0213583Y0052935D01*
X0213583Y0051467D01*
X0213216Y0051100D01*
X0212115Y0051100D01*
X0212115Y0053302D01*
X0209905Y0053302D02*
X0211373Y0051100D01*
X0192583Y0061600D02*
X0192583Y0063068D01*
X0191849Y0063802D01*
X0191115Y0063068D01*
X0191115Y0061600D01*
X0190373Y0061967D02*
X0190373Y0063435D01*
X0190006Y0063802D01*
X0188905Y0063802D01*
X0188905Y0061600D01*
X0190006Y0061600D01*
X0190373Y0061967D01*
X0191115Y0062701D02*
X0192583Y0062701D01*
X0188163Y0062334D02*
X0188163Y0061967D01*
X0187796Y0061600D01*
X0187062Y0061600D01*
X0186695Y0061967D01*
X0187062Y0062701D02*
X0187796Y0062701D01*
X0188163Y0062334D01*
X0188163Y0063435D02*
X0187796Y0063802D01*
X0187062Y0063802D01*
X0186695Y0063435D01*
X0186695Y0063068D01*
X0187062Y0062701D01*
X0178495Y0070467D02*
X0178128Y0070100D01*
X0176660Y0070100D01*
X0176293Y0070467D01*
X0176293Y0071201D01*
X0176660Y0071568D01*
X0177394Y0071568D02*
X0177394Y0070834D01*
X0177394Y0071568D02*
X0178128Y0071568D01*
X0178495Y0071201D01*
X0178495Y0070467D01*
X0178495Y0072310D02*
X0176293Y0072310D01*
X0176293Y0073411D01*
X0176660Y0073778D01*
X0177394Y0073778D01*
X0177761Y0073411D01*
X0177761Y0072310D01*
X0178495Y0074520D02*
X0178495Y0075254D01*
X0178495Y0074887D02*
X0176293Y0074887D01*
X0176293Y0074520D02*
X0176293Y0075254D01*
X0176660Y0075993D02*
X0178128Y0075993D01*
X0178495Y0076360D01*
X0178495Y0077094D01*
X0178128Y0077461D01*
X0176660Y0077461D01*
X0176293Y0077094D01*
X0176293Y0076360D01*
X0176660Y0075993D01*
X0176660Y0078203D02*
X0176293Y0078570D01*
X0176293Y0079304D01*
X0176660Y0079671D01*
X0178128Y0078203D01*
X0178495Y0078570D01*
X0178495Y0079304D01*
X0178128Y0079671D01*
X0176660Y0079671D01*
X0176660Y0078203D02*
X0178128Y0078203D01*
X0187195Y0085967D02*
X0187562Y0085600D01*
X0188296Y0085600D01*
X0188663Y0085967D01*
X0188663Y0086334D01*
X0188296Y0086701D01*
X0187562Y0086701D01*
X0187195Y0087068D01*
X0187195Y0087435D01*
X0187562Y0087802D01*
X0188296Y0087802D01*
X0188663Y0087435D01*
X0189405Y0087435D02*
X0189405Y0085967D01*
X0189772Y0085600D01*
X0190506Y0085600D01*
X0190873Y0085967D01*
X0191615Y0085600D02*
X0193083Y0085600D01*
X0191615Y0085600D02*
X0191615Y0087802D01*
X0190873Y0087435D02*
X0190506Y0087802D01*
X0189772Y0087802D01*
X0189405Y0087435D01*
X0178873Y0088600D02*
X0177405Y0090802D01*
X0176663Y0090802D02*
X0175195Y0090802D01*
X0175929Y0090802D02*
X0175929Y0088600D01*
X0177405Y0088600D02*
X0178873Y0090802D01*
X0168583Y0088935D02*
X0168583Y0088201D01*
X0168216Y0087834D01*
X0167115Y0087834D01*
X0167849Y0087834D02*
X0168583Y0087100D01*
X0167115Y0087100D02*
X0167115Y0089302D01*
X0168216Y0089302D01*
X0168583Y0088935D01*
X0166373Y0089302D02*
X0166373Y0087100D01*
X0165639Y0087834D01*
X0164905Y0087100D01*
X0164905Y0089302D01*
X0164163Y0088935D02*
X0164163Y0088201D01*
X0163796Y0087834D01*
X0162695Y0087834D01*
X0162695Y0087100D02*
X0162695Y0089302D01*
X0163796Y0089302D01*
X0164163Y0088935D01*
X0185695Y0106100D02*
X0185695Y0108302D01*
X0186796Y0108302D01*
X0187163Y0107935D01*
X0187163Y0107201D01*
X0186796Y0106834D01*
X0185695Y0106834D01*
X0186429Y0106834D02*
X0187163Y0106100D01*
X0187905Y0106100D02*
X0189373Y0108302D01*
X0187905Y0108302D02*
X0189373Y0106100D01*
X0203195Y0106435D02*
X0203195Y0104967D01*
X0203562Y0104600D01*
X0204296Y0104600D01*
X0204663Y0104967D01*
X0204663Y0105701D01*
X0203929Y0105701D01*
X0203195Y0106435D02*
X0203562Y0106802D01*
X0204296Y0106802D01*
X0204663Y0106435D01*
X0205405Y0106802D02*
X0205405Y0104600D01*
X0206873Y0104600D02*
X0205405Y0106802D01*
X0206873Y0106802D02*
X0206873Y0104600D01*
X0207615Y0104600D02*
X0208716Y0104600D01*
X0209083Y0104967D01*
X0209083Y0106435D01*
X0208716Y0106802D01*
X0207615Y0106802D01*
X0207615Y0104600D01*
X0208062Y0098302D02*
X0208796Y0098302D01*
X0209163Y0097935D01*
X0209163Y0097568D01*
X0208796Y0097201D01*
X0209163Y0096834D01*
X0209163Y0096467D01*
X0208796Y0096100D01*
X0208062Y0096100D01*
X0207695Y0096467D01*
X0208429Y0097201D02*
X0208796Y0097201D01*
X0207695Y0097935D02*
X0208062Y0098302D01*
X0209905Y0096467D02*
X0210272Y0096467D01*
X0210272Y0096100D01*
X0209905Y0096100D01*
X0209905Y0096467D01*
X0211010Y0096467D02*
X0211377Y0096100D01*
X0212111Y0096100D01*
X0212478Y0096467D01*
X0212478Y0096834D01*
X0212111Y0097201D01*
X0211744Y0097201D01*
X0212111Y0097201D02*
X0212478Y0097568D01*
X0212478Y0097935D01*
X0212111Y0098302D01*
X0211377Y0098302D01*
X0211010Y0097935D01*
X0213220Y0098302D02*
X0213220Y0096834D01*
X0213954Y0096100D01*
X0214688Y0096834D01*
X0214688Y0098302D01*
X0204003Y0125100D02*
X0204003Y0127302D01*
X0202535Y0127302D02*
X0202535Y0125100D01*
X0203269Y0125834D01*
X0204003Y0125100D01*
X0201793Y0125100D02*
X0200325Y0125100D01*
X0200325Y0127302D01*
X0201793Y0127302D01*
X0201059Y0126201D02*
X0200325Y0126201D01*
X0199583Y0126201D02*
X0199216Y0125834D01*
X0198115Y0125834D01*
X0198849Y0125834D02*
X0199583Y0125100D01*
X0199583Y0126201D02*
X0199583Y0126935D01*
X0199216Y0127302D01*
X0198115Y0127302D01*
X0198115Y0125100D01*
X0197373Y0125467D02*
X0197006Y0125100D01*
X0196272Y0125100D01*
X0195905Y0125467D01*
X0195905Y0126935D01*
X0196272Y0127302D01*
X0197006Y0127302D01*
X0197373Y0126935D01*
X0195163Y0126935D02*
X0194796Y0127302D01*
X0194062Y0127302D01*
X0193695Y0126935D01*
X0193695Y0126568D01*
X0194062Y0126201D01*
X0194796Y0126201D01*
X0195163Y0125834D01*
X0195163Y0125467D01*
X0194796Y0125100D01*
X0194062Y0125100D01*
X0193695Y0125467D01*
X0064503Y0128802D02*
X0063035Y0128802D01*
X0063769Y0128802D02*
X0063769Y0126600D01*
X0062293Y0126600D02*
X0060825Y0126600D01*
X0060825Y0128802D01*
X0062293Y0128802D01*
X0061559Y0127701D02*
X0060825Y0127701D01*
X0060083Y0127334D02*
X0059716Y0127701D01*
X0058982Y0127701D01*
X0058615Y0128068D01*
X0058615Y0128435D01*
X0058982Y0128802D01*
X0059716Y0128802D01*
X0060083Y0128435D01*
X0060083Y0127334D02*
X0060083Y0126967D01*
X0059716Y0126600D01*
X0058982Y0126600D01*
X0058615Y0126967D01*
X0057873Y0126600D02*
X0056405Y0126600D01*
X0056405Y0128802D01*
X0057873Y0128802D01*
X0057139Y0127701D02*
X0056405Y0127701D01*
X0055663Y0127701D02*
X0055296Y0127334D01*
X0054195Y0127334D01*
X0054195Y0126600D02*
X0054195Y0128802D01*
X0055296Y0128802D01*
X0055663Y0128435D01*
X0055663Y0127701D01*
X0054929Y0127334D02*
X0055663Y0126600D01*
D11*
X0071729Y0040152D02*
X0071245Y0039669D01*
X0071245Y0037734D01*
X0071729Y0037250D01*
X0072696Y0037250D01*
X0073180Y0037734D01*
X0074192Y0037734D02*
X0074675Y0038217D01*
X0076127Y0038217D01*
X0076127Y0038701D02*
X0076127Y0037250D01*
X0074675Y0037250D01*
X0074192Y0037734D01*
X0074675Y0039185D02*
X0075643Y0039185D01*
X0076127Y0038701D01*
X0077138Y0038217D02*
X0078106Y0039185D01*
X0078589Y0039185D01*
X0079594Y0040152D02*
X0081529Y0037250D01*
X0081529Y0040152D01*
X0082540Y0038701D02*
X0083024Y0039185D01*
X0083991Y0039185D01*
X0084475Y0038701D01*
X0084475Y0038217D01*
X0082540Y0038217D01*
X0082540Y0037734D02*
X0082540Y0038701D01*
X0082540Y0037734D02*
X0083024Y0037250D01*
X0083991Y0037250D01*
X0085970Y0037734D02*
X0086454Y0037250D01*
X0085970Y0037734D02*
X0085970Y0039669D01*
X0085487Y0039185D02*
X0086454Y0039185D01*
X0085956Y0034385D02*
X0086439Y0033901D01*
X0086439Y0033417D01*
X0084504Y0033417D01*
X0084504Y0032934D02*
X0084504Y0033901D01*
X0084988Y0034385D01*
X0085956Y0034385D01*
X0087451Y0033901D02*
X0087935Y0034385D01*
X0089386Y0034385D01*
X0088902Y0033417D02*
X0087935Y0033417D01*
X0087451Y0033901D01*
X0087451Y0032450D02*
X0088902Y0032450D01*
X0089386Y0032934D01*
X0088902Y0033417D01*
X0085956Y0032450D02*
X0084988Y0032450D01*
X0084504Y0032934D01*
X0083508Y0032450D02*
X0082540Y0032450D01*
X0083024Y0032450D02*
X0083024Y0035352D01*
X0082540Y0035352D01*
X0081536Y0034385D02*
X0081052Y0034385D01*
X0080085Y0033417D01*
X0080085Y0032450D02*
X0080085Y0034385D01*
X0079073Y0033901D02*
X0079073Y0032450D01*
X0077622Y0032450D01*
X0077138Y0032934D01*
X0077622Y0033417D01*
X0079073Y0033417D01*
X0079073Y0033901D02*
X0078589Y0034385D01*
X0077622Y0034385D01*
X0076127Y0033901D02*
X0076127Y0032450D01*
X0076127Y0033901D02*
X0075643Y0034385D01*
X0074675Y0034385D01*
X0074192Y0033901D01*
X0073180Y0032934D02*
X0072696Y0032450D01*
X0071729Y0032450D01*
X0071245Y0032934D01*
X0071245Y0034869D01*
X0071729Y0035352D01*
X0072696Y0035352D01*
X0073180Y0034869D01*
X0074192Y0035352D02*
X0074192Y0032450D01*
X0074675Y0030552D02*
X0075643Y0030552D01*
X0076127Y0030069D01*
X0074192Y0028134D01*
X0074675Y0027650D01*
X0075643Y0027650D01*
X0076127Y0028134D01*
X0076127Y0030069D01*
X0077138Y0029585D02*
X0078106Y0030552D01*
X0078106Y0027650D01*
X0079073Y0027650D02*
X0077138Y0027650D01*
X0080085Y0028134D02*
X0080085Y0028617D01*
X0080568Y0029101D01*
X0081536Y0029101D01*
X0082020Y0028617D01*
X0082020Y0028134D01*
X0081536Y0027650D01*
X0080568Y0027650D01*
X0080085Y0028134D01*
X0080568Y0029101D02*
X0080085Y0029585D01*
X0080085Y0030069D01*
X0080568Y0030552D01*
X0081536Y0030552D01*
X0082020Y0030069D01*
X0082020Y0029585D01*
X0081536Y0029101D01*
X0074675Y0030552D02*
X0074192Y0030069D01*
X0074192Y0028134D01*
X0073180Y0027650D02*
X0071245Y0027650D01*
X0073180Y0029585D01*
X0073180Y0030069D01*
X0072696Y0030552D01*
X0071729Y0030552D01*
X0071245Y0030069D01*
X0077138Y0037250D02*
X0077138Y0039185D01*
X0079594Y0040152D02*
X0079594Y0037250D01*
X0073180Y0039669D02*
X0072696Y0040152D01*
X0071729Y0040152D01*
X0093344Y0034869D02*
X0093344Y0032934D01*
X0093828Y0032450D01*
X0094795Y0032450D01*
X0095279Y0032934D01*
X0096291Y0032934D02*
X0096774Y0032450D01*
X0098226Y0032450D01*
X0098226Y0034385D01*
X0099237Y0034385D02*
X0100688Y0034385D01*
X0101172Y0033901D01*
X0101172Y0032450D01*
X0102184Y0032450D02*
X0102184Y0034385D01*
X0103635Y0034385D01*
X0104119Y0033901D01*
X0104119Y0032450D01*
X0105130Y0032450D02*
X0106098Y0032450D01*
X0105614Y0032450D02*
X0105614Y0034385D01*
X0105130Y0034385D01*
X0105614Y0035352D02*
X0105614Y0035836D01*
X0107094Y0034385D02*
X0107094Y0032450D01*
X0107094Y0034385D02*
X0108546Y0034385D01*
X0109029Y0033901D01*
X0109029Y0032450D01*
X0110041Y0032934D02*
X0110525Y0032450D01*
X0111976Y0032450D01*
X0111976Y0031966D02*
X0111976Y0034385D01*
X0110525Y0034385D01*
X0110041Y0033901D01*
X0110041Y0032934D01*
X0111008Y0031483D02*
X0111492Y0031483D01*
X0111976Y0031966D01*
X0112987Y0032450D02*
X0112987Y0035352D01*
X0113471Y0034385D02*
X0112987Y0033901D01*
X0113471Y0034385D02*
X0114439Y0034385D01*
X0114922Y0033901D01*
X0114922Y0032450D01*
X0115934Y0032934D02*
X0116418Y0033417D01*
X0117869Y0033417D01*
X0117869Y0033901D02*
X0117869Y0032450D01*
X0116418Y0032450D01*
X0115934Y0032934D01*
X0116418Y0034385D02*
X0117385Y0034385D01*
X0117869Y0033901D01*
X0118881Y0034385D02*
X0119364Y0034385D01*
X0119848Y0033901D01*
X0120332Y0034385D01*
X0120815Y0033901D01*
X0120815Y0032450D01*
X0119848Y0032450D02*
X0119848Y0033901D01*
X0118881Y0034385D02*
X0118881Y0032450D01*
X0124774Y0032934D02*
X0125257Y0033417D01*
X0126709Y0033417D01*
X0126709Y0033901D02*
X0126709Y0032450D01*
X0125257Y0032450D01*
X0124774Y0032934D01*
X0125257Y0034385D02*
X0126225Y0034385D01*
X0126709Y0033901D01*
X0127720Y0034385D02*
X0129171Y0034385D01*
X0129655Y0033901D01*
X0129655Y0032450D01*
X0130667Y0032934D02*
X0130667Y0033901D01*
X0131150Y0034385D01*
X0132602Y0034385D01*
X0132602Y0035352D02*
X0132602Y0032450D01*
X0131150Y0032450D01*
X0130667Y0032934D01*
X0127720Y0032450D02*
X0127720Y0034385D01*
X0136560Y0034385D02*
X0137043Y0033901D01*
X0138011Y0033901D01*
X0138495Y0033417D01*
X0138495Y0032934D01*
X0138011Y0032450D01*
X0137043Y0032450D01*
X0136560Y0032934D01*
X0136560Y0034385D02*
X0136560Y0034869D01*
X0137043Y0035352D01*
X0138011Y0035352D01*
X0138495Y0034869D01*
X0139990Y0034385D02*
X0140957Y0034385D01*
X0141441Y0033901D01*
X0141441Y0032450D01*
X0139990Y0032450D01*
X0139506Y0032934D01*
X0139990Y0033417D01*
X0141441Y0033417D01*
X0142453Y0032934D02*
X0142453Y0033901D01*
X0142936Y0034385D01*
X0144388Y0034385D01*
X0144388Y0035352D02*
X0144388Y0032450D01*
X0142936Y0032450D01*
X0142453Y0032934D01*
X0145399Y0032450D02*
X0146367Y0032450D01*
X0145883Y0032450D02*
X0145883Y0034385D01*
X0145399Y0034385D01*
X0145883Y0035352D02*
X0145883Y0035836D01*
X0150310Y0034869D02*
X0150310Y0032934D01*
X0150794Y0032450D01*
X0151761Y0032450D01*
X0152245Y0032934D01*
X0152245Y0033901D01*
X0151278Y0033901D01*
X0152245Y0034869D02*
X0151761Y0035352D01*
X0150794Y0035352D01*
X0150310Y0034869D01*
X0153257Y0034385D02*
X0153257Y0032934D01*
X0153740Y0032450D01*
X0155192Y0032450D01*
X0155192Y0034385D01*
X0156203Y0035352D02*
X0156687Y0035352D01*
X0156687Y0032450D01*
X0156203Y0032450D02*
X0157171Y0032450D01*
X0158167Y0032934D02*
X0158651Y0032450D01*
X0160102Y0032450D01*
X0161114Y0032934D02*
X0161114Y0033901D01*
X0161598Y0034385D01*
X0162565Y0034385D01*
X0163049Y0033901D01*
X0163049Y0033417D01*
X0161114Y0033417D01*
X0161114Y0032934D02*
X0161598Y0032450D01*
X0162565Y0032450D01*
X0164060Y0032450D02*
X0165028Y0032450D01*
X0164544Y0032450D02*
X0164544Y0035352D01*
X0164060Y0035352D01*
X0166025Y0034385D02*
X0166509Y0034385D01*
X0166509Y0032450D01*
X0166992Y0032450D02*
X0166025Y0032450D01*
X0167989Y0032450D02*
X0167989Y0035352D01*
X0166509Y0035352D02*
X0166509Y0035836D01*
X0167989Y0033417D02*
X0169440Y0034385D01*
X0167989Y0033417D02*
X0169440Y0032450D01*
X0160102Y0034385D02*
X0158651Y0034385D01*
X0158167Y0033901D01*
X0158167Y0032934D01*
X0099237Y0032450D02*
X0099237Y0034385D01*
X0096291Y0034385D02*
X0096291Y0032934D01*
X0095279Y0034869D02*
X0094795Y0035352D01*
X0093828Y0035352D01*
X0093344Y0034869D01*
D12*
X0055595Y0040000D02*
X0055595Y0044000D01*
X0057095Y0071000D02*
X0061095Y0071000D01*
X0057095Y0088000D02*
X0053095Y0088000D01*
X0067595Y0089500D02*
X0071595Y0089500D01*
X0078095Y0088000D02*
X0082095Y0088000D01*
X0167595Y0069500D02*
X0167595Y0065500D01*
X0170595Y0055000D02*
X0170595Y0051000D01*
X0167595Y0045500D02*
X0167595Y0041500D01*
D13*
X0194595Y0057000D02*
X0197095Y0054500D01*
X0202095Y0054500D01*
X0204595Y0057000D01*
X0207095Y0054500D01*
X0212095Y0054500D01*
X0214595Y0057000D01*
X0217095Y0054500D01*
X0222095Y0054500D01*
X0224595Y0057000D01*
X0224595Y0062000D01*
X0222095Y0064500D01*
X0224595Y0067000D01*
X0224595Y0072000D01*
X0222095Y0074500D01*
X0224595Y0077000D01*
X0224595Y0082000D01*
X0222095Y0084500D01*
X0224595Y0087000D01*
X0224595Y0092000D01*
X0222095Y0094500D01*
X0217095Y0094500D01*
X0214595Y0092000D01*
X0214595Y0087000D01*
X0217095Y0084500D01*
X0214595Y0082000D01*
X0214595Y0077000D01*
X0217095Y0074500D01*
X0214595Y0072000D01*
X0214595Y0067000D01*
X0217095Y0064500D01*
X0214595Y0062000D01*
X0214595Y0057000D01*
X0214595Y0062000D01*
X0212095Y0064500D01*
X0214595Y0067000D01*
X0214595Y0072000D01*
X0212095Y0074500D01*
X0214595Y0077000D01*
X0214595Y0082000D01*
X0212095Y0084500D01*
X0214595Y0087000D01*
X0214595Y0092000D01*
X0212095Y0094500D01*
X0207095Y0094500D01*
X0204595Y0092000D01*
X0204595Y0087000D01*
X0207095Y0084500D01*
X0204595Y0082000D01*
X0204595Y0077000D01*
X0207095Y0074500D01*
X0204595Y0072000D01*
X0204595Y0067000D01*
X0207095Y0064500D01*
X0204595Y0062000D01*
X0204595Y0057000D01*
X0204595Y0062000D01*
X0202095Y0064500D01*
X0204595Y0067000D01*
X0204595Y0072000D01*
X0202095Y0074500D01*
X0204595Y0077000D01*
X0204595Y0082000D01*
X0202095Y0084500D01*
X0204595Y0087000D01*
X0204595Y0092000D01*
X0202095Y0094500D01*
X0197095Y0094500D01*
X0194595Y0092000D01*
X0194595Y0087000D01*
X0197095Y0084500D01*
X0194595Y0082000D01*
X0194595Y0077000D01*
X0197095Y0074500D01*
X0194595Y0072000D01*
X0194595Y0067000D01*
X0197095Y0064500D01*
X0194595Y0062000D01*
X0194595Y0057000D01*
X0191601Y0066232D02*
X0191601Y0082768D01*
X0190622Y0093983D02*
X0185698Y0093115D01*
X0182801Y0095143D01*
X0180773Y0092247D01*
X0175849Y0091378D01*
X0172953Y0093406D01*
X0170925Y0090510D01*
X0166001Y0089642D01*
X0163105Y0091670D01*
X0162237Y0096594D01*
X0164265Y0099490D01*
X0169189Y0100358D01*
X0172085Y0098330D01*
X0174113Y0101226D01*
X0179037Y0102095D01*
X0181933Y0100067D01*
X0183961Y0102963D01*
X0188885Y0103831D01*
X0191781Y0101803D01*
X0193809Y0104699D01*
X0198733Y0105568D01*
X0201629Y0103540D01*
X0202498Y0098616D01*
X0200470Y0095720D01*
X0195546Y0094851D01*
X0192649Y0096879D01*
X0190622Y0093983D01*
X0179590Y0082768D02*
X0179590Y0066232D01*
X0067591Y0057650D02*
X0067591Y0051350D01*
X0062670Y0058634D02*
X0059520Y0058634D01*
X0054599Y0057650D02*
X0054599Y0051350D01*
X0052590Y0103732D02*
X0052590Y0120268D01*
X0064601Y0120268D02*
X0064601Y0103732D01*
D14*
X0100473Y0102972D02*
X0100473Y0043917D01*
X0147717Y0043917D01*
X0147717Y0102972D01*
X0100473Y0102972D01*
X0092599Y0133681D02*
X0092599Y0039193D01*
X0155591Y0039193D01*
X0155591Y0133681D01*
X0092599Y0133681D01*
X0182690Y0024999D02*
X0194501Y0024999D01*
X0180572Y0024600D02*
X0180574Y0024630D01*
X0180580Y0024659D01*
X0180590Y0024687D01*
X0180603Y0024714D01*
X0180620Y0024738D01*
X0180640Y0024760D01*
X0180663Y0024780D01*
X0180688Y0024796D01*
X0180715Y0024808D01*
X0180743Y0024817D01*
X0180773Y0024822D01*
X0180802Y0024823D01*
X0180832Y0024820D01*
X0180861Y0024813D01*
X0180889Y0024802D01*
X0180915Y0024788D01*
X0180939Y0024770D01*
X0180960Y0024750D01*
X0180979Y0024726D01*
X0180994Y0024701D01*
X0181006Y0024673D01*
X0181014Y0024644D01*
X0181018Y0024615D01*
X0181018Y0024585D01*
X0181014Y0024556D01*
X0181006Y0024527D01*
X0180994Y0024499D01*
X0180979Y0024474D01*
X0180960Y0024450D01*
X0180939Y0024430D01*
X0180915Y0024412D01*
X0180889Y0024398D01*
X0180861Y0024387D01*
X0180832Y0024380D01*
X0180802Y0024377D01*
X0180773Y0024378D01*
X0180743Y0024383D01*
X0180715Y0024392D01*
X0180688Y0024404D01*
X0180663Y0024420D01*
X0180640Y0024440D01*
X0180620Y0024462D01*
X0180603Y0024486D01*
X0180590Y0024513D01*
X0180580Y0024541D01*
X0180574Y0024570D01*
X0180572Y0024600D01*
X0182690Y0012001D02*
X0194501Y0012001D01*
D15*
X0184776Y0029638D02*
X0182414Y0029638D01*
X0182414Y0034362D02*
X0184776Y0034362D01*
X0176595Y0059000D02*
X0176595Y0062000D01*
X0174595Y0060500D01*
X0176595Y0059000D01*
X0176595Y0059063D02*
X0176511Y0059063D01*
X0176595Y0059662D02*
X0175713Y0059662D01*
X0174915Y0060260D02*
X0176595Y0060260D01*
X0176595Y0060859D02*
X0175073Y0060859D01*
X0175871Y0061457D02*
X0176595Y0061457D01*
X0147595Y0028500D02*
X0142595Y0028500D01*
X0140095Y0026000D01*
X0140095Y0021000D01*
X0142595Y0018500D01*
X0147595Y0018500D01*
X0150095Y0021000D01*
X0150095Y0026000D01*
X0147595Y0028500D01*
X0140095Y0026000D02*
X0137595Y0028500D01*
X0132595Y0028500D01*
X0130095Y0026000D01*
X0130095Y0021000D01*
X0132595Y0018500D01*
X0137595Y0018500D01*
X0140095Y0021000D01*
X0130095Y0021000D02*
X0127595Y0018500D01*
X0122595Y0018500D01*
X0120095Y0021000D01*
X0120095Y0026000D01*
X0122595Y0028500D01*
X0127595Y0028500D01*
X0130095Y0026000D01*
X0112095Y0026000D02*
X0112095Y0021000D01*
X0109595Y0018500D01*
X0104595Y0018500D01*
X0102095Y0021000D01*
X0099595Y0018500D01*
X0094595Y0018500D01*
X0092095Y0021000D01*
X0089595Y0018500D01*
X0084595Y0018500D01*
X0082095Y0021000D01*
X0082095Y0026000D01*
X0084595Y0028500D01*
X0089595Y0028500D01*
X0092095Y0026000D01*
X0094595Y0028500D01*
X0099595Y0028500D01*
X0102095Y0026000D01*
X0104595Y0028500D01*
X0109595Y0028500D01*
X0112095Y0026000D01*
X0102095Y0026000D02*
X0102095Y0021000D01*
X0092095Y0021000D02*
X0092095Y0026000D01*
X0108655Y0112977D02*
X0108655Y0115913D01*
X0110123Y0117381D01*
X0111591Y0115913D01*
X0111591Y0112977D01*
X0113259Y0112977D02*
X0113259Y0115913D01*
X0115461Y0115913D01*
X0116195Y0115179D01*
X0116195Y0112977D01*
X0118597Y0113711D02*
X0119331Y0112977D01*
X0118597Y0113711D02*
X0118597Y0116647D01*
X0117863Y0115913D02*
X0119331Y0115913D01*
X0120932Y0115179D02*
X0120932Y0113711D01*
X0121666Y0112977D01*
X0123134Y0112977D01*
X0123868Y0114445D02*
X0120932Y0114445D01*
X0120932Y0115179D02*
X0121666Y0115913D01*
X0123134Y0115913D01*
X0123868Y0115179D01*
X0123868Y0114445D01*
X0125536Y0112977D02*
X0125536Y0115913D01*
X0127738Y0115913D01*
X0128472Y0115179D01*
X0128472Y0112977D01*
X0130140Y0112977D02*
X0130140Y0115913D01*
X0132342Y0115913D01*
X0133076Y0115179D01*
X0133076Y0112977D01*
X0134744Y0113711D02*
X0135478Y0114445D01*
X0137680Y0114445D01*
X0137680Y0115179D02*
X0137680Y0112977D01*
X0135478Y0112977D01*
X0134744Y0113711D01*
X0135478Y0115913D02*
X0136946Y0115913D01*
X0137680Y0115179D01*
X0111591Y0115179D02*
X0108655Y0115179D01*
D16*
X0174667Y0060500D03*
D17*
X0194589Y0048380D03*
X0194589Y0042580D03*
X0201589Y0042580D03*
X0201589Y0048380D03*
D18*
X0048095Y0028500D02*
X0048095Y0011000D01*
X0068095Y0011000D01*
X0068095Y0028500D01*
X0048095Y0028500D01*
X0048095Y0036000D01*
X0068095Y0036000D01*
X0068095Y0028500D01*
X0153095Y0028000D02*
X0153095Y0010500D01*
X0173095Y0010500D01*
X0173095Y0028000D01*
X0153095Y0028000D01*
X0153095Y0035500D01*
X0173095Y0035500D01*
X0173095Y0028000D01*
M02*
