G75*
%MOIN*%
%OFA0B0*%
%FSLAX25Y25*%
%IPPOS*%
%LPD*%
%AMOC8*
5,1,8,0,0,1.08239X$1,22.5*
%
%ADD10C,0.00600*%
%ADD11C,0.00500*%
%ADD12R,0.26928X0.00066*%
%ADD13R,0.01056X0.00066*%
%ADD14R,0.01056X0.00066*%
%ADD15R,0.00990X0.00066*%
%ADD16R,0.01188X0.00066*%
%ADD17R,0.00990X0.00066*%
%ADD18R,0.01122X0.00066*%
%ADD19R,0.01188X0.00066*%
%ADD20R,0.01650X0.00066*%
%ADD21R,0.01254X0.00066*%
%ADD22R,0.02310X0.00066*%
%ADD23R,0.02310X0.00066*%
%ADD24R,0.26928X0.00066*%
%ADD25R,0.01056X0.00066*%
%ADD26R,0.00990X0.00066*%
%ADD27R,0.00990X0.00066*%
%ADD28R,0.01188X0.00066*%
%ADD29R,0.01122X0.00066*%
%ADD30R,0.01188X0.00066*%
%ADD31R,0.01650X0.00066*%
%ADD32R,0.01254X0.00066*%
%ADD33R,0.02310X0.00066*%
%ADD34R,0.02310X0.00066*%
%ADD35R,0.01254X0.00066*%
%ADD36R,0.02244X0.00066*%
%ADD37R,0.01320X0.00066*%
%ADD38R,0.00924X0.00066*%
%ADD39R,0.00924X0.00066*%
%ADD40R,0.00066X0.00066*%
%ADD41R,0.01254X0.00066*%
%ADD42R,0.02244X0.00066*%
%ADD43R,0.01320X0.00066*%
%ADD44R,0.00858X0.00066*%
%ADD45R,0.00132X0.00066*%
%ADD46R,0.02244X0.00066*%
%ADD47R,0.00792X0.00066*%
%ADD48R,0.00198X0.00066*%
%ADD49R,0.02640X0.00066*%
%ADD50R,0.03960X0.00066*%
%ADD51R,0.02244X0.00066*%
%ADD52R,0.00792X0.00066*%
%ADD53R,0.00264X0.00066*%
%ADD54R,0.02640X0.00066*%
%ADD55R,0.03960X0.00066*%
%ADD56R,0.00726X0.00066*%
%ADD57R,0.03894X0.00066*%
%ADD58R,0.00726X0.00066*%
%ADD59R,0.00264X0.00066*%
%ADD60R,0.03894X0.00066*%
%ADD61R,0.00660X0.00066*%
%ADD62R,0.00330X0.00066*%
%ADD63R,0.02508X0.00066*%
%ADD64R,0.03762X0.00066*%
%ADD65R,0.00594X0.00066*%
%ADD66R,0.00396X0.00066*%
%ADD67R,0.02112X0.00066*%
%ADD68R,0.03366X0.00066*%
%ADD69R,0.00594X0.00066*%
%ADD70R,0.00396X0.00066*%
%ADD71R,0.01386X0.00066*%
%ADD72R,0.01716X0.00066*%
%ADD73R,0.01584X0.00066*%
%ADD74R,0.01452X0.00066*%
%ADD75R,0.00528X0.00066*%
%ADD76R,0.00462X0.00066*%
%ADD77R,0.01716X0.00066*%
%ADD78R,0.01452X0.00066*%
%ADD79R,0.02376X0.00066*%
%ADD80R,0.00528X0.00066*%
%ADD81R,0.00462X0.00066*%
%ADD82R,0.01782X0.00066*%
%ADD83R,0.02442X0.00066*%
%ADD84R,0.01122X0.00066*%
%ADD85R,0.01914X0.00066*%
%ADD86R,0.02574X0.00066*%
%ADD87R,0.03168X0.00066*%
%ADD88R,0.00594X0.00066*%
%ADD89R,0.01056X0.00066*%
%ADD90R,0.02904X0.00066*%
%ADD91R,0.02376X0.00066*%
%ADD92R,0.03630X0.00066*%
%ADD93R,0.00594X0.00066*%
%ADD94R,0.03234X0.00066*%
%ADD95R,0.03828X0.00066*%
%ADD96R,0.03894X0.00066*%
%ADD97R,0.00330X0.00066*%
%ADD98R,0.00660X0.00066*%
%ADD99R,0.03234X0.00066*%
%ADD100R,0.03894X0.00066*%
%ADD101R,0.00792X0.00066*%
%ADD102R,0.00198X0.00066*%
%ADD103R,0.00792X0.00066*%
%ADD104R,0.00858X0.00066*%
%ADD105R,0.01122X0.00066*%
%ADD106R,0.01386X0.00066*%
%ADD107R,0.02442X0.00066*%
%ADD108R,0.01518X0.00066*%
%ADD109R,0.01320X0.00066*%
%ADD110R,0.01518X0.00066*%
%ADD111R,0.02706X0.00066*%
%ADD112R,0.55110X0.00066*%
%ADD113R,0.55110X0.00066*%
%ADD114R,0.02508X0.00066*%
%ADD115R,0.01914X0.00066*%
%ADD116R,0.02508X0.00066*%
%ADD117R,0.02046X0.00066*%
%ADD118R,0.02112X0.00066*%
%ADD119R,0.03102X0.00066*%
%ADD120R,0.02706X0.00066*%
%ADD121R,0.03036X0.00066*%
%ADD122R,0.02508X0.00066*%
%ADD123R,0.02838X0.00066*%
%ADD124R,0.02772X0.00066*%
%ADD125R,0.02970X0.00066*%
%ADD126R,0.03300X0.00066*%
%ADD127R,0.03432X0.00066*%
%ADD128R,0.03432X0.00066*%
%ADD129R,0.01584X0.00066*%
%ADD130R,0.03630X0.00066*%
%ADD131R,0.03696X0.00066*%
%ADD132R,0.03696X0.00066*%
%ADD133R,0.04026X0.00066*%
%ADD134R,0.03828X0.00066*%
%ADD135R,0.03828X0.00066*%
%ADD136R,0.01848X0.00066*%
%ADD137R,0.04224X0.00066*%
%ADD138R,0.04026X0.00066*%
%ADD139R,0.03960X0.00066*%
%ADD140R,0.01980X0.00066*%
%ADD141R,0.04422X0.00066*%
%ADD142R,0.04158X0.00066*%
%ADD143R,0.04422X0.00066*%
%ADD144R,0.04488X0.00066*%
%ADD145R,0.04290X0.00066*%
%ADD146R,0.02178X0.00066*%
%ADD147R,0.04686X0.00066*%
%ADD148R,0.04686X0.00066*%
%ADD149R,0.04092X0.00066*%
%ADD150R,0.04818X0.00066*%
%ADD151R,0.04620X0.00066*%
%ADD152R,0.04818X0.00066*%
%ADD153R,0.04884X0.00066*%
%ADD154R,0.04620X0.00066*%
%ADD155R,0.04884X0.00066*%
%ADD156R,0.04686X0.00066*%
%ADD157R,0.04158X0.00066*%
%ADD158R,0.05016X0.00066*%
%ADD159R,0.05016X0.00066*%
%ADD160R,0.05148X0.00066*%
%ADD161R,0.04950X0.00066*%
%ADD162R,0.05214X0.00066*%
%ADD163R,0.02706X0.00066*%
%ADD164R,0.05214X0.00066*%
%ADD165R,0.05148X0.00066*%
%ADD166R,0.05016X0.00066*%
%ADD167R,0.04224X0.00066*%
%ADD168R,0.07920X0.00066*%
%ADD169R,0.05214X0.00066*%
%ADD170R,0.07788X0.00066*%
%ADD171R,0.07920X0.00066*%
%ADD172R,0.05346X0.00066*%
%ADD173R,0.07854X0.00066*%
%ADD174R,0.05280X0.00066*%
%ADD175R,0.04290X0.00066*%
%ADD176R,0.02970X0.00066*%
%ADD177R,0.07854X0.00066*%
%ADD178R,0.07854X0.00066*%
%ADD179R,0.04290X0.00066*%
%ADD180R,0.03102X0.00066*%
%ADD181R,0.07854X0.00066*%
%ADD182R,0.07986X0.00066*%
%ADD183R,0.07920X0.00066*%
%ADD184R,0.04356X0.00066*%
%ADD185R,0.07986X0.00066*%
%ADD186R,0.07920X0.00066*%
%ADD187R,0.04356X0.00066*%
%ADD188R,0.03498X0.00066*%
%ADD189R,0.03630X0.00066*%
%ADD190R,0.03696X0.00066*%
%ADD191R,0.08052X0.00066*%
%ADD192R,0.03696X0.00066*%
%ADD193R,0.02640X0.00066*%
%ADD194R,0.03498X0.00066*%
%ADD195R,0.08052X0.00066*%
%ADD196R,0.03498X0.00066*%
%ADD197R,0.03168X0.00066*%
%ADD198R,0.07986X0.00066*%
%ADD199R,0.04158X0.00066*%
%ADD200R,0.03036X0.00066*%
%ADD201R,0.02970X0.00066*%
%ADD202R,0.07986X0.00066*%
%ADD203R,0.02904X0.00066*%
%ADD204R,0.04224X0.00066*%
%ADD205R,0.03432X0.00066*%
%ADD206R,0.02904X0.00066*%
%ADD207R,0.03432X0.00066*%
%ADD208R,0.04290X0.00066*%
%ADD209R,0.02772X0.00066*%
%ADD210R,0.02706X0.00066*%
%ADD211R,0.02640X0.00066*%
%ADD212R,0.04422X0.00066*%
%ADD213R,0.02838X0.00066*%
%ADD214R,0.02574X0.00066*%
%ADD215R,0.02574X0.00066*%
%ADD216R,0.04488X0.00066*%
%ADD217R,0.04620X0.00066*%
%ADD218R,0.04686X0.00066*%
%ADD219R,0.04752X0.00066*%
%ADD220R,0.04884X0.00066*%
%ADD221R,0.01848X0.00066*%
%ADD222R,0.05016X0.00066*%
%ADD223R,0.02046X0.00066*%
%ADD224R,0.05280X0.00066*%
%ADD225R,0.03036X0.00066*%
%ADD226R,0.05412X0.00066*%
%ADD227R,0.03300X0.00066*%
%ADD228R,0.05478X0.00066*%
%ADD229R,0.05610X0.00066*%
%ADD230R,0.05676X0.00066*%
%ADD231R,0.05808X0.00066*%
%ADD232R,0.05874X0.00066*%
%ADD233R,0.06006X0.00066*%
%ADD234R,0.06138X0.00066*%
%ADD235R,0.06204X0.00066*%
%ADD236R,0.05148X0.00066*%
%ADD237R,0.06270X0.00066*%
%ADD238R,0.05412X0.00066*%
%ADD239R,0.06336X0.00066*%
%ADD240R,0.05544X0.00066*%
%ADD241R,0.06402X0.00066*%
%ADD242R,0.06402X0.00066*%
%ADD243R,0.05940X0.00066*%
%ADD244R,0.06534X0.00066*%
%ADD245R,0.06138X0.00066*%
%ADD246R,0.06600X0.00066*%
%ADD247R,0.06204X0.00066*%
%ADD248R,0.06600X0.00066*%
%ADD249R,0.07788X0.00066*%
%ADD250R,0.06666X0.00066*%
%ADD251R,0.06468X0.00066*%
%ADD252R,0.06732X0.00066*%
%ADD253R,0.07722X0.00066*%
%ADD254R,0.06798X0.00066*%
%ADD255R,0.07722X0.00066*%
%ADD256R,0.06666X0.00066*%
%ADD257R,0.06798X0.00066*%
%ADD258R,0.07656X0.00066*%
%ADD259R,0.06798X0.00066*%
%ADD260R,0.06864X0.00066*%
%ADD261R,0.07656X0.00066*%
%ADD262R,0.06798X0.00066*%
%ADD263R,0.06930X0.00066*%
%ADD264R,0.07590X0.00066*%
%ADD265R,0.07524X0.00066*%
%ADD266R,0.07062X0.00066*%
%ADD267R,0.06996X0.00066*%
%ADD268R,0.07524X0.00066*%
%ADD269R,0.07458X0.00066*%
%ADD270R,0.07062X0.00066*%
%ADD271R,0.06996X0.00066*%
%ADD272R,0.07524X0.00066*%
%ADD273R,0.07458X0.00066*%
%ADD274R,0.07194X0.00066*%
%ADD275R,0.07128X0.00066*%
%ADD276R,0.07392X0.00066*%
%ADD277R,0.07260X0.00066*%
%ADD278R,0.07128X0.00066*%
%ADD279R,0.07326X0.00066*%
%ADD280R,0.07260X0.00066*%
%ADD281R,0.07326X0.00066*%
%ADD282R,0.07260X0.00066*%
%ADD283R,0.07194X0.00066*%
%ADD284R,0.07326X0.00066*%
%ADD285R,0.07062X0.00066*%
%ADD286R,0.07392X0.00066*%
%ADD287R,0.07194X0.00066*%
%ADD288R,0.07590X0.00066*%
%ADD289R,0.07590X0.00066*%
%ADD290R,0.07656X0.00066*%
%ADD291R,0.07392X0.00066*%
%ADD292R,0.07722X0.00066*%
%ADD293R,0.07722X0.00066*%
%ADD294R,0.07788X0.00066*%
%ADD295R,0.07524X0.00066*%
%ADD296R,0.02442X0.00066*%
%ADD297R,0.05610X0.00066*%
%ADD298R,0.02442X0.00066*%
%ADD299R,0.05610X0.00066*%
%ADD300R,0.02574X0.00066*%
%ADD301R,0.02772X0.00066*%
%ADD302R,0.03168X0.00066*%
%ADD303R,0.03564X0.00066*%
%ADD304R,0.07458X0.00066*%
%ADD305R,0.07590X0.00066*%
%ADD306R,0.07392X0.00066*%
%ADD307R,0.15312X0.00066*%
%ADD308R,0.15246X0.00066*%
%ADD309R,0.15246X0.00066*%
%ADD310R,0.15180X0.00066*%
%ADD311R,0.02970X0.00066*%
%ADD312R,0.15180X0.00066*%
%ADD313R,0.15114X0.00066*%
%ADD314R,0.02838X0.00066*%
%ADD315R,0.15048X0.00066*%
%ADD316R,0.10692X0.00066*%
%ADD317R,0.10362X0.00066*%
%ADD318R,0.05082X0.00066*%
%ADD319R,0.10296X0.00066*%
%ADD320R,0.04950X0.00066*%
%ADD321R,0.10164X0.00066*%
%ADD322R,0.04884X0.00066*%
%ADD323R,0.10098X0.00066*%
%ADD324R,0.06930X0.00066*%
%ADD325R,0.09966X0.00066*%
%ADD326R,0.04554X0.00066*%
%ADD327R,0.09900X0.00066*%
%ADD328R,0.03762X0.00066*%
%ADD329R,0.09834X0.00066*%
%ADD330R,0.06534X0.00066*%
%ADD331R,0.09702X0.00066*%
%ADD332R,0.04092X0.00066*%
%ADD333R,0.09636X0.00066*%
%ADD334R,0.06270X0.00066*%
%ADD335R,0.02112X0.00066*%
%ADD336R,0.09570X0.00066*%
%ADD337R,0.06138X0.00066*%
%ADD338R,0.06072X0.00066*%
%ADD339R,0.01980X0.00066*%
%ADD340R,0.09504X0.00066*%
%ADD341R,0.03564X0.00066*%
%ADD342R,0.05940X0.00066*%
%ADD343R,0.03498X0.00066*%
%ADD344R,0.09438X0.00066*%
%ADD345R,0.05676X0.00066*%
%ADD346R,0.01782X0.00066*%
%ADD347R,0.05082X0.00066*%
%ADD348R,0.04554X0.00066*%
%ADD349R,0.03366X0.00066*%
%ADD350R,0.04422X0.00066*%
%ADD351R,0.02838X0.00066*%
%ADD352R,0.04356X0.00066*%
%ADD353R,0.04356X0.00066*%
%ADD354R,0.03036X0.00066*%
%ADD355R,0.01716X0.00066*%
%ADD356R,0.06270X0.00066*%
%ADD357R,0.01716X0.00066*%
%ADD358R,0.06468X0.00066*%
%ADD359R,0.01584X0.00066*%
%ADD360R,0.07062X0.00066*%
%ADD361R,0.01452X0.00066*%
%ADD362R,0.04158X0.00066*%
%ADD363R,0.04092X0.00066*%
%ADD364R,0.08184X0.00066*%
%ADD365R,0.01320X0.00066*%
%ADD366R,0.08448X0.00066*%
%ADD367R,0.08514X0.00066*%
%ADD368R,0.01386X0.00066*%
%ADD369R,0.08712X0.00066*%
%ADD370R,0.08976X0.00066*%
%ADD371R,0.09174X0.00066*%
%ADD372R,0.11022X0.00066*%
%ADD373R,0.11088X0.00066*%
%ADD374R,0.03762X0.00066*%
%ADD375R,0.11220X0.00066*%
%ADD376R,0.11484X0.00066*%
%ADD377R,0.16632X0.00066*%
%ADD378R,0.16896X0.00066*%
%ADD379R,0.17358X0.00066*%
%ADD380R,0.17754X0.00066*%
%ADD381R,0.17820X0.00066*%
%ADD382R,0.18216X0.00066*%
%ADD383R,0.18480X0.00066*%
%ADD384R,0.18612X0.00066*%
%ADD385R,0.10032X0.00066*%
%ADD386R,0.08580X0.00066*%
%ADD387R,0.09570X0.00066*%
%ADD388R,0.09504X0.00066*%
%ADD389R,0.09504X0.00066*%
%ADD390R,0.09570X0.00066*%
%ADD391R,0.09636X0.00066*%
%ADD392R,0.06138X0.00066*%
%ADD393R,0.06006X0.00066*%
%ADD394R,0.05874X0.00066*%
%ADD395R,0.05874X0.00066*%
%ADD396R,0.05742X0.00066*%
%ADD397R,0.08118X0.00066*%
%ADD398R,0.05544X0.00066*%
%ADD399R,0.03564X0.00066*%
%ADD400R,0.08316X0.00066*%
%ADD401R,0.08580X0.00066*%
%ADD402R,0.05544X0.00066*%
%ADD403R,0.08712X0.00066*%
%ADD404R,0.04488X0.00066*%
%ADD405R,0.13068X0.00066*%
%ADD406R,0.05412X0.00066*%
%ADD407R,0.01584X0.00066*%
%ADD408R,0.13002X0.00066*%
%ADD409R,0.12936X0.00066*%
%ADD410R,0.05346X0.00066*%
%ADD411R,0.12870X0.00066*%
%ADD412R,0.12936X0.00066*%
%ADD413R,0.12870X0.00066*%
%ADD414R,0.01782X0.00066*%
%ADD415R,0.12870X0.00066*%
%ADD416R,0.05478X0.00066*%
%ADD417R,0.12870X0.00066*%
%ADD418R,0.05412X0.00066*%
%ADD419R,0.02046X0.00066*%
%ADD420R,0.12804X0.00066*%
%ADD421R,0.12738X0.00066*%
%ADD422R,0.12738X0.00066*%
%ADD423R,0.12672X0.00066*%
%ADD424R,0.12606X0.00066*%
%ADD425R,0.12606X0.00066*%
%ADD426R,0.05742X0.00066*%
%ADD427R,0.06006X0.00066*%
%ADD428R,0.12540X0.00066*%
%ADD429R,0.09966X0.00066*%
%ADD430R,0.12474X0.00066*%
%ADD431R,0.09966X0.00066*%
%ADD432R,0.12408X0.00066*%
%ADD433R,0.10032X0.00066*%
%ADD434R,0.12342X0.00066*%
%ADD435R,0.10098X0.00066*%
%ADD436R,0.12276X0.00066*%
%ADD437R,0.10164X0.00066*%
%ADD438R,0.12210X0.00066*%
%ADD439R,0.10230X0.00066*%
%ADD440R,0.12078X0.00066*%
%ADD441R,0.10230X0.00066*%
%ADD442R,0.11946X0.00066*%
%ADD443R,0.10296X0.00066*%
%ADD444R,0.11814X0.00066*%
%ADD445R,0.10362X0.00066*%
%ADD446R,0.11616X0.00066*%
%ADD447R,0.10428X0.00066*%
%ADD448R,0.11418X0.00066*%
%ADD449R,0.10494X0.00066*%
%ADD450R,0.10560X0.00066*%
%ADD451R,0.11022X0.00066*%
%ADD452R,0.10626X0.00066*%
%ADD453R,0.10758X0.00066*%
%ADD454R,0.10824X0.00066*%
%ADD455R,0.10362X0.00066*%
%ADD456R,0.10824X0.00066*%
%ADD457R,0.10890X0.00066*%
%ADD458R,0.10890X0.00066*%
%ADD459R,0.09768X0.00066*%
%ADD460R,0.10956X0.00066*%
%ADD461R,0.09372X0.00066*%
%ADD462R,0.11154X0.00066*%
%ADD463R,0.06270X0.00066*%
%ADD464R,0.11220X0.00066*%
%ADD465R,0.11352X0.00066*%
%ADD466R,0.11484X0.00066*%
%ADD467R,0.11550X0.00066*%
%ADD468R,0.11682X0.00066*%
%ADD469R,0.11682X0.00066*%
%ADD470R,0.11880X0.00066*%
%ADD471R,0.12012X0.00066*%
%ADD472R,0.03102X0.00066*%
%ADD473R,0.12144X0.00066*%
%ADD474R,0.09438X0.00066*%
%ADD475R,0.09438X0.00066*%
%ADD476R,0.06930X0.00066*%
%ADD477R,0.09438X0.00066*%
%ADD478R,0.07194X0.00066*%
%ADD479R,0.09372X0.00066*%
%ADD480R,0.09306X0.00066*%
%ADD481R,0.09306X0.00066*%
%ADD482R,0.09240X0.00066*%
%ADD483R,0.09042X0.00066*%
%ADD484R,0.08976X0.00066*%
%ADD485R,0.08844X0.00066*%
%ADD486R,0.08778X0.00066*%
%ADD487R,0.08382X0.00066*%
%ADD488R,0.08316X0.00066*%
%ADD489R,0.06336X0.00066*%
%ADD490R,0.06864X0.00066*%
%ADD491R,0.06666X0.00066*%
%ADD492R,0.06534X0.00066*%
%ADD493R,0.06204X0.00066*%
%ADD494R,0.06204X0.00066*%
%ADD495R,0.05808X0.00066*%
%ADD496R,0.05214X0.00066*%
%ADD497R,0.05082X0.00066*%
%ADD498R,0.04752X0.00066*%
%ADD499R,0.03366X0.00066*%
%ADD500R,0.03234X0.00066*%
%ADD501R,0.03234X0.00066*%
%ADD502R,0.00858X0.00066*%
%ADD503C,0.01200*%
%ADD504C,0.00800*%
D10*
X0071575Y0058300D02*
X0072309Y0059034D01*
X0072309Y0061970D01*
X0073043Y0061236D02*
X0071575Y0061236D01*
X0074711Y0060502D02*
X0074711Y0059768D01*
X0077647Y0059768D01*
X0077647Y0060502D02*
X0076913Y0061236D01*
X0075445Y0061236D01*
X0074711Y0060502D01*
X0075445Y0058300D02*
X0076913Y0058300D01*
X0077647Y0059034D01*
X0077647Y0060502D01*
X0079315Y0061236D02*
X0081517Y0061236D01*
X0082251Y0060502D01*
X0081517Y0059768D01*
X0080049Y0059768D01*
X0079315Y0059034D01*
X0080049Y0058300D01*
X0082251Y0058300D01*
X0083919Y0059768D02*
X0086855Y0059768D01*
X0086855Y0060502D02*
X0086121Y0061236D01*
X0084653Y0061236D01*
X0083919Y0060502D01*
X0083919Y0059768D01*
X0084653Y0058300D02*
X0086121Y0058300D01*
X0086855Y0059034D01*
X0086855Y0060502D01*
X0088489Y0061236D02*
X0089223Y0061236D01*
X0090691Y0059768D01*
X0090691Y0058300D02*
X0090691Y0061236D01*
X0090057Y0065800D02*
X0090057Y0068002D01*
X0090791Y0068736D01*
X0092993Y0068736D01*
X0092993Y0065800D01*
X0094661Y0066534D02*
X0094661Y0068736D01*
X0094661Y0066534D02*
X0095395Y0065800D01*
X0096129Y0066534D01*
X0096863Y0065800D01*
X0097597Y0066534D01*
X0097597Y0068736D01*
X0099265Y0068002D02*
X0099999Y0068736D01*
X0101467Y0068736D01*
X0102201Y0068002D01*
X0102201Y0066534D01*
X0101467Y0065800D01*
X0099999Y0065800D01*
X0099265Y0066534D01*
X0099265Y0068002D01*
X0103869Y0068736D02*
X0106071Y0068736D01*
X0106805Y0068002D01*
X0106805Y0066534D01*
X0106071Y0065800D01*
X0103869Y0065800D01*
X0103869Y0070204D01*
X0104219Y0073300D02*
X0106421Y0073300D01*
X0106421Y0077704D01*
X0104219Y0077704D01*
X0103486Y0076970D01*
X0103486Y0076236D01*
X0104219Y0075502D01*
X0106421Y0075502D01*
X0104219Y0075502D02*
X0103486Y0074768D01*
X0103486Y0074034D01*
X0104219Y0073300D01*
X0101817Y0074034D02*
X0101817Y0075502D01*
X0101083Y0076236D01*
X0099616Y0076236D01*
X0098882Y0075502D01*
X0098882Y0074034D01*
X0099616Y0073300D01*
X0101083Y0073300D01*
X0101817Y0074034D01*
X0097213Y0074034D02*
X0096480Y0073300D01*
X0095012Y0073300D01*
X0094278Y0074034D01*
X0094278Y0075502D01*
X0095012Y0076236D01*
X0096480Y0076236D01*
X0097213Y0075502D01*
X0097213Y0074034D01*
X0092610Y0076236D02*
X0091142Y0076236D01*
X0091876Y0076970D02*
X0091876Y0074034D01*
X0091142Y0073300D01*
X0089540Y0073300D02*
X0088072Y0073300D01*
X0088806Y0073300D02*
X0088806Y0077704D01*
X0089540Y0077704D01*
X0086471Y0075502D02*
X0086471Y0074034D01*
X0085737Y0073300D01*
X0084269Y0073300D01*
X0083535Y0074034D01*
X0083535Y0075502D01*
X0084269Y0076236D01*
X0085737Y0076236D01*
X0086471Y0075502D01*
X0081867Y0074034D02*
X0081133Y0074768D01*
X0078931Y0074768D01*
X0078931Y0075502D02*
X0078931Y0073300D01*
X0081133Y0073300D01*
X0081867Y0074034D01*
X0081133Y0076236D02*
X0079665Y0076236D01*
X0078931Y0075502D01*
X0077263Y0075502D02*
X0076529Y0076236D01*
X0074327Y0076236D01*
X0074327Y0077704D02*
X0074327Y0073300D01*
X0076529Y0073300D01*
X0077263Y0074034D01*
X0077263Y0075502D01*
X0072659Y0075502D02*
X0072659Y0076236D01*
X0071925Y0076236D01*
X0071925Y0075502D01*
X0072659Y0075502D01*
X0072659Y0074034D02*
X0071925Y0074034D01*
X0071925Y0073300D01*
X0072659Y0073300D01*
X0072659Y0074034D01*
X0073110Y0070204D02*
X0074578Y0070204D01*
X0073844Y0070204D02*
X0073844Y0065800D01*
X0074578Y0065800D02*
X0073110Y0065800D01*
X0071508Y0066534D02*
X0070774Y0065800D01*
X0069306Y0065800D01*
X0068572Y0066534D01*
X0068572Y0069470D01*
X0069306Y0070204D01*
X0070774Y0070204D01*
X0071508Y0069470D01*
X0071508Y0066534D01*
X0066904Y0066534D02*
X0066170Y0065800D01*
X0064702Y0065800D01*
X0063969Y0066534D01*
X0063969Y0069470D01*
X0066904Y0066534D01*
X0066904Y0069470D01*
X0066170Y0070204D01*
X0064702Y0070204D01*
X0063969Y0069470D01*
X0076246Y0069470D02*
X0076246Y0068002D01*
X0076980Y0067268D01*
X0079181Y0067268D01*
X0079181Y0065800D02*
X0079181Y0070204D01*
X0076980Y0070204D01*
X0076246Y0069470D01*
X0080850Y0069470D02*
X0081584Y0070204D01*
X0083051Y0070204D01*
X0083785Y0069470D01*
X0083785Y0066534D01*
X0083051Y0065800D01*
X0081584Y0065800D01*
X0080850Y0066534D01*
X0080850Y0068002D01*
X0082317Y0068002D01*
X0096963Y0061236D02*
X0096963Y0057566D01*
X0097697Y0056832D01*
X0098431Y0056832D01*
X0099165Y0058300D02*
X0096963Y0058300D01*
X0099165Y0058300D02*
X0099899Y0059034D01*
X0099899Y0060502D01*
X0099165Y0061236D01*
X0096963Y0061236D01*
X0101567Y0060502D02*
X0101567Y0058300D01*
X0101567Y0060502D02*
X0102301Y0061236D01*
X0104503Y0061236D01*
X0104503Y0058300D01*
X0106104Y0058300D02*
X0107572Y0058300D01*
X0106838Y0058300D02*
X0106838Y0061236D01*
X0107572Y0061236D01*
X0109207Y0061236D02*
X0109941Y0061236D01*
X0111409Y0059768D01*
X0111409Y0058300D02*
X0111409Y0061236D01*
X0113077Y0061236D02*
X0113077Y0058300D01*
X0115279Y0058300D01*
X0116013Y0059034D01*
X0116013Y0061236D01*
X0117681Y0061236D02*
X0119883Y0061236D01*
X0120617Y0060502D01*
X0120617Y0059034D01*
X0119883Y0058300D01*
X0117681Y0058300D01*
X0117681Y0062704D01*
X0117614Y0065800D02*
X0119082Y0065800D01*
X0118348Y0065800D02*
X0118348Y0070204D01*
X0119082Y0070204D01*
X0120750Y0068002D02*
X0121484Y0068736D01*
X0122952Y0068736D01*
X0123686Y0068002D01*
X0123686Y0066534D01*
X0122952Y0065800D01*
X0121484Y0065800D01*
X0120750Y0066534D01*
X0120750Y0068002D01*
X0125354Y0068002D02*
X0125354Y0065800D01*
X0125354Y0068002D02*
X0126088Y0068736D01*
X0127556Y0068736D01*
X0128290Y0068002D01*
X0128290Y0070204D02*
X0128290Y0065800D01*
X0118765Y0073300D02*
X0118765Y0077704D01*
X0120233Y0077704D02*
X0117297Y0077704D01*
X0115629Y0075502D02*
X0115629Y0074034D01*
X0114895Y0073300D01*
X0113427Y0073300D01*
X0112693Y0074034D01*
X0112693Y0075502D01*
X0113427Y0076236D01*
X0114895Y0076236D01*
X0115629Y0075502D01*
X0116463Y0080800D02*
X0114995Y0082268D01*
X0114995Y0085204D01*
X0117931Y0085204D02*
X0117931Y0082268D01*
X0116463Y0080800D01*
X0119599Y0081534D02*
X0119599Y0082268D01*
X0120333Y0083002D01*
X0121067Y0083002D01*
X0120333Y0083002D02*
X0119599Y0083736D01*
X0119599Y0084470D01*
X0120333Y0085204D01*
X0121801Y0085204D01*
X0122535Y0084470D01*
X0126505Y0084470D02*
X0126505Y0083736D01*
X0127239Y0083002D01*
X0126505Y0082268D01*
X0126505Y0081534D01*
X0127239Y0080800D01*
X0128707Y0080800D01*
X0129441Y0081534D01*
X0127973Y0083002D02*
X0127239Y0083002D01*
X0126505Y0084470D02*
X0127239Y0085204D01*
X0128707Y0085204D01*
X0129441Y0084470D01*
X0124837Y0081534D02*
X0124103Y0081534D01*
X0124103Y0080800D01*
X0124837Y0080800D01*
X0124837Y0081534D01*
X0122535Y0081534D02*
X0121801Y0080800D01*
X0120333Y0080800D01*
X0119599Y0081534D01*
X0118448Y0088300D02*
X0121384Y0088300D01*
X0121384Y0092704D01*
X0118448Y0092704D01*
X0116780Y0091970D02*
X0116780Y0091236D01*
X0116046Y0090502D01*
X0114578Y0090502D01*
X0113844Y0089768D01*
X0113844Y0089034D01*
X0114578Y0088300D01*
X0116046Y0088300D01*
X0116780Y0089034D01*
X0119916Y0090502D02*
X0121384Y0090502D01*
X0116780Y0091970D02*
X0116046Y0092704D01*
X0114578Y0092704D01*
X0113844Y0091970D01*
X0112176Y0092704D02*
X0109974Y0092704D01*
X0109240Y0091970D01*
X0109240Y0090502D01*
X0109974Y0089768D01*
X0112176Y0089768D01*
X0112176Y0088300D02*
X0112176Y0092704D01*
X0114095Y0096332D02*
X0112627Y0097800D01*
X0113361Y0097800D01*
X0113361Y0098534D01*
X0112627Y0098534D01*
X0112627Y0097800D01*
X0111025Y0097800D02*
X0111025Y0102204D01*
X0108823Y0102204D01*
X0108089Y0101470D01*
X0108089Y0100002D01*
X0108823Y0099268D01*
X0111025Y0099268D01*
X0109557Y0099268D02*
X0108089Y0097800D01*
X0106421Y0098534D02*
X0105687Y0097800D01*
X0104219Y0097800D01*
X0103486Y0098534D01*
X0103486Y0099268D01*
X0104219Y0100002D01*
X0105687Y0100002D01*
X0106421Y0100736D01*
X0106421Y0101470D01*
X0105687Y0102204D01*
X0104219Y0102204D01*
X0103486Y0101470D01*
X0101817Y0102204D02*
X0098882Y0102204D01*
X0100350Y0102204D02*
X0100350Y0097800D01*
X0097213Y0097800D02*
X0097213Y0098534D01*
X0096480Y0098534D01*
X0096480Y0097800D01*
X0097213Y0097800D01*
X0097213Y0100002D02*
X0097213Y0100736D01*
X0096480Y0100736D01*
X0096480Y0100002D01*
X0097213Y0100002D01*
X0097631Y0105300D02*
X0098364Y0105300D01*
X0098364Y0106034D01*
X0097631Y0106034D01*
X0097631Y0105300D01*
X0096063Y0106034D02*
X0095329Y0105300D01*
X0093861Y0105300D01*
X0093127Y0106034D01*
X0093127Y0107502D01*
X0093861Y0108236D01*
X0094595Y0108236D01*
X0096063Y0107502D01*
X0096063Y0109704D01*
X0093127Y0109704D01*
X0091459Y0107502D02*
X0088523Y0107502D01*
X0086855Y0108236D02*
X0085387Y0109704D01*
X0085387Y0105300D01*
X0086855Y0105300D02*
X0083919Y0105300D01*
X0082251Y0106034D02*
X0082251Y0107502D01*
X0080049Y0107502D01*
X0079315Y0106768D01*
X0079315Y0106034D01*
X0080049Y0105300D01*
X0081517Y0105300D01*
X0082251Y0106034D01*
X0082251Y0107502D02*
X0080783Y0108970D01*
X0079315Y0109704D01*
X0077647Y0109704D02*
X0077647Y0106768D01*
X0076179Y0105300D01*
X0074711Y0106768D01*
X0074711Y0109704D01*
X0073043Y0109704D02*
X0070841Y0109704D01*
X0070107Y0108970D01*
X0070107Y0106034D01*
X0070841Y0105300D01*
X0073043Y0105300D01*
X0073043Y0109704D01*
X0071542Y0112800D02*
X0070074Y0112800D01*
X0069340Y0113534D01*
X0071542Y0112800D02*
X0072276Y0113534D01*
X0072276Y0116470D01*
X0071542Y0117204D01*
X0070074Y0117204D01*
X0069340Y0116470D01*
X0073944Y0116470D02*
X0073944Y0113534D01*
X0074678Y0112800D01*
X0076880Y0112800D01*
X0076880Y0117204D01*
X0074678Y0117204D01*
X0073944Y0116470D01*
X0078548Y0117204D02*
X0078548Y0114268D01*
X0080016Y0112800D01*
X0081483Y0114268D01*
X0081483Y0117204D01*
X0083152Y0117204D02*
X0084619Y0116470D01*
X0086087Y0115002D01*
X0083885Y0115002D01*
X0083152Y0114268D01*
X0083152Y0113534D01*
X0083885Y0112800D01*
X0085353Y0112800D01*
X0086087Y0113534D01*
X0086087Y0115002D01*
X0087755Y0112800D02*
X0090691Y0112800D01*
X0089223Y0112800D02*
X0089223Y0117204D01*
X0090691Y0115736D01*
X0092359Y0115002D02*
X0095295Y0115002D01*
X0096963Y0115002D02*
X0096963Y0113534D01*
X0097697Y0112800D01*
X0099165Y0112800D01*
X0099899Y0113534D01*
X0099899Y0115002D02*
X0098431Y0115736D01*
X0097697Y0115736D01*
X0096963Y0115002D01*
X0096963Y0117204D02*
X0099899Y0117204D01*
X0099899Y0115002D01*
X0101467Y0113534D02*
X0101467Y0112800D01*
X0102201Y0112800D01*
X0102201Y0113534D01*
X0101467Y0113534D01*
X0103869Y0113534D02*
X0103869Y0114268D01*
X0104603Y0115002D01*
X0105337Y0115002D01*
X0104603Y0115002D02*
X0103869Y0115736D01*
X0103869Y0116470D01*
X0104603Y0117204D01*
X0106071Y0117204D01*
X0106805Y0116470D01*
X0106805Y0113534D02*
X0106071Y0112800D01*
X0104603Y0112800D01*
X0103869Y0113534D01*
X0102234Y0109704D02*
X0100767Y0109704D01*
X0100033Y0108970D01*
X0100033Y0108236D01*
X0100767Y0107502D01*
X0100033Y0106768D01*
X0100033Y0106034D01*
X0100767Y0105300D01*
X0102234Y0105300D01*
X0102968Y0106034D01*
X0101501Y0107502D02*
X0100767Y0107502D01*
X0102968Y0108970D02*
X0102234Y0109704D01*
X0109140Y0108236D02*
X0109140Y0107502D01*
X0109874Y0107502D01*
X0109874Y0108236D01*
X0109140Y0108236D01*
X0109140Y0106034D02*
X0109140Y0105300D01*
X0109874Y0105300D01*
X0109874Y0106034D01*
X0109140Y0106034D01*
X0111476Y0105300D02*
X0112210Y0106034D01*
X0112210Y0108970D01*
X0112944Y0108236D02*
X0111476Y0108236D01*
X0114612Y0107502D02*
X0114612Y0105300D01*
X0116814Y0105300D01*
X0117548Y0106034D01*
X0116814Y0106768D01*
X0114612Y0106768D01*
X0114612Y0107502D02*
X0115346Y0108236D01*
X0116814Y0108236D01*
X0119216Y0108236D02*
X0119216Y0108970D01*
X0119950Y0109704D01*
X0122151Y0109704D01*
X0122151Y0105300D01*
X0119950Y0105300D01*
X0119216Y0106034D01*
X0119216Y0106768D01*
X0119950Y0107502D01*
X0122151Y0107502D01*
X0123820Y0106768D02*
X0123820Y0109704D01*
X0126755Y0109704D02*
X0126755Y0106768D01*
X0125287Y0105300D01*
X0123820Y0106768D01*
X0119950Y0107502D02*
X0119216Y0108236D01*
X0121451Y0112800D02*
X0119983Y0114268D01*
X0119983Y0117204D01*
X0118315Y0115002D02*
X0115379Y0115002D01*
X0113711Y0115002D02*
X0113711Y0115736D01*
X0112977Y0115736D01*
X0112977Y0115002D01*
X0113711Y0115002D01*
X0113711Y0113534D02*
X0112977Y0113534D01*
X0112977Y0112800D01*
X0113711Y0112800D01*
X0113711Y0113534D01*
X0116847Y0113534D02*
X0116847Y0116470D01*
X0121451Y0112800D02*
X0122919Y0114268D01*
X0122919Y0117204D01*
X0123302Y0102204D02*
X0121101Y0102204D01*
X0120367Y0101470D01*
X0120367Y0100002D01*
X0121101Y0099268D01*
X0123302Y0099268D01*
X0121834Y0099268D02*
X0120367Y0097800D01*
X0118698Y0097800D02*
X0115763Y0102204D01*
X0118698Y0102204D02*
X0115763Y0097800D01*
X0123302Y0097800D02*
X0123302Y0102204D01*
X0107572Y0091970D02*
X0107572Y0091236D01*
X0106838Y0090502D01*
X0105370Y0090502D01*
X0104636Y0089768D01*
X0104636Y0089034D01*
X0105370Y0088300D01*
X0106838Y0088300D01*
X0107572Y0089034D01*
X0107572Y0089768D01*
X0106838Y0090502D01*
X0105370Y0090502D02*
X0104636Y0091236D01*
X0104636Y0091970D01*
X0105370Y0092704D01*
X0106838Y0092704D01*
X0107572Y0091970D01*
X0102968Y0091970D02*
X0102234Y0092704D01*
X0100767Y0092704D01*
X0100033Y0091970D01*
X0100033Y0091236D01*
X0102968Y0088300D01*
X0100033Y0088300D01*
X0098364Y0089034D02*
X0098364Y0090502D01*
X0096163Y0090502D01*
X0095429Y0089768D01*
X0095429Y0089034D01*
X0096163Y0088300D01*
X0097631Y0088300D01*
X0098364Y0089034D01*
X0098364Y0090502D02*
X0096897Y0091970D01*
X0095429Y0092704D01*
X0093761Y0090502D02*
X0091559Y0090502D01*
X0090825Y0089768D01*
X0090825Y0089034D01*
X0091559Y0088300D01*
X0093027Y0088300D01*
X0093761Y0089034D01*
X0093761Y0090502D01*
X0092293Y0091970D01*
X0090825Y0092704D01*
X0089574Y0097800D02*
X0088106Y0097800D01*
X0087372Y0098534D01*
X0087372Y0100002D01*
X0088106Y0100736D01*
X0088840Y0100736D01*
X0090308Y0100002D01*
X0090308Y0102204D01*
X0087372Y0102204D01*
X0085704Y0102204D02*
X0085704Y0099268D01*
X0084236Y0097800D01*
X0082768Y0099268D01*
X0082768Y0102204D01*
X0076496Y0101470D02*
X0076496Y0098534D01*
X0075762Y0097800D01*
X0074294Y0097800D01*
X0073560Y0098534D01*
X0073560Y0101470D01*
X0074294Y0102204D01*
X0075762Y0102204D01*
X0076496Y0101470D01*
X0071892Y0102204D02*
X0071892Y0097800D01*
X0071892Y0099268D02*
X0068956Y0102204D01*
X0071158Y0100002D02*
X0068956Y0097800D01*
X0071542Y0093438D02*
X0071542Y0092704D01*
X0071542Y0091236D02*
X0071542Y0088300D01*
X0072276Y0088300D02*
X0070808Y0088300D01*
X0071542Y0091236D02*
X0072276Y0091236D01*
X0073944Y0092704D02*
X0076880Y0092704D01*
X0076880Y0088300D01*
X0078481Y0088300D02*
X0079949Y0088300D01*
X0079215Y0088300D02*
X0079215Y0091236D01*
X0079949Y0091236D01*
X0079215Y0092704D02*
X0079215Y0093438D01*
X0081617Y0092704D02*
X0081617Y0088300D01*
X0083085Y0089768D01*
X0084553Y0088300D01*
X0084553Y0092704D01*
X0089574Y0097800D02*
X0090308Y0098534D01*
X0094178Y0085938D02*
X0094178Y0085204D01*
X0094178Y0083736D02*
X0094178Y0080800D01*
X0094912Y0080800D02*
X0093444Y0080800D01*
X0091842Y0081534D02*
X0091842Y0083002D01*
X0091108Y0083736D01*
X0088906Y0083736D01*
X0088906Y0080800D02*
X0091108Y0080800D01*
X0091842Y0081534D01*
X0094178Y0083736D02*
X0094912Y0083736D01*
X0096580Y0083736D02*
X0098782Y0083736D01*
X0099515Y0083002D01*
X0099515Y0081534D01*
X0098782Y0080800D01*
X0096580Y0080800D01*
X0096580Y0080066D02*
X0096580Y0083736D01*
X0096580Y0080066D02*
X0097314Y0079332D01*
X0098048Y0079332D01*
X0101184Y0081534D02*
X0101184Y0083002D01*
X0101918Y0083736D01*
X0103385Y0083736D01*
X0104119Y0083002D01*
X0104119Y0081534D01*
X0103385Y0080800D01*
X0101918Y0080800D01*
X0101184Y0081534D01*
X0105787Y0080800D02*
X0108723Y0080800D01*
X0108723Y0085204D01*
X0113077Y0070204D02*
X0113077Y0065800D01*
X0115279Y0065800D01*
X0116013Y0066534D01*
X0116013Y0068002D01*
X0115279Y0068736D01*
X0113077Y0068736D01*
X0106838Y0063438D02*
X0106838Y0062704D01*
X0082634Y0080800D02*
X0079699Y0080800D01*
X0078030Y0081534D02*
X0078030Y0083002D01*
X0077297Y0083736D01*
X0075829Y0083736D01*
X0075095Y0083002D01*
X0075095Y0082268D01*
X0078030Y0082268D01*
X0078030Y0081534D02*
X0077297Y0080800D01*
X0075829Y0080800D01*
X0073427Y0083736D02*
X0071959Y0080800D01*
X0070491Y0083736D01*
X0068823Y0083002D02*
X0068089Y0083736D01*
X0066621Y0083736D01*
X0065887Y0083002D01*
X0065887Y0082268D01*
X0068823Y0082268D01*
X0068823Y0081534D02*
X0068823Y0083002D01*
X0068823Y0081534D02*
X0068089Y0080800D01*
X0066621Y0080800D01*
X0064219Y0080800D02*
X0062751Y0080800D01*
X0063485Y0080800D02*
X0063485Y0085204D01*
X0064219Y0085204D01*
X0075412Y0090502D02*
X0076880Y0090502D01*
X0082634Y0085204D02*
X0082634Y0080800D01*
X0067705Y0105300D02*
X0066237Y0105300D01*
X0065503Y0106034D01*
X0067705Y0105300D02*
X0068439Y0106034D01*
X0068439Y0108970D01*
X0067705Y0109704D01*
X0066237Y0109704D01*
X0065503Y0108970D01*
D11*
X0094855Y0055337D02*
X0094855Y0054753D01*
X0094855Y0053585D02*
X0094855Y0051250D01*
X0094272Y0051250D02*
X0095439Y0051250D01*
X0096787Y0051250D02*
X0098538Y0051250D01*
X0099122Y0051834D01*
X0098538Y0052418D01*
X0096787Y0052418D01*
X0096787Y0053001D02*
X0096787Y0051250D01*
X0096787Y0053001D02*
X0097371Y0053585D01*
X0098538Y0053585D01*
X0100410Y0053585D02*
X0101578Y0053585D01*
X0100994Y0054169D02*
X0100994Y0051834D01*
X0100410Y0051250D01*
X0102926Y0051250D02*
X0102926Y0053001D01*
X0103509Y0053585D01*
X0105261Y0053585D01*
X0105261Y0051250D01*
X0106609Y0051834D02*
X0106609Y0053001D01*
X0107193Y0053585D01*
X0108360Y0053585D01*
X0108944Y0053001D01*
X0108944Y0051834D01*
X0108360Y0051250D01*
X0107193Y0051250D01*
X0106609Y0051834D01*
X0110292Y0051834D02*
X0110876Y0051250D01*
X0112043Y0051250D01*
X0112627Y0051834D01*
X0112627Y0054169D01*
X0112043Y0054753D01*
X0110876Y0054753D01*
X0110292Y0054169D01*
X0105905Y0048753D02*
X0106489Y0048169D01*
X0105905Y0048753D02*
X0104737Y0048753D01*
X0104153Y0048169D01*
X0104153Y0047585D01*
X0106489Y0045250D01*
X0104153Y0045250D01*
X0102805Y0045250D02*
X0102805Y0047585D01*
X0101638Y0048753D01*
X0100470Y0047585D01*
X0100470Y0045250D01*
X0099122Y0045250D02*
X0097371Y0045250D01*
X0096787Y0045834D01*
X0096787Y0048169D01*
X0097371Y0048753D01*
X0099122Y0048753D01*
X0099122Y0045250D01*
X0100470Y0047001D02*
X0102805Y0047001D01*
X0095439Y0045834D02*
X0094855Y0045250D01*
X0093688Y0045250D01*
X0093104Y0045834D01*
X0093104Y0048753D01*
X0091756Y0048753D02*
X0090588Y0048753D01*
X0091172Y0048753D02*
X0091172Y0045250D01*
X0091756Y0045250D02*
X0090588Y0045250D01*
X0089301Y0045250D02*
X0086965Y0045250D01*
X0085617Y0045834D02*
X0085034Y0045250D01*
X0083866Y0045250D01*
X0083282Y0045834D01*
X0083282Y0046418D01*
X0083866Y0047001D01*
X0085034Y0047001D01*
X0085617Y0047585D01*
X0085617Y0048169D01*
X0085034Y0048753D01*
X0083866Y0048753D01*
X0083282Y0048169D01*
X0081934Y0048753D02*
X0080183Y0048753D01*
X0079599Y0048169D01*
X0079599Y0047001D01*
X0080183Y0046418D01*
X0081934Y0046418D01*
X0081934Y0045250D02*
X0081934Y0048753D01*
X0081934Y0051250D02*
X0081934Y0054753D01*
X0079599Y0054753D01*
X0078251Y0054169D02*
X0078251Y0051834D01*
X0077667Y0051250D01*
X0076500Y0051250D01*
X0075916Y0051834D01*
X0074568Y0051834D02*
X0073984Y0051250D01*
X0072817Y0051250D01*
X0072233Y0051834D01*
X0074568Y0051834D02*
X0074568Y0054169D01*
X0073984Y0054753D01*
X0072817Y0054753D01*
X0072233Y0054169D01*
X0075916Y0054169D02*
X0076500Y0054753D01*
X0077667Y0054753D01*
X0078251Y0054169D01*
X0080767Y0053001D02*
X0081934Y0053001D01*
X0086965Y0053585D02*
X0088717Y0053585D01*
X0089301Y0053001D01*
X0088717Y0052418D01*
X0087549Y0052418D01*
X0086965Y0051834D01*
X0087549Y0051250D01*
X0089301Y0051250D01*
X0090648Y0051250D02*
X0090648Y0053001D01*
X0091232Y0053585D01*
X0092984Y0053585D01*
X0092984Y0051250D01*
X0095439Y0048753D02*
X0095439Y0045834D01*
X0089301Y0045250D02*
X0089301Y0048753D01*
X0086965Y0048753D01*
X0088133Y0047001D02*
X0089301Y0047001D01*
X0094855Y0053585D02*
X0095439Y0053585D01*
X0078251Y0047001D02*
X0075916Y0047001D01*
X0074568Y0047585D02*
X0073400Y0048753D01*
X0073400Y0045250D01*
X0072233Y0045250D02*
X0074568Y0045250D01*
X0070885Y0045250D02*
X0068550Y0047585D01*
X0068550Y0048169D01*
X0069133Y0048753D01*
X0070301Y0048753D01*
X0070885Y0048169D01*
X0070885Y0045250D02*
X0068550Y0045250D01*
X0067202Y0051250D02*
X0066034Y0051250D01*
X0066618Y0051250D02*
X0066618Y0054753D01*
X0067202Y0054753D02*
X0066034Y0054753D01*
X0064746Y0054753D02*
X0062995Y0054753D01*
X0062411Y0054169D01*
X0062411Y0051834D01*
X0062995Y0051250D01*
X0064746Y0051250D01*
X0064746Y0054753D01*
D12*
X0099686Y0024744D03*
X0099686Y0024678D03*
X0099686Y0024546D03*
X0099686Y0024480D03*
X0099686Y0024348D03*
X0099686Y0024282D03*
X0099686Y0024150D03*
X0099686Y0024018D03*
X0099686Y0023952D03*
X0099686Y0023820D03*
X0099686Y0023754D03*
X0099686Y0023622D03*
X0099686Y0023556D03*
X0099686Y0023424D03*
X0099686Y0023292D03*
X0099686Y0023226D03*
X0099686Y0023094D03*
X0099686Y0023028D03*
X0099686Y0022896D03*
X0099686Y0022830D03*
X0099686Y0022698D03*
X0099686Y0022632D03*
X0099686Y0022500D03*
D13*
X0085298Y0022500D03*
X0085298Y0022632D03*
X0085298Y0022698D03*
X0085298Y0022830D03*
X0085298Y0022896D03*
X0085298Y0023028D03*
X0085298Y0023094D03*
X0085298Y0023226D03*
X0085298Y0023292D03*
X0085298Y0023424D03*
X0085298Y0023556D03*
X0085298Y0023622D03*
X0085298Y0023754D03*
X0085298Y0023820D03*
X0085298Y0023952D03*
X0085298Y0024018D03*
X0085298Y0024150D03*
X0085298Y0024282D03*
X0085298Y0024348D03*
X0085298Y0024480D03*
X0085298Y0024546D03*
X0085298Y0024678D03*
X0085298Y0024744D03*
X0080744Y0022500D03*
X0079094Y0022632D03*
X0079094Y0022698D03*
X0079094Y0022830D03*
X0079094Y0022896D03*
X0079094Y0023952D03*
X0079094Y0024018D03*
X0079094Y0024150D03*
X0079094Y0024282D03*
D14*
X0075992Y0024282D03*
X0075992Y0024348D03*
X0075992Y0024480D03*
X0075992Y0024150D03*
X0075992Y0024018D03*
X0075992Y0023952D03*
X0075992Y0023820D03*
X0075992Y0023754D03*
X0075992Y0023622D03*
X0068864Y0023556D03*
X0062726Y0024678D03*
X0083582Y0024546D03*
X0083912Y0022500D03*
X0116186Y0026526D03*
D15*
X0082163Y0024744D03*
X0082163Y0024678D03*
X0082163Y0024546D03*
X0082163Y0024480D03*
X0082163Y0024348D03*
X0082163Y0024282D03*
X0082163Y0024150D03*
X0082163Y0024018D03*
X0082163Y0023952D03*
X0082163Y0023820D03*
X0082163Y0023754D03*
X0082163Y0023622D03*
X0082163Y0023556D03*
X0082163Y0023424D03*
X0082163Y0023292D03*
X0082163Y0023226D03*
X0082163Y0023094D03*
X0082163Y0023028D03*
X0082163Y0022896D03*
X0082163Y0022830D03*
X0082163Y0022698D03*
X0082163Y0022632D03*
X0082163Y0022500D03*
X0079061Y0023028D03*
X0079061Y0023094D03*
X0079061Y0023226D03*
X0079061Y0023292D03*
X0079061Y0023424D03*
X0079061Y0023556D03*
X0079061Y0023622D03*
X0079061Y0023754D03*
X0079061Y0023820D03*
X0073253Y0024744D03*
X0062759Y0024546D03*
X0062759Y0024480D03*
D16*
X0062660Y0024744D03*
X0062858Y0023622D03*
X0062858Y0023556D03*
X0067214Y0023622D03*
X0067214Y0023094D03*
X0067214Y0023028D03*
X0067214Y0024480D03*
X0079160Y0024480D03*
X0079160Y0024546D03*
X0080678Y0024348D03*
X0079160Y0022500D03*
X0116186Y0026592D03*
X0131102Y0028902D03*
X0120014Y0052332D03*
D17*
X0083549Y0024480D03*
X0083945Y0022632D03*
X0077543Y0022500D03*
X0076025Y0022698D03*
X0076025Y0022830D03*
X0076025Y0022896D03*
D18*
X0076025Y0022632D03*
X0076025Y0022500D03*
X0079127Y0024348D03*
X0083615Y0024678D03*
X0083615Y0024744D03*
X0067181Y0024348D03*
X0067181Y0024282D03*
X0067181Y0024150D03*
X0067181Y0024018D03*
X0067181Y0023952D03*
X0067181Y0023820D03*
X0067181Y0023754D03*
X0067181Y0022896D03*
X0067181Y0022830D03*
X0067181Y0022698D03*
X0067181Y0022632D03*
X0067181Y0022500D03*
X0065663Y0022500D03*
X0065663Y0022632D03*
X0065663Y0022698D03*
X0065663Y0022830D03*
X0065663Y0022896D03*
X0065663Y0023028D03*
X0065663Y0023094D03*
X0065663Y0023226D03*
X0065663Y0023292D03*
X0065663Y0023424D03*
X0065663Y0023556D03*
X0065663Y0023622D03*
X0065663Y0023754D03*
X0065663Y0023820D03*
X0065663Y0023952D03*
X0065663Y0024018D03*
X0065663Y0024150D03*
X0065663Y0024282D03*
X0065663Y0024348D03*
X0065663Y0024480D03*
X0065663Y0024546D03*
X0065663Y0024678D03*
X0065663Y0024744D03*
D19*
X0061340Y0024348D03*
X0061340Y0024282D03*
X0061340Y0024150D03*
X0061340Y0022500D03*
X0068798Y0022830D03*
X0068798Y0022896D03*
X0068798Y0023028D03*
X0068798Y0023094D03*
X0068798Y0023622D03*
X0068798Y0024348D03*
X0074474Y0022500D03*
X0075926Y0023424D03*
X0075926Y0024678D03*
D20*
X0072659Y0023292D03*
X0072659Y0023226D03*
X0072659Y0023094D03*
X0072659Y0023028D03*
X0072659Y0022896D03*
X0072659Y0022830D03*
X0072659Y0022698D03*
X0072659Y0022632D03*
X0072659Y0022500D03*
X0070613Y0022500D03*
X0070613Y0022632D03*
X0070613Y0022698D03*
X0070613Y0022830D03*
X0070613Y0022896D03*
X0070613Y0023028D03*
X0070613Y0023094D03*
X0070613Y0023226D03*
X0070613Y0023292D03*
X0070613Y0023424D03*
X0070613Y0023556D03*
X0070613Y0023622D03*
X0070613Y0023754D03*
X0070613Y0023820D03*
X0070613Y0023952D03*
X0070613Y0024018D03*
X0070613Y0024150D03*
X0070613Y0024282D03*
X0070613Y0024348D03*
X0120047Y0052002D03*
X0120047Y0052068D03*
X0122951Y0040452D03*
X0122687Y0040122D03*
D21*
X0077543Y0024744D03*
X0077543Y0024678D03*
X0077543Y0024546D03*
X0077543Y0024480D03*
X0077543Y0024348D03*
X0077543Y0024282D03*
X0077543Y0024150D03*
X0077543Y0024018D03*
X0077543Y0023952D03*
X0077543Y0023820D03*
X0077543Y0023754D03*
X0077543Y0023622D03*
X0077543Y0023556D03*
X0077543Y0023424D03*
X0077543Y0023292D03*
X0077543Y0023226D03*
X0077543Y0023094D03*
X0077543Y0023028D03*
X0077543Y0022896D03*
X0077543Y0022830D03*
X0077543Y0022698D03*
X0077543Y0022632D03*
X0074507Y0022632D03*
X0074507Y0022698D03*
X0074507Y0022830D03*
X0074507Y0022896D03*
X0068765Y0022698D03*
X0068765Y0022632D03*
X0068765Y0022500D03*
X0068765Y0023754D03*
X0068765Y0023820D03*
X0068765Y0023952D03*
X0068765Y0024018D03*
X0068765Y0024150D03*
X0068765Y0024282D03*
X0062825Y0023424D03*
D22*
X0063485Y0023754D03*
X0063485Y0023820D03*
X0063485Y0023952D03*
X0063485Y0024018D03*
X0063485Y0024150D03*
X0063485Y0024282D03*
X0063485Y0024348D03*
X0063485Y0022500D03*
X0120113Y0051474D03*
D23*
X0059195Y0022500D03*
X0059195Y0022632D03*
X0059195Y0022698D03*
X0059195Y0023028D03*
X0059195Y0023094D03*
X0059195Y0023226D03*
X0059195Y0023292D03*
X0059195Y0024150D03*
X0059195Y0024282D03*
X0059195Y0024348D03*
X0076619Y0034776D03*
D24*
X0099686Y0024810D03*
X0099686Y0024612D03*
X0099686Y0024414D03*
X0099686Y0024216D03*
X0099686Y0024084D03*
X0099686Y0023886D03*
X0099686Y0023688D03*
X0099686Y0023490D03*
X0099686Y0023358D03*
X0099686Y0023160D03*
X0099686Y0022962D03*
X0099686Y0022764D03*
X0099686Y0022566D03*
D25*
X0085298Y0022566D03*
X0085298Y0022764D03*
X0085298Y0022962D03*
X0085298Y0023160D03*
X0085298Y0023358D03*
X0085298Y0023490D03*
X0085298Y0023688D03*
X0085298Y0023886D03*
X0085298Y0024084D03*
X0085298Y0024216D03*
X0085298Y0024414D03*
X0085298Y0024612D03*
X0085298Y0024810D03*
X0079094Y0024216D03*
X0079094Y0024084D03*
X0079094Y0022962D03*
X0079094Y0022764D03*
D26*
X0076025Y0022764D03*
X0083945Y0022566D03*
X0131069Y0028836D03*
D27*
X0082163Y0024810D03*
X0082163Y0024612D03*
X0082163Y0024414D03*
X0082163Y0024216D03*
X0082163Y0024084D03*
X0082163Y0023886D03*
X0082163Y0023688D03*
X0082163Y0023490D03*
X0082163Y0023358D03*
X0082163Y0023160D03*
X0082163Y0022962D03*
X0082163Y0022764D03*
X0082163Y0022566D03*
X0079061Y0023160D03*
X0079061Y0023358D03*
X0079061Y0023490D03*
X0079061Y0023688D03*
X0079061Y0023886D03*
X0062759Y0024612D03*
D28*
X0067214Y0023688D03*
X0067214Y0022962D03*
X0080678Y0022566D03*
D29*
X0079127Y0022566D03*
X0079127Y0024414D03*
X0080711Y0024414D03*
X0076025Y0022566D03*
X0073319Y0024810D03*
X0068831Y0023160D03*
X0067181Y0022764D03*
X0067181Y0022566D03*
X0067181Y0023886D03*
X0067181Y0024084D03*
X0067181Y0024216D03*
X0067181Y0024414D03*
X0065663Y0024414D03*
X0065663Y0024612D03*
X0065663Y0024810D03*
X0065663Y0024216D03*
X0065663Y0024084D03*
X0065663Y0023886D03*
X0065663Y0023688D03*
X0065663Y0023490D03*
X0065663Y0023358D03*
X0065663Y0023160D03*
X0065663Y0022962D03*
X0065663Y0022764D03*
X0065663Y0022566D03*
D30*
X0061340Y0024084D03*
X0061340Y0024216D03*
X0061340Y0024414D03*
X0068798Y0024414D03*
X0068798Y0023688D03*
X0068798Y0022962D03*
X0074474Y0022566D03*
X0074474Y0024084D03*
X0075926Y0023490D03*
X0077576Y0022566D03*
X0083648Y0024810D03*
D31*
X0072659Y0023160D03*
X0072659Y0022962D03*
X0072659Y0022764D03*
X0072659Y0022566D03*
X0070613Y0022566D03*
X0070613Y0022764D03*
X0070613Y0022962D03*
X0070613Y0023160D03*
X0070613Y0023358D03*
X0070613Y0023490D03*
X0070613Y0023688D03*
X0070613Y0023886D03*
X0070613Y0024084D03*
X0070613Y0024216D03*
X0070613Y0024414D03*
X0122423Y0036690D03*
D32*
X0122291Y0037284D03*
X0079193Y0024612D03*
X0077543Y0024612D03*
X0077543Y0024414D03*
X0077543Y0024216D03*
X0077543Y0024084D03*
X0077543Y0023886D03*
X0077543Y0023688D03*
X0077543Y0023490D03*
X0077543Y0023358D03*
X0077543Y0023160D03*
X0077543Y0022962D03*
X0077543Y0022764D03*
X0077543Y0024810D03*
X0074507Y0022764D03*
X0068765Y0022764D03*
X0068765Y0022566D03*
X0068765Y0023886D03*
X0068765Y0024084D03*
X0068765Y0024216D03*
X0062825Y0023490D03*
X0061373Y0022566D03*
D33*
X0063485Y0022566D03*
X0063485Y0023886D03*
X0063485Y0024084D03*
X0063485Y0024216D03*
D34*
X0059195Y0024216D03*
X0059195Y0024084D03*
X0059195Y0024414D03*
X0059195Y0023358D03*
X0059195Y0023160D03*
X0059195Y0022764D03*
X0059195Y0022566D03*
X0092525Y0026460D03*
X0110543Y0026460D03*
D35*
X0080645Y0024282D03*
X0080645Y0024150D03*
X0080645Y0024018D03*
X0080645Y0023952D03*
X0080645Y0023820D03*
X0080645Y0023028D03*
X0080645Y0022896D03*
X0080645Y0022830D03*
X0080645Y0022698D03*
X0080645Y0022632D03*
X0067247Y0023226D03*
X0067247Y0023556D03*
X0067247Y0024546D03*
D36*
X0063518Y0022896D03*
X0063518Y0022830D03*
X0063518Y0022698D03*
X0063518Y0022632D03*
D37*
X0061340Y0022632D03*
X0061340Y0022698D03*
X0061340Y0022830D03*
X0061340Y0022896D03*
X0067280Y0023292D03*
X0067280Y0024678D03*
X0080612Y0023754D03*
X0080612Y0023622D03*
X0080612Y0023556D03*
X0080612Y0023424D03*
X0080612Y0023292D03*
X0080612Y0023226D03*
X0080612Y0023094D03*
X0122324Y0037152D03*
X0122324Y0037218D03*
D38*
X0083978Y0022698D03*
X0083516Y0024282D03*
X0083516Y0024348D03*
X0073220Y0024678D03*
D39*
X0083516Y0024414D03*
X0083978Y0022764D03*
D40*
X0083087Y0022764D03*
D41*
X0080645Y0022764D03*
X0080645Y0022962D03*
X0080645Y0023886D03*
X0080645Y0024084D03*
X0080645Y0024216D03*
X0067247Y0024612D03*
X0067247Y0023160D03*
D42*
X0063518Y0022764D03*
X0120146Y0051540D03*
X0123446Y0040914D03*
D43*
X0122324Y0037086D03*
X0120014Y0052266D03*
X0080612Y0023688D03*
X0080612Y0023490D03*
X0080612Y0023358D03*
X0080612Y0023160D03*
X0067280Y0023490D03*
X0062594Y0024810D03*
X0061340Y0022764D03*
D44*
X0084011Y0022830D03*
X0084011Y0022896D03*
D45*
X0083120Y0022896D03*
X0083120Y0022830D03*
D46*
X0059162Y0022830D03*
X0059162Y0022896D03*
X0115460Y0043422D03*
D47*
X0084044Y0022962D03*
D48*
X0083153Y0022962D03*
X0084341Y0024084D03*
X0084341Y0024216D03*
D49*
X0075200Y0023160D03*
X0075200Y0022962D03*
X0106418Y0028638D03*
X0123050Y0043488D03*
D50*
X0117704Y0034512D03*
X0117176Y0028308D03*
X0110510Y0026790D03*
X0083912Y0037614D03*
X0062660Y0022962D03*
D51*
X0059162Y0022962D03*
X0122588Y0036162D03*
D52*
X0084044Y0023028D03*
D53*
X0083186Y0023028D03*
X0083186Y0023094D03*
X0084308Y0023952D03*
X0084308Y0024018D03*
D54*
X0075200Y0023094D03*
X0075200Y0023028D03*
X0106418Y0033126D03*
X0106418Y0033192D03*
X0116516Y0027318D03*
X0118694Y0036426D03*
D55*
X0126086Y0037680D03*
X0101402Y0026856D03*
X0062660Y0023028D03*
D56*
X0083417Y0023952D03*
X0083417Y0024018D03*
X0084077Y0023094D03*
D57*
X0062693Y0023094D03*
X0110543Y0026724D03*
X0117143Y0028242D03*
X0117671Y0034578D03*
X0117671Y0034644D03*
X0130145Y0029628D03*
X0120443Y0049956D03*
D58*
X0120047Y0052464D03*
X0084077Y0023160D03*
D59*
X0083186Y0023160D03*
D60*
X0062693Y0023160D03*
X0125723Y0037812D03*
D61*
X0084110Y0023226D03*
X0083384Y0023820D03*
D62*
X0083219Y0023226D03*
X0084275Y0023820D03*
D63*
X0088400Y0026526D03*
X0088400Y0026592D03*
X0088400Y0026724D03*
X0088400Y0026856D03*
X0088400Y0026922D03*
X0088400Y0027054D03*
X0088400Y0027120D03*
X0088400Y0027252D03*
X0088400Y0027318D03*
X0088400Y0028704D03*
X0088400Y0028770D03*
X0088400Y0028902D03*
X0088400Y0028968D03*
X0088400Y0029100D03*
X0088400Y0029232D03*
X0088400Y0029298D03*
X0088400Y0029430D03*
X0088400Y0029496D03*
X0088400Y0029628D03*
X0088400Y0029694D03*
X0088400Y0029826D03*
X0088400Y0029892D03*
X0088400Y0030024D03*
X0088400Y0031476D03*
X0088400Y0031542D03*
X0088400Y0031674D03*
X0088400Y0031806D03*
X0088400Y0031872D03*
X0088400Y0032004D03*
X0088400Y0032070D03*
X0088400Y0032202D03*
X0088400Y0032268D03*
X0088400Y0032400D03*
X0088400Y0032532D03*
X0088400Y0032598D03*
X0088400Y0032730D03*
X0088400Y0032796D03*
X0088400Y0032928D03*
X0088400Y0032994D03*
X0093482Y0033324D03*
X0093812Y0029892D03*
X0093878Y0029826D03*
X0093878Y0028506D03*
X0102986Y0029232D03*
X0102986Y0029298D03*
X0102986Y0029430D03*
X0102986Y0029496D03*
X0102986Y0029628D03*
X0102986Y0029694D03*
X0102986Y0029826D03*
X0102986Y0029892D03*
X0102986Y0030024D03*
X0102986Y0030156D03*
X0102986Y0030222D03*
X0102986Y0030354D03*
X0102986Y0030420D03*
X0102986Y0030552D03*
X0102986Y0030618D03*
X0102986Y0030750D03*
X0102986Y0030882D03*
X0102986Y0030948D03*
X0102986Y0031080D03*
X0102986Y0031146D03*
X0102986Y0031278D03*
X0102986Y0031344D03*
X0102986Y0031476D03*
X0102986Y0031542D03*
X0102986Y0031674D03*
X0102986Y0031806D03*
X0102986Y0031872D03*
X0102986Y0032004D03*
X0102986Y0032070D03*
X0102986Y0032202D03*
X0102986Y0032268D03*
X0102986Y0032400D03*
X0102986Y0032532D03*
X0102986Y0032598D03*
X0106352Y0032598D03*
X0106352Y0032532D03*
X0106352Y0032400D03*
X0106352Y0032268D03*
X0106352Y0032202D03*
X0106352Y0032070D03*
X0106352Y0032004D03*
X0106352Y0031872D03*
X0106352Y0031806D03*
X0106352Y0031674D03*
X0106352Y0031542D03*
X0106352Y0031476D03*
X0106352Y0032730D03*
X0106352Y0032796D03*
X0106352Y0030024D03*
X0106352Y0029892D03*
X0106352Y0029826D03*
X0106352Y0029694D03*
X0106352Y0029628D03*
X0106352Y0029496D03*
X0106352Y0029430D03*
X0106352Y0029298D03*
X0106352Y0029232D03*
X0106352Y0029100D03*
X0106352Y0028968D03*
X0106352Y0028902D03*
X0106352Y0028770D03*
X0106352Y0028704D03*
X0106352Y0027318D03*
X0106352Y0027252D03*
X0106352Y0027120D03*
X0106352Y0027054D03*
X0106352Y0026922D03*
X0106352Y0026856D03*
X0106352Y0026724D03*
X0106352Y0026592D03*
X0106352Y0026526D03*
X0111830Y0029892D03*
X0111566Y0033126D03*
X0116450Y0027252D03*
X0119552Y0042630D03*
X0075266Y0023226D03*
X0073088Y0023622D03*
X0073352Y0029232D03*
X0073352Y0029298D03*
X0073352Y0029430D03*
X0073352Y0029496D03*
X0073352Y0029628D03*
X0073352Y0029694D03*
X0073352Y0029826D03*
X0073352Y0029892D03*
X0073352Y0030024D03*
X0073352Y0030156D03*
X0073352Y0030222D03*
X0073352Y0030354D03*
X0073352Y0030420D03*
X0073352Y0030552D03*
X0073352Y0030618D03*
X0073352Y0030750D03*
X0073352Y0030882D03*
X0073352Y0030948D03*
X0073352Y0031080D03*
X0073352Y0031146D03*
X0073352Y0031278D03*
X0073352Y0031344D03*
X0073352Y0031476D03*
X0073352Y0031542D03*
X0073352Y0031674D03*
X0073352Y0031806D03*
X0073352Y0031872D03*
X0073352Y0032004D03*
X0073352Y0032070D03*
X0073352Y0032202D03*
X0073352Y0032268D03*
X0073352Y0032400D03*
X0073352Y0032532D03*
X0073352Y0032598D03*
X0073352Y0032730D03*
X0073352Y0032796D03*
X0073352Y0032928D03*
X0073352Y0032994D03*
X0073352Y0033126D03*
X0073352Y0033192D03*
X0073352Y0033324D03*
X0073352Y0033456D03*
X0073352Y0033522D03*
X0073352Y0033654D03*
X0073352Y0033720D03*
X0073352Y0033852D03*
X0073352Y0033918D03*
X0073352Y0034050D03*
X0073352Y0034182D03*
X0073352Y0034248D03*
X0073352Y0034380D03*
X0073352Y0034446D03*
X0073352Y0034578D03*
X0073352Y0034644D03*
X0073352Y0034776D03*
X0073352Y0034842D03*
X0073352Y0034974D03*
X0073352Y0035106D03*
X0073352Y0035172D03*
X0073352Y0035304D03*
X0064508Y0035304D03*
X0064508Y0035172D03*
X0064508Y0035106D03*
X0064508Y0034974D03*
X0064508Y0034842D03*
X0064508Y0034776D03*
X0064508Y0034644D03*
X0064508Y0034578D03*
X0064508Y0034446D03*
X0064508Y0034380D03*
X0064508Y0034248D03*
X0064508Y0034182D03*
X0064508Y0034050D03*
X0064508Y0033918D03*
X0064508Y0033852D03*
X0064508Y0033720D03*
X0064508Y0033654D03*
X0064508Y0033522D03*
X0064508Y0033456D03*
X0064508Y0033324D03*
X0064508Y0033192D03*
X0064508Y0033126D03*
X0064508Y0032994D03*
X0064508Y0032928D03*
X0064508Y0032796D03*
X0064508Y0032730D03*
X0064508Y0032598D03*
X0064508Y0032532D03*
X0064508Y0032400D03*
X0064508Y0032268D03*
X0064508Y0032202D03*
X0064508Y0032070D03*
X0064508Y0032004D03*
X0064508Y0031872D03*
X0064508Y0031806D03*
X0064508Y0031674D03*
X0064508Y0031542D03*
X0064508Y0031476D03*
X0064508Y0031344D03*
X0064508Y0031278D03*
X0064508Y0031146D03*
X0064508Y0031080D03*
X0064508Y0030948D03*
X0064508Y0030882D03*
X0064508Y0030750D03*
X0064508Y0030618D03*
X0064508Y0030552D03*
X0064508Y0030420D03*
X0064508Y0030354D03*
X0064508Y0030222D03*
X0064508Y0030156D03*
X0064508Y0030024D03*
X0064508Y0029892D03*
X0064508Y0029826D03*
X0064508Y0029694D03*
X0064508Y0029628D03*
X0064508Y0029496D03*
X0064508Y0029430D03*
X0064508Y0029298D03*
X0064508Y0029232D03*
X0064508Y0029100D03*
X0064508Y0028968D03*
X0064508Y0028902D03*
X0064508Y0028770D03*
X0064508Y0028704D03*
X0064508Y0028572D03*
X0064508Y0028506D03*
X0064508Y0028374D03*
X0064508Y0028242D03*
X0064508Y0028176D03*
X0064508Y0028044D03*
X0064508Y0027978D03*
X0064508Y0027846D03*
X0064508Y0027780D03*
X0064508Y0027648D03*
X0064508Y0027582D03*
X0064508Y0027450D03*
X0064508Y0027318D03*
X0064508Y0027252D03*
X0064508Y0027120D03*
X0064508Y0027054D03*
X0064508Y0026922D03*
X0064508Y0026856D03*
X0064508Y0026724D03*
X0064508Y0026592D03*
X0064508Y0026526D03*
X0064508Y0036624D03*
X0064508Y0036756D03*
X0064508Y0036822D03*
X0064508Y0036954D03*
X0064508Y0037020D03*
X0064508Y0037152D03*
X0064508Y0037218D03*
X0064508Y0037350D03*
X0064508Y0037482D03*
X0064508Y0037548D03*
X0064508Y0037680D03*
X0064508Y0037746D03*
X0064508Y0037878D03*
X0064508Y0037944D03*
X0064508Y0038076D03*
X0064508Y0038142D03*
X0064508Y0038274D03*
D64*
X0062759Y0023226D03*
X0106979Y0028242D03*
X0117077Y0028176D03*
D65*
X0084143Y0023292D03*
D66*
X0084242Y0023754D03*
X0083252Y0023292D03*
D67*
X0075464Y0023292D03*
D68*
X0062957Y0023292D03*
X0116879Y0027846D03*
X0117935Y0035502D03*
D69*
X0084143Y0023358D03*
D70*
X0084242Y0023688D03*
X0083252Y0023358D03*
D71*
X0075827Y0023358D03*
X0116219Y0026658D03*
D72*
X0116252Y0026790D03*
X0079424Y0024810D03*
X0072692Y0024414D03*
X0072692Y0024216D03*
X0072692Y0024084D03*
X0072692Y0023358D03*
D73*
X0067412Y0023358D03*
X0076256Y0035238D03*
D74*
X0075794Y0024810D03*
X0062726Y0023358D03*
X0122192Y0037614D03*
X0122390Y0036888D03*
D75*
X0084176Y0023424D03*
X0083318Y0023622D03*
D76*
X0083285Y0023556D03*
X0083285Y0023424D03*
X0084209Y0023556D03*
X0084209Y0023622D03*
X0131135Y0028770D03*
D77*
X0123050Y0040518D03*
X0072692Y0024348D03*
X0072692Y0024282D03*
X0072692Y0024150D03*
X0072692Y0023424D03*
D78*
X0067346Y0023424D03*
D79*
X0059228Y0023424D03*
X0059228Y0024480D03*
X0059228Y0024546D03*
X0093944Y0028770D03*
X0093944Y0028902D03*
X0093944Y0028968D03*
X0093944Y0029100D03*
X0093944Y0029232D03*
X0093944Y0029298D03*
X0093944Y0029430D03*
X0093944Y0029496D03*
X0093614Y0032532D03*
X0093614Y0032598D03*
X0093614Y0032730D03*
X0093614Y0032796D03*
X0093548Y0033192D03*
X0111632Y0032796D03*
X0111632Y0032730D03*
X0111632Y0032598D03*
X0111632Y0032532D03*
X0111896Y0029694D03*
X0111896Y0029628D03*
X0111896Y0029496D03*
X0111896Y0029430D03*
X0116384Y0027120D03*
X0122588Y0036030D03*
X0122588Y0036096D03*
X0123512Y0040980D03*
X0119618Y0042498D03*
D80*
X0084176Y0023490D03*
D81*
X0083285Y0023490D03*
D82*
X0072725Y0023490D03*
D83*
X0059261Y0023490D03*
X0059261Y0024612D03*
X0093911Y0028638D03*
X0093911Y0029562D03*
X0097277Y0029562D03*
X0097277Y0029364D03*
X0097277Y0029166D03*
X0097277Y0029034D03*
X0097277Y0028836D03*
X0097277Y0029760D03*
X0097277Y0029958D03*
X0097277Y0030090D03*
X0097277Y0030288D03*
X0097277Y0030486D03*
X0097277Y0030684D03*
X0097277Y0030816D03*
X0097277Y0031014D03*
X0097277Y0031212D03*
X0097277Y0031410D03*
X0097277Y0031608D03*
X0097277Y0031740D03*
X0097277Y0031938D03*
X0097277Y0032136D03*
X0097277Y0032334D03*
X0097277Y0032466D03*
X0097277Y0032664D03*
X0097277Y0032862D03*
X0097277Y0034512D03*
X0097277Y0034710D03*
X0097277Y0034908D03*
X0097277Y0035040D03*
X0097277Y0035238D03*
X0097277Y0035436D03*
X0097277Y0035634D03*
X0097277Y0035766D03*
X0097277Y0035964D03*
X0097277Y0036162D03*
X0097277Y0036360D03*
X0097277Y0036558D03*
X0097277Y0036690D03*
X0097277Y0036888D03*
X0097277Y0037086D03*
X0097277Y0037284D03*
X0097277Y0037416D03*
X0097277Y0037614D03*
X0097277Y0037812D03*
X0097277Y0038010D03*
X0097277Y0038208D03*
X0097277Y0038340D03*
X0093515Y0033258D03*
X0093581Y0033060D03*
X0097277Y0027516D03*
X0097277Y0027384D03*
X0097277Y0027186D03*
X0097277Y0026988D03*
X0097277Y0026790D03*
X0097277Y0026658D03*
X0097277Y0026460D03*
X0111929Y0028638D03*
X0111929Y0028836D03*
X0111929Y0029034D03*
X0111929Y0029166D03*
X0111929Y0029364D03*
X0111863Y0029760D03*
X0111533Y0033258D03*
D84*
X0075959Y0024546D03*
X0075959Y0023556D03*
X0074507Y0024150D03*
X0074507Y0024282D03*
X0074507Y0024348D03*
D85*
X0072791Y0023556D03*
X0076421Y0035106D03*
X0120047Y0051870D03*
X0123149Y0040650D03*
X0122489Y0036426D03*
D86*
X0118727Y0036492D03*
X0123611Y0041046D03*
X0119519Y0042696D03*
X0120179Y0051276D03*
X0111467Y0033324D03*
X0111863Y0028374D03*
X0106385Y0032928D03*
X0106385Y0032994D03*
X0102887Y0032994D03*
X0102887Y0032928D03*
X0102887Y0028968D03*
X0102887Y0028902D03*
X0097343Y0028770D03*
X0093845Y0028374D03*
X0084935Y0036228D03*
X0084935Y0036294D03*
X0079787Y0032532D03*
X0073319Y0029100D03*
X0073319Y0028968D03*
X0073319Y0028902D03*
X0067907Y0028770D03*
X0061109Y0028770D03*
X0061109Y0028704D03*
X0059327Y0024744D03*
X0059327Y0023556D03*
X0130673Y0029232D03*
D87*
X0121598Y0039726D03*
X0118166Y0035898D03*
X0118166Y0035832D03*
X0115724Y0036426D03*
X0110048Y0031542D03*
X0102524Y0033324D03*
X0079490Y0032730D03*
X0068204Y0028572D03*
X0059624Y0023622D03*
D88*
X0083351Y0023688D03*
D89*
X0083582Y0024612D03*
X0075992Y0024414D03*
X0075992Y0024216D03*
X0075992Y0024084D03*
X0075992Y0023886D03*
X0075992Y0023688D03*
D90*
X0073286Y0023688D03*
X0093614Y0030090D03*
X0111632Y0030090D03*
X0116648Y0027516D03*
X0118430Y0036162D03*
D91*
X0111632Y0032862D03*
X0111632Y0032664D03*
X0111896Y0029562D03*
X0116384Y0027186D03*
X0130772Y0029166D03*
X0120146Y0051408D03*
X0093614Y0032862D03*
X0093614Y0032664D03*
X0093944Y0029364D03*
X0093944Y0029166D03*
X0093944Y0029034D03*
X0093944Y0028836D03*
X0076652Y0034710D03*
X0063452Y0024414D03*
X0063452Y0023688D03*
D92*
X0059855Y0023688D03*
X0092525Y0026658D03*
X0110543Y0026658D03*
X0117737Y0034908D03*
X0117737Y0035040D03*
D93*
X0083351Y0023754D03*
D94*
X0092525Y0026592D03*
X0101303Y0035172D03*
X0106715Y0028374D03*
X0110543Y0026592D03*
X0116813Y0027780D03*
X0119321Y0043422D03*
X0073451Y0024018D03*
X0073451Y0023952D03*
X0073451Y0023820D03*
X0073451Y0023754D03*
D95*
X0059954Y0023754D03*
X0059954Y0026724D03*
X0083846Y0037746D03*
X0121400Y0039924D03*
X0120410Y0050022D03*
D96*
X0125657Y0037878D03*
X0122951Y0035304D03*
X0101303Y0034974D03*
X0092525Y0026724D03*
X0083879Y0037680D03*
X0059987Y0024018D03*
X0059987Y0023952D03*
X0059987Y0023820D03*
D97*
X0084275Y0023886D03*
D98*
X0083384Y0023886D03*
D99*
X0073451Y0023886D03*
D100*
X0059987Y0023886D03*
D101*
X0070184Y0024612D03*
X0070184Y0024810D03*
X0083450Y0024084D03*
X0116186Y0026460D03*
D102*
X0116219Y0026394D03*
X0084341Y0024150D03*
D103*
X0083450Y0024150D03*
X0073154Y0024480D03*
X0073154Y0024546D03*
X0070184Y0024546D03*
X0070184Y0024480D03*
X0070184Y0024678D03*
X0070184Y0024744D03*
X0060350Y0026394D03*
D104*
X0073187Y0024612D03*
X0083483Y0024216D03*
D105*
X0075959Y0024612D03*
X0074507Y0024414D03*
X0074507Y0024216D03*
X0115757Y0036162D03*
D106*
X0122357Y0037020D03*
X0079259Y0024678D03*
X0067313Y0024744D03*
D107*
X0059261Y0024678D03*
X0076685Y0034644D03*
X0093581Y0033126D03*
X0093581Y0032994D03*
X0093581Y0032928D03*
X0097277Y0032928D03*
X0097277Y0032994D03*
X0097277Y0032796D03*
X0097277Y0032730D03*
X0097277Y0032598D03*
X0097277Y0032532D03*
X0097277Y0032400D03*
X0097277Y0032268D03*
X0097277Y0032202D03*
X0097277Y0032070D03*
X0097277Y0032004D03*
X0097277Y0031872D03*
X0097277Y0031806D03*
X0097277Y0031674D03*
X0097277Y0031542D03*
X0097277Y0031476D03*
X0097277Y0031344D03*
X0097277Y0031278D03*
X0097277Y0031146D03*
X0097277Y0031080D03*
X0097277Y0030948D03*
X0097277Y0030882D03*
X0097277Y0030750D03*
X0097277Y0030618D03*
X0097277Y0030552D03*
X0097277Y0030420D03*
X0097277Y0030354D03*
X0097277Y0030222D03*
X0097277Y0030156D03*
X0097277Y0030024D03*
X0097277Y0029892D03*
X0097277Y0029826D03*
X0097277Y0029694D03*
X0097277Y0029628D03*
X0097277Y0029496D03*
X0097277Y0029430D03*
X0097277Y0029298D03*
X0097277Y0029232D03*
X0097277Y0029100D03*
X0097277Y0028968D03*
X0097277Y0028902D03*
X0097277Y0027450D03*
X0097277Y0027318D03*
X0097277Y0027252D03*
X0097277Y0027120D03*
X0097277Y0027054D03*
X0097277Y0026922D03*
X0097277Y0026856D03*
X0097277Y0026724D03*
X0097277Y0026592D03*
X0097277Y0026526D03*
X0093911Y0028572D03*
X0093911Y0028704D03*
X0093911Y0029628D03*
X0093911Y0029694D03*
X0097277Y0034446D03*
X0097277Y0034578D03*
X0097277Y0034644D03*
X0097277Y0034776D03*
X0097277Y0034842D03*
X0097277Y0034974D03*
X0097277Y0035106D03*
X0097277Y0035172D03*
X0097277Y0035304D03*
X0097277Y0035370D03*
X0097277Y0035502D03*
X0097277Y0035568D03*
X0097277Y0035700D03*
X0097277Y0035832D03*
X0097277Y0035898D03*
X0097277Y0036030D03*
X0097277Y0036096D03*
X0097277Y0036228D03*
X0097277Y0036294D03*
X0097277Y0036426D03*
X0097277Y0036492D03*
X0097277Y0036624D03*
X0097277Y0036756D03*
X0097277Y0036822D03*
X0097277Y0036954D03*
X0097277Y0037020D03*
X0097277Y0037152D03*
X0097277Y0037218D03*
X0097277Y0037350D03*
X0097277Y0037482D03*
X0097277Y0037548D03*
X0097277Y0037680D03*
X0097277Y0037746D03*
X0097277Y0037878D03*
X0097277Y0037944D03*
X0097277Y0038076D03*
X0097277Y0038142D03*
X0097277Y0038274D03*
X0111533Y0033192D03*
X0111863Y0029826D03*
X0111929Y0029298D03*
X0111929Y0029232D03*
X0111929Y0029100D03*
X0111929Y0028968D03*
X0111929Y0028902D03*
X0111929Y0028770D03*
X0111929Y0028704D03*
X0111929Y0028572D03*
D108*
X0131003Y0028968D03*
X0079325Y0024744D03*
X0076223Y0035304D03*
D109*
X0075860Y0024744D03*
X0122258Y0037350D03*
X0122258Y0037482D03*
D110*
X0120047Y0052134D03*
X0067379Y0024810D03*
D111*
X0059393Y0024810D03*
X0118595Y0036360D03*
D112*
X0085595Y0025206D03*
X0085595Y0025074D03*
X0085595Y0024942D03*
X0085595Y0024876D03*
D113*
X0085595Y0025008D03*
X0085595Y0025140D03*
D114*
X0088400Y0026460D03*
X0088400Y0026658D03*
X0088400Y0026790D03*
X0088400Y0026988D03*
X0088400Y0027186D03*
X0088400Y0027384D03*
X0088400Y0028836D03*
X0088400Y0029034D03*
X0088400Y0029166D03*
X0088400Y0029364D03*
X0088400Y0029562D03*
X0088400Y0029760D03*
X0088400Y0029958D03*
X0088400Y0030090D03*
X0088400Y0031608D03*
X0088400Y0031740D03*
X0088400Y0031938D03*
X0088400Y0032136D03*
X0088400Y0032334D03*
X0088400Y0032466D03*
X0088400Y0032664D03*
X0088400Y0032862D03*
X0088400Y0033060D03*
X0093878Y0029760D03*
X0093878Y0028440D03*
X0102986Y0029166D03*
X0102986Y0029364D03*
X0102986Y0029562D03*
X0102986Y0029760D03*
X0102986Y0029958D03*
X0102986Y0030090D03*
X0102986Y0030288D03*
X0102986Y0030486D03*
X0102986Y0030684D03*
X0102986Y0030816D03*
X0102986Y0031014D03*
X0102986Y0031212D03*
X0102986Y0031410D03*
X0102986Y0031608D03*
X0102986Y0031740D03*
X0102986Y0031938D03*
X0102986Y0032136D03*
X0102986Y0032334D03*
X0102986Y0032466D03*
X0106352Y0032466D03*
X0106352Y0032334D03*
X0106352Y0032136D03*
X0106352Y0031938D03*
X0106352Y0031740D03*
X0106352Y0031608D03*
X0106352Y0032664D03*
X0106352Y0030090D03*
X0106352Y0029958D03*
X0106352Y0029760D03*
X0106352Y0029562D03*
X0106352Y0029364D03*
X0106352Y0029166D03*
X0106352Y0029034D03*
X0106352Y0028836D03*
X0106352Y0027384D03*
X0106352Y0027186D03*
X0106352Y0026988D03*
X0106352Y0026790D03*
X0106352Y0026658D03*
X0106352Y0026460D03*
X0122654Y0035964D03*
X0083186Y0038340D03*
X0073352Y0035238D03*
X0073352Y0035040D03*
X0073352Y0034908D03*
X0073352Y0034710D03*
X0073352Y0034512D03*
X0073352Y0034314D03*
X0073352Y0034116D03*
X0073352Y0033984D03*
X0073352Y0033786D03*
X0073352Y0033588D03*
X0073352Y0033390D03*
X0073352Y0033258D03*
X0073352Y0033060D03*
X0073352Y0032862D03*
X0073352Y0032664D03*
X0073352Y0032466D03*
X0073352Y0032334D03*
X0073352Y0032136D03*
X0073352Y0031938D03*
X0073352Y0031740D03*
X0073352Y0031608D03*
X0073352Y0031410D03*
X0073352Y0031212D03*
X0073352Y0031014D03*
X0073352Y0030816D03*
X0073352Y0030684D03*
X0073352Y0030486D03*
X0073352Y0030288D03*
X0073352Y0030090D03*
X0073352Y0029958D03*
X0073352Y0029760D03*
X0073352Y0029562D03*
X0073352Y0029364D03*
X0073352Y0029166D03*
X0064508Y0029166D03*
X0064508Y0029034D03*
X0064508Y0028836D03*
X0064508Y0028638D03*
X0064508Y0028440D03*
X0064508Y0028308D03*
X0064508Y0028110D03*
X0064508Y0027912D03*
X0064508Y0027714D03*
X0064508Y0027516D03*
X0064508Y0027384D03*
X0064508Y0027186D03*
X0064508Y0026988D03*
X0064508Y0026790D03*
X0064508Y0026658D03*
X0064508Y0026460D03*
X0064508Y0029364D03*
X0064508Y0029562D03*
X0064508Y0029760D03*
X0064508Y0029958D03*
X0064508Y0030090D03*
X0064508Y0030288D03*
X0064508Y0030486D03*
X0064508Y0030684D03*
X0064508Y0030816D03*
X0064508Y0031014D03*
X0064508Y0031212D03*
X0064508Y0031410D03*
X0064508Y0031608D03*
X0064508Y0031740D03*
X0064508Y0031938D03*
X0064508Y0032136D03*
X0064508Y0032334D03*
X0064508Y0032466D03*
X0064508Y0032664D03*
X0064508Y0032862D03*
X0064508Y0033060D03*
X0064508Y0033258D03*
X0064508Y0033390D03*
X0064508Y0033588D03*
X0064508Y0033786D03*
X0064508Y0033984D03*
X0064508Y0034116D03*
X0064508Y0034314D03*
X0064508Y0034512D03*
X0064508Y0034710D03*
X0064508Y0034908D03*
X0064508Y0035040D03*
X0064508Y0035238D03*
X0064508Y0036558D03*
X0064508Y0036690D03*
X0064508Y0036888D03*
X0064508Y0037086D03*
X0064508Y0037284D03*
X0064508Y0037416D03*
X0064508Y0037614D03*
X0064508Y0037812D03*
X0064508Y0038010D03*
X0064508Y0038208D03*
X0064508Y0038340D03*
D115*
X0101303Y0026460D03*
D116*
X0102920Y0029034D03*
X0102920Y0032664D03*
X0111896Y0028440D03*
X0092096Y0031608D03*
X0084968Y0031608D03*
X0084968Y0031740D03*
X0084968Y0031938D03*
X0084968Y0032136D03*
X0084968Y0032334D03*
X0084968Y0032466D03*
X0084968Y0032664D03*
X0084968Y0032862D03*
X0084968Y0033060D03*
X0084968Y0033258D03*
X0084968Y0031410D03*
X0084968Y0031212D03*
X0084968Y0031014D03*
X0084968Y0030816D03*
X0084968Y0030684D03*
X0084968Y0030486D03*
X0084968Y0030288D03*
X0084968Y0030090D03*
X0084968Y0029958D03*
X0084968Y0029760D03*
X0084968Y0029562D03*
X0084968Y0029364D03*
X0084968Y0029166D03*
X0084968Y0029034D03*
X0084968Y0028836D03*
X0084968Y0028638D03*
X0084968Y0028440D03*
X0084968Y0028308D03*
X0084968Y0028110D03*
X0084968Y0027912D03*
X0084968Y0027714D03*
X0084968Y0027516D03*
X0084968Y0027384D03*
X0084968Y0027186D03*
X0084968Y0026988D03*
X0084968Y0026790D03*
X0084968Y0026658D03*
X0084968Y0026460D03*
X0079820Y0026460D03*
X0079820Y0026658D03*
X0079820Y0026790D03*
X0079820Y0026988D03*
X0079820Y0027186D03*
X0079820Y0027384D03*
X0079820Y0027516D03*
X0079820Y0027714D03*
X0079820Y0027912D03*
X0079820Y0028110D03*
X0079820Y0028308D03*
X0079820Y0028440D03*
X0079820Y0028638D03*
X0079820Y0028836D03*
X0079820Y0029034D03*
X0079820Y0029166D03*
X0079820Y0029364D03*
X0079820Y0029562D03*
X0079820Y0029760D03*
X0079820Y0029958D03*
X0079820Y0030090D03*
X0079820Y0030288D03*
X0079820Y0030486D03*
X0079820Y0030684D03*
X0079820Y0030816D03*
X0079820Y0031014D03*
X0079820Y0031212D03*
X0079820Y0031410D03*
X0079820Y0031608D03*
X0079820Y0031740D03*
X0079820Y0031938D03*
X0079820Y0032136D03*
X0079820Y0032334D03*
X0079820Y0032466D03*
X0079820Y0034116D03*
X0079820Y0034314D03*
X0079820Y0034512D03*
X0079820Y0034710D03*
X0079820Y0034908D03*
X0079820Y0035040D03*
X0079820Y0035238D03*
X0084968Y0035436D03*
X0084968Y0035634D03*
X0084968Y0035766D03*
X0084968Y0035964D03*
X0084968Y0036162D03*
X0067874Y0035238D03*
X0067874Y0035040D03*
X0067874Y0034908D03*
X0067874Y0034710D03*
X0067874Y0034512D03*
X0067874Y0034314D03*
X0067874Y0034116D03*
X0067874Y0033984D03*
X0067874Y0033786D03*
X0067874Y0033588D03*
X0067874Y0033390D03*
X0067874Y0033258D03*
X0067874Y0033060D03*
X0067874Y0032862D03*
X0067874Y0032664D03*
X0067874Y0032466D03*
X0067874Y0032334D03*
X0067874Y0032136D03*
X0067874Y0031938D03*
X0067874Y0031740D03*
X0067874Y0031608D03*
X0067874Y0031410D03*
X0067874Y0031212D03*
X0067874Y0031014D03*
X0067874Y0030816D03*
X0067874Y0030684D03*
X0067874Y0030486D03*
X0067874Y0030288D03*
X0067874Y0030090D03*
X0067874Y0029958D03*
X0067874Y0029760D03*
X0067874Y0029562D03*
X0067874Y0029364D03*
X0067874Y0029166D03*
X0067874Y0029034D03*
X0067874Y0028836D03*
X0067874Y0027516D03*
X0067874Y0027384D03*
X0067874Y0027186D03*
X0067874Y0026988D03*
X0067874Y0026790D03*
X0067874Y0026658D03*
X0067874Y0026460D03*
X0061142Y0028836D03*
X0061142Y0029034D03*
X0061142Y0029166D03*
X0061142Y0029364D03*
X0061142Y0029562D03*
X0061142Y0029760D03*
X0061142Y0029958D03*
X0061142Y0030090D03*
X0061142Y0030288D03*
X0061142Y0030486D03*
X0061142Y0030684D03*
X0061142Y0030816D03*
X0061142Y0031014D03*
X0061142Y0031212D03*
X0061142Y0031410D03*
X0061142Y0031608D03*
X0061142Y0031740D03*
X0061142Y0031938D03*
X0061142Y0032136D03*
X0061142Y0032334D03*
X0061142Y0032466D03*
X0061142Y0032664D03*
X0061142Y0032862D03*
X0061142Y0033060D03*
X0061142Y0033258D03*
X0061142Y0035436D03*
X0061142Y0035634D03*
X0061142Y0035766D03*
X0061142Y0035964D03*
X0061142Y0036162D03*
X0061142Y0036360D03*
X0061142Y0036558D03*
D117*
X0071999Y0026460D03*
D118*
X0076520Y0034908D03*
X0060218Y0026460D03*
X0116318Y0026988D03*
D119*
X0116747Y0027648D03*
X0110543Y0026526D03*
X0097607Y0028572D03*
D120*
X0101369Y0026526D03*
X0122621Y0035832D03*
X0061043Y0028506D03*
D121*
X0060086Y0026592D03*
X0072032Y0026592D03*
X0076982Y0034050D03*
X0092558Y0026526D03*
X0119354Y0043224D03*
X0120278Y0050748D03*
D122*
X0120146Y0051342D03*
X0101270Y0035304D03*
X0102920Y0032796D03*
X0102920Y0032730D03*
X0102920Y0029100D03*
X0111896Y0028506D03*
X0084968Y0028506D03*
X0084968Y0028572D03*
X0084968Y0028704D03*
X0084968Y0028770D03*
X0084968Y0028902D03*
X0084968Y0028968D03*
X0084968Y0029100D03*
X0084968Y0029232D03*
X0084968Y0029298D03*
X0084968Y0029430D03*
X0084968Y0029496D03*
X0084968Y0029628D03*
X0084968Y0029694D03*
X0084968Y0029826D03*
X0084968Y0029892D03*
X0084968Y0030024D03*
X0084968Y0030156D03*
X0084968Y0030222D03*
X0084968Y0030354D03*
X0084968Y0030420D03*
X0084968Y0030552D03*
X0084968Y0030618D03*
X0084968Y0030750D03*
X0084968Y0030882D03*
X0084968Y0030948D03*
X0084968Y0031080D03*
X0084968Y0031146D03*
X0084968Y0031278D03*
X0084968Y0031344D03*
X0084968Y0031476D03*
X0084968Y0031542D03*
X0084968Y0031674D03*
X0084968Y0031806D03*
X0084968Y0031872D03*
X0084968Y0032004D03*
X0084968Y0032070D03*
X0084968Y0032202D03*
X0084968Y0032268D03*
X0084968Y0032400D03*
X0084968Y0032532D03*
X0084968Y0032598D03*
X0084968Y0032730D03*
X0084968Y0032796D03*
X0084968Y0032928D03*
X0084968Y0032994D03*
X0084968Y0033126D03*
X0084968Y0033192D03*
X0084968Y0033324D03*
X0084968Y0035370D03*
X0084968Y0035502D03*
X0084968Y0035568D03*
X0084968Y0035700D03*
X0084968Y0035832D03*
X0084968Y0035898D03*
X0084968Y0036030D03*
X0084968Y0036096D03*
X0079820Y0035304D03*
X0079820Y0035172D03*
X0079820Y0035106D03*
X0079820Y0034974D03*
X0079820Y0034842D03*
X0079820Y0034776D03*
X0079820Y0034644D03*
X0079820Y0034578D03*
X0079820Y0034446D03*
X0079820Y0034380D03*
X0079820Y0034248D03*
X0079820Y0034182D03*
X0079820Y0034050D03*
X0079820Y0032400D03*
X0079820Y0032268D03*
X0079820Y0032202D03*
X0079820Y0032070D03*
X0079820Y0032004D03*
X0079820Y0031872D03*
X0079820Y0031806D03*
X0079820Y0031674D03*
X0079820Y0031542D03*
X0079820Y0031476D03*
X0079820Y0031344D03*
X0079820Y0031278D03*
X0079820Y0031146D03*
X0079820Y0031080D03*
X0079820Y0030948D03*
X0079820Y0030882D03*
X0079820Y0030750D03*
X0079820Y0030618D03*
X0079820Y0030552D03*
X0079820Y0030420D03*
X0079820Y0030354D03*
X0079820Y0030222D03*
X0079820Y0030156D03*
X0079820Y0030024D03*
X0079820Y0029892D03*
X0079820Y0029826D03*
X0079820Y0029694D03*
X0079820Y0029628D03*
X0079820Y0029496D03*
X0079820Y0029430D03*
X0079820Y0029298D03*
X0079820Y0029232D03*
X0079820Y0029100D03*
X0079820Y0028968D03*
X0079820Y0028902D03*
X0079820Y0028770D03*
X0079820Y0028704D03*
X0079820Y0028572D03*
X0079820Y0028506D03*
X0079820Y0028374D03*
X0079820Y0028242D03*
X0079820Y0028176D03*
X0079820Y0028044D03*
X0079820Y0027978D03*
X0079820Y0027846D03*
X0079820Y0027780D03*
X0079820Y0027648D03*
X0079820Y0027582D03*
X0079820Y0027450D03*
X0079820Y0027318D03*
X0079820Y0027252D03*
X0079820Y0027120D03*
X0079820Y0027054D03*
X0079820Y0026922D03*
X0079820Y0026856D03*
X0079820Y0026724D03*
X0079820Y0026592D03*
X0079820Y0026526D03*
X0084968Y0026526D03*
X0084968Y0026592D03*
X0084968Y0026724D03*
X0084968Y0026856D03*
X0084968Y0026922D03*
X0084968Y0027054D03*
X0084968Y0027120D03*
X0084968Y0027252D03*
X0084968Y0027318D03*
X0084968Y0027450D03*
X0084968Y0027582D03*
X0084968Y0027648D03*
X0084968Y0027780D03*
X0084968Y0027846D03*
X0084968Y0027978D03*
X0084968Y0028044D03*
X0084968Y0028176D03*
X0084968Y0028242D03*
X0084968Y0028374D03*
X0076718Y0034578D03*
X0067874Y0034578D03*
X0067874Y0034644D03*
X0067874Y0034776D03*
X0067874Y0034842D03*
X0067874Y0034974D03*
X0067874Y0035106D03*
X0067874Y0035172D03*
X0067874Y0035304D03*
X0067874Y0034446D03*
X0067874Y0034380D03*
X0067874Y0034248D03*
X0067874Y0034182D03*
X0067874Y0034050D03*
X0067874Y0033918D03*
X0067874Y0033852D03*
X0067874Y0033720D03*
X0067874Y0033654D03*
X0067874Y0033522D03*
X0067874Y0033456D03*
X0067874Y0033324D03*
X0067874Y0033192D03*
X0067874Y0033126D03*
X0067874Y0032994D03*
X0067874Y0032928D03*
X0067874Y0032796D03*
X0067874Y0032730D03*
X0067874Y0032598D03*
X0067874Y0032532D03*
X0067874Y0032400D03*
X0067874Y0032268D03*
X0067874Y0032202D03*
X0067874Y0032070D03*
X0067874Y0032004D03*
X0067874Y0031872D03*
X0067874Y0031806D03*
X0067874Y0031674D03*
X0067874Y0031542D03*
X0067874Y0031476D03*
X0067874Y0031344D03*
X0067874Y0031278D03*
X0067874Y0031146D03*
X0067874Y0031080D03*
X0067874Y0030948D03*
X0067874Y0030882D03*
X0067874Y0030750D03*
X0067874Y0030618D03*
X0067874Y0030552D03*
X0067874Y0030420D03*
X0067874Y0030354D03*
X0067874Y0030222D03*
X0067874Y0030156D03*
X0067874Y0030024D03*
X0067874Y0029892D03*
X0067874Y0029826D03*
X0067874Y0029694D03*
X0067874Y0029628D03*
X0067874Y0029496D03*
X0067874Y0029430D03*
X0067874Y0029298D03*
X0067874Y0029232D03*
X0067874Y0029100D03*
X0067874Y0028968D03*
X0067874Y0028902D03*
X0067874Y0027450D03*
X0067874Y0027318D03*
X0067874Y0027252D03*
X0067874Y0027120D03*
X0067874Y0027054D03*
X0067874Y0026922D03*
X0067874Y0026856D03*
X0067874Y0026724D03*
X0067874Y0026592D03*
X0067874Y0026526D03*
X0061142Y0028902D03*
X0061142Y0028968D03*
X0061142Y0029100D03*
X0061142Y0029232D03*
X0061142Y0029298D03*
X0061142Y0029430D03*
X0061142Y0029496D03*
X0061142Y0029628D03*
X0061142Y0029694D03*
X0061142Y0029826D03*
X0061142Y0029892D03*
X0061142Y0030024D03*
X0061142Y0030156D03*
X0061142Y0030222D03*
X0061142Y0030354D03*
X0061142Y0030420D03*
X0061142Y0030552D03*
X0061142Y0030618D03*
X0061142Y0030750D03*
X0061142Y0030882D03*
X0061142Y0030948D03*
X0061142Y0031080D03*
X0061142Y0031146D03*
X0061142Y0031278D03*
X0061142Y0031344D03*
X0061142Y0031476D03*
X0061142Y0031542D03*
X0061142Y0031674D03*
X0061142Y0031806D03*
X0061142Y0031872D03*
X0061142Y0032004D03*
X0061142Y0032070D03*
X0061142Y0032202D03*
X0061142Y0032268D03*
X0061142Y0032400D03*
X0061142Y0032532D03*
X0061142Y0032598D03*
X0061142Y0032730D03*
X0061142Y0032796D03*
X0061142Y0032928D03*
X0061142Y0032994D03*
X0061142Y0033126D03*
X0061142Y0033192D03*
X0061142Y0033324D03*
X0061142Y0035370D03*
X0061142Y0035502D03*
X0061142Y0035568D03*
X0061142Y0035700D03*
X0061142Y0035832D03*
X0061142Y0035898D03*
X0061142Y0036030D03*
X0061142Y0036096D03*
X0061142Y0036228D03*
X0061142Y0036294D03*
X0061142Y0036426D03*
X0061142Y0036492D03*
D123*
X0071999Y0026526D03*
X0116615Y0027450D03*
X0123743Y0041178D03*
X0123017Y0043554D03*
D124*
X0121796Y0039528D03*
X0118496Y0036294D03*
X0118496Y0036228D03*
X0111698Y0030024D03*
X0111698Y0028242D03*
X0097442Y0028704D03*
X0093746Y0028242D03*
X0097442Y0033126D03*
X0084836Y0036426D03*
X0073220Y0028572D03*
X0068006Y0028704D03*
X0060086Y0026526D03*
X0120212Y0051078D03*
X0130640Y0029298D03*
D125*
X0122687Y0035700D03*
X0115427Y0043356D03*
X0120245Y0050880D03*
X0102623Y0028506D03*
X0101369Y0026592D03*
X0073121Y0028506D03*
D126*
X0101402Y0026658D03*
X0118034Y0035634D03*
X0119354Y0043488D03*
D127*
X0072032Y0026658D03*
D128*
X0060020Y0026658D03*
X0115394Y0043290D03*
X0117902Y0035436D03*
X0116912Y0027912D03*
D129*
X0116186Y0026724D03*
X0122786Y0040254D03*
D130*
X0122885Y0035370D03*
X0101435Y0026724D03*
D131*
X0117704Y0034842D03*
X0120410Y0050154D03*
X0083780Y0037878D03*
X0072032Y0026724D03*
D132*
X0101402Y0026790D03*
D133*
X0092525Y0026790D03*
X0120443Y0049890D03*
X0123017Y0035238D03*
X0060053Y0026988D03*
D134*
X0072032Y0026790D03*
D135*
X0079160Y0032862D03*
X0059954Y0026790D03*
X0117704Y0034710D03*
X0120410Y0050088D03*
D136*
X0122456Y0036492D03*
X0116252Y0026856D03*
D137*
X0110510Y0026856D03*
X0101270Y0034842D03*
X0092492Y0026856D03*
X0084044Y0036756D03*
X0084044Y0036822D03*
X0084044Y0036954D03*
X0084044Y0037020D03*
X0060152Y0027450D03*
X0060152Y0027318D03*
X0060152Y0027252D03*
X0126812Y0037152D03*
X0126944Y0037020D03*
X0127010Y0036954D03*
D138*
X0125921Y0037746D03*
X0117671Y0034446D03*
X0117209Y0028374D03*
X0130079Y0029694D03*
X0091931Y0031476D03*
X0083945Y0037482D03*
X0083945Y0037548D03*
X0071999Y0026856D03*
X0060053Y0026922D03*
D139*
X0060020Y0026856D03*
X0109916Y0031476D03*
D140*
X0115724Y0036228D03*
X0116318Y0026922D03*
X0120080Y0051804D03*
D141*
X0127703Y0036030D03*
X0110477Y0026922D03*
X0101369Y0027054D03*
X0071999Y0027054D03*
D142*
X0071999Y0026922D03*
X0060119Y0027120D03*
X0101369Y0026922D03*
D143*
X0092459Y0026922D03*
D144*
X0092492Y0026988D03*
X0110444Y0026988D03*
X0127868Y0035634D03*
X0120542Y0049362D03*
D145*
X0127373Y0036558D03*
X0129947Y0029760D03*
X0101369Y0026988D03*
X0071999Y0026988D03*
D146*
X0076553Y0034842D03*
X0115691Y0036294D03*
X0123347Y0040848D03*
X0120113Y0051606D03*
X0120113Y0051672D03*
X0116351Y0027054D03*
D147*
X0110477Y0027054D03*
X0120575Y0049230D03*
D148*
X0115229Y0043026D03*
X0101237Y0034644D03*
X0091007Y0035304D03*
X0092459Y0027054D03*
D149*
X0083978Y0037350D03*
X0060086Y0027054D03*
X0120476Y0049824D03*
X0126284Y0037548D03*
X0126416Y0037482D03*
D150*
X0110411Y0027120D03*
X0071933Y0027252D03*
D151*
X0071966Y0027120D03*
X0101336Y0027120D03*
D152*
X0101303Y0027252D03*
X0092393Y0027120D03*
X0120641Y0049032D03*
X0127901Y0035304D03*
D153*
X0127868Y0035238D03*
X0129650Y0029958D03*
X0110378Y0027186D03*
D154*
X0101336Y0027186D03*
D155*
X0092360Y0027186D03*
D156*
X0071933Y0027186D03*
D157*
X0060119Y0027186D03*
X0126449Y0037416D03*
D158*
X0129518Y0030024D03*
X0110378Y0027252D03*
D159*
X0117704Y0029100D03*
X0092360Y0027252D03*
D160*
X0110312Y0027318D03*
X0120674Y0048768D03*
X0071834Y0027450D03*
D161*
X0071867Y0027318D03*
X0101303Y0027318D03*
X0120641Y0048900D03*
D162*
X0092327Y0027318D03*
D163*
X0093779Y0028308D03*
X0088499Y0033390D03*
X0073253Y0028638D03*
X0106517Y0033390D03*
X0115691Y0036360D03*
X0121829Y0039462D03*
X0122027Y0039264D03*
X0116549Y0027384D03*
D164*
X0110345Y0027384D03*
X0092327Y0027384D03*
D165*
X0101270Y0027384D03*
X0117770Y0029166D03*
D166*
X0115196Y0042960D03*
X0071900Y0027384D03*
D167*
X0060152Y0027384D03*
X0084044Y0036888D03*
X0084044Y0037086D03*
X0126680Y0037284D03*
X0126878Y0037086D03*
X0127076Y0036888D03*
X0127274Y0036690D03*
D168*
X0109058Y0030354D03*
X0109058Y0030222D03*
X0109058Y0030156D03*
X0109058Y0027648D03*
X0109058Y0027582D03*
X0109058Y0027450D03*
X0091106Y0027780D03*
X0091106Y0027846D03*
X0091106Y0027978D03*
D169*
X0101237Y0027450D03*
X0117803Y0029232D03*
X0131003Y0045600D03*
X0120707Y0048702D03*
D170*
X0130376Y0045204D03*
X0127472Y0032070D03*
X0108992Y0030618D03*
X0108992Y0030552D03*
X0099950Y0034248D03*
X0091040Y0030552D03*
X0091040Y0030420D03*
X0091040Y0027450D03*
D171*
X0091106Y0027912D03*
X0109058Y0027714D03*
X0109058Y0027516D03*
X0109058Y0030288D03*
D172*
X0101237Y0027516D03*
X0128891Y0040386D03*
D173*
X0127439Y0032136D03*
X0109025Y0030486D03*
X0099983Y0027714D03*
X0099983Y0033984D03*
X0099983Y0034116D03*
X0091073Y0030288D03*
X0091073Y0027714D03*
X0091073Y0027516D03*
D174*
X0071834Y0027516D03*
D175*
X0060185Y0027516D03*
X0060185Y0027714D03*
X0084077Y0033390D03*
X0084077Y0033588D03*
X0084077Y0033786D03*
X0084077Y0033984D03*
X0084077Y0034116D03*
X0084077Y0034314D03*
X0084077Y0034512D03*
X0084077Y0034710D03*
X0084077Y0034908D03*
X0084077Y0035040D03*
X0084077Y0035238D03*
X0084077Y0036558D03*
X0084077Y0036690D03*
X0127505Y0036360D03*
X0127637Y0036162D03*
D176*
X0118331Y0036096D03*
X0116681Y0027582D03*
X0106583Y0028506D03*
D177*
X0109025Y0030420D03*
X0099983Y0027648D03*
X0099983Y0027582D03*
X0099983Y0034050D03*
X0099983Y0034182D03*
X0091073Y0030354D03*
X0091073Y0030222D03*
X0091073Y0030156D03*
X0091073Y0027648D03*
X0091073Y0027582D03*
X0127373Y0032268D03*
X0127439Y0032202D03*
D178*
X0114569Y0038670D03*
X0070547Y0027648D03*
X0070547Y0027582D03*
D179*
X0060185Y0027582D03*
X0060185Y0027648D03*
X0060185Y0027780D03*
X0084077Y0033456D03*
X0084077Y0033522D03*
X0084077Y0033654D03*
X0084077Y0033720D03*
X0084077Y0033852D03*
X0084077Y0033918D03*
X0084077Y0034050D03*
X0084077Y0034182D03*
X0084077Y0034248D03*
X0084077Y0034380D03*
X0084077Y0034446D03*
X0084077Y0034578D03*
X0084077Y0034644D03*
X0084077Y0034776D03*
X0084077Y0034842D03*
X0084077Y0034974D03*
X0084077Y0035106D03*
X0084077Y0035172D03*
X0084077Y0035304D03*
X0084077Y0036492D03*
X0084077Y0036624D03*
X0117737Y0034380D03*
X0127109Y0036822D03*
X0127307Y0036624D03*
X0127439Y0036492D03*
X0127439Y0036426D03*
D180*
X0122753Y0035634D03*
X0118265Y0035964D03*
X0116747Y0027714D03*
X0083483Y0038208D03*
D181*
X0070547Y0027714D03*
D182*
X0091139Y0028044D03*
X0091139Y0028176D03*
X0100049Y0028044D03*
X0100049Y0027978D03*
X0100049Y0027846D03*
X0100049Y0033522D03*
X0100049Y0033654D03*
X0100049Y0033720D03*
X0109091Y0028176D03*
X0109091Y0028044D03*
X0109091Y0027978D03*
X0109091Y0027846D03*
X0109091Y0027780D03*
X0116615Y0037218D03*
X0114701Y0038604D03*
X0126845Y0033720D03*
X0126977Y0033324D03*
X0127175Y0032796D03*
X0127175Y0032730D03*
X0127241Y0032598D03*
D183*
X0127274Y0032532D03*
X0127340Y0032400D03*
X0100016Y0033852D03*
X0100016Y0033918D03*
X0100016Y0027780D03*
X0070580Y0027780D03*
X0070580Y0027846D03*
X0070580Y0027978D03*
X0070580Y0028044D03*
X0070580Y0028176D03*
X0070580Y0028242D03*
D184*
X0060218Y0028242D03*
X0060218Y0028176D03*
X0060218Y0028044D03*
X0060218Y0027978D03*
X0060218Y0027846D03*
X0060218Y0028374D03*
X0060218Y0033456D03*
X0060218Y0033522D03*
X0060218Y0033654D03*
X0060218Y0033720D03*
X0060218Y0033852D03*
X0060218Y0033918D03*
X0060218Y0034050D03*
X0060218Y0034182D03*
X0060218Y0034248D03*
X0060218Y0034380D03*
X0060218Y0034446D03*
X0060218Y0034578D03*
X0060218Y0034644D03*
X0060218Y0034776D03*
X0060218Y0034842D03*
X0060218Y0034974D03*
X0060218Y0035106D03*
X0060218Y0035172D03*
X0060218Y0035304D03*
X0127670Y0036096D03*
D185*
X0126845Y0033786D03*
X0126977Y0033258D03*
X0127175Y0032664D03*
X0116615Y0037284D03*
X0109091Y0028110D03*
X0109091Y0027912D03*
X0100049Y0027912D03*
X0100049Y0028110D03*
X0100049Y0033588D03*
X0100049Y0033786D03*
X0091139Y0028110D03*
D186*
X0070580Y0028110D03*
X0070580Y0027912D03*
X0070580Y0028308D03*
X0113216Y0039660D03*
X0127340Y0032334D03*
D187*
X0060218Y0033390D03*
X0060218Y0033588D03*
X0060218Y0033786D03*
X0060218Y0033984D03*
X0060218Y0034116D03*
X0060218Y0034314D03*
X0060218Y0034512D03*
X0060218Y0034710D03*
X0060218Y0034908D03*
X0060218Y0035040D03*
X0060218Y0035238D03*
X0060218Y0028308D03*
X0060218Y0028110D03*
X0060218Y0027912D03*
D188*
X0116945Y0027978D03*
D189*
X0117011Y0028044D03*
X0117737Y0034974D03*
X0115361Y0043224D03*
X0120377Y0050220D03*
X0083747Y0037944D03*
D190*
X0101270Y0035040D03*
X0117044Y0028110D03*
X0130244Y0029562D03*
D191*
X0127010Y0033126D03*
X0127010Y0033192D03*
X0126944Y0033456D03*
X0126878Y0033654D03*
X0100082Y0033456D03*
X0100082Y0028374D03*
X0100082Y0028242D03*
X0100082Y0028176D03*
D192*
X0088994Y0028242D03*
D193*
X0097376Y0033060D03*
X0102788Y0028638D03*
X0111764Y0028308D03*
X0119486Y0042762D03*
D194*
X0119387Y0043686D03*
X0117869Y0035238D03*
X0122819Y0035436D03*
X0106847Y0028308D03*
X0083681Y0038010D03*
D195*
X0100082Y0033390D03*
X0100082Y0028440D03*
X0100082Y0028308D03*
X0126944Y0033390D03*
X0127076Y0033060D03*
X0130310Y0045138D03*
D196*
X0088895Y0028308D03*
D197*
X0088730Y0028374D03*
X0092030Y0031542D03*
X0122786Y0035568D03*
X0123908Y0041244D03*
D198*
X0126911Y0033522D03*
X0127109Y0032994D03*
X0127109Y0032928D03*
X0113183Y0039726D03*
X0070613Y0028374D03*
D199*
X0117275Y0028440D03*
D200*
X0106616Y0028440D03*
D201*
X0088631Y0028440D03*
D202*
X0070613Y0028440D03*
X0126911Y0033588D03*
X0127109Y0032862D03*
X0127307Y0032466D03*
D203*
X0079622Y0032664D03*
X0068072Y0028638D03*
X0060944Y0028440D03*
D204*
X0117308Y0028506D03*
X0127208Y0036756D03*
D205*
X0130376Y0029496D03*
X0117902Y0035370D03*
X0119354Y0043620D03*
X0120344Y0050418D03*
X0097772Y0028506D03*
D206*
X0097508Y0033192D03*
X0088598Y0028506D03*
X0076916Y0034182D03*
X0120278Y0050946D03*
X0122984Y0043620D03*
D207*
X0068336Y0028506D03*
D208*
X0117341Y0028572D03*
X0127571Y0036294D03*
D209*
X0106484Y0028572D03*
D210*
X0102755Y0028572D03*
X0102755Y0033192D03*
X0093713Y0030024D03*
X0088499Y0028572D03*
X0088499Y0033324D03*
X0076817Y0034380D03*
X0119453Y0042828D03*
X0119453Y0042894D03*
X0121961Y0039330D03*
D211*
X0121928Y0039396D03*
X0122654Y0035898D03*
X0120212Y0051144D03*
X0106484Y0033324D03*
X0102788Y0033126D03*
X0102854Y0028770D03*
X0102854Y0028704D03*
X0079754Y0032598D03*
X0076784Y0034446D03*
X0073286Y0028770D03*
X0073286Y0028704D03*
X0061076Y0028572D03*
D212*
X0117407Y0028638D03*
D213*
X0097475Y0028638D03*
D214*
X0088433Y0028638D03*
X0088433Y0033258D03*
D215*
X0084935Y0036360D03*
X0076751Y0034512D03*
X0073319Y0029034D03*
X0073319Y0028836D03*
X0061109Y0028638D03*
X0093449Y0033390D03*
X0093779Y0029958D03*
X0102887Y0028836D03*
X0102887Y0032862D03*
X0102821Y0033060D03*
X0106385Y0033060D03*
X0106385Y0032862D03*
X0106451Y0033258D03*
X0110081Y0031608D03*
X0111467Y0033390D03*
X0111797Y0029958D03*
X0120179Y0051210D03*
D216*
X0120542Y0049428D03*
X0127868Y0035700D03*
X0129848Y0029826D03*
X0117440Y0028704D03*
X0101270Y0034776D03*
D217*
X0117506Y0028770D03*
X0127934Y0035370D03*
X0129782Y0029892D03*
D218*
X0117539Y0028836D03*
D219*
X0117572Y0028902D03*
X0108992Y0035304D03*
X0120608Y0049098D03*
D220*
X0117638Y0028968D03*
D221*
X0130904Y0029034D03*
X0115460Y0043488D03*
X0120080Y0051936D03*
D222*
X0117704Y0029034D03*
D223*
X0130871Y0029100D03*
D224*
X0117836Y0029298D03*
D225*
X0130508Y0029364D03*
X0122984Y0043686D03*
X0119354Y0043290D03*
X0120278Y0050814D03*
D226*
X0129056Y0040584D03*
X0117902Y0029364D03*
D227*
X0118034Y0035700D03*
X0121598Y0039792D03*
X0119354Y0043554D03*
X0120344Y0050550D03*
X0130442Y0029430D03*
X0083582Y0038142D03*
X0079424Y0032796D03*
D228*
X0117935Y0029430D03*
X0128627Y0040056D03*
X0128693Y0040122D03*
X0129221Y0040848D03*
D229*
X0129287Y0041046D03*
X0118001Y0029496D03*
D230*
X0118034Y0029562D03*
X0129122Y0030288D03*
X0120740Y0048240D03*
D231*
X0120806Y0048174D03*
X0118100Y0029694D03*
X0118100Y0029628D03*
D232*
X0118133Y0029760D03*
D233*
X0118199Y0029826D03*
X0118199Y0029892D03*
D234*
X0118265Y0029958D03*
D235*
X0118298Y0030024D03*
X0127604Y0039330D03*
D236*
X0129452Y0030090D03*
X0108992Y0035238D03*
D237*
X0118331Y0030090D03*
D238*
X0129320Y0030156D03*
X0128792Y0040254D03*
D239*
X0120872Y0047580D03*
X0128726Y0030552D03*
X0118364Y0030156D03*
X0090974Y0034974D03*
D240*
X0120740Y0048372D03*
X0129254Y0040980D03*
X0129188Y0030222D03*
D241*
X0118397Y0030222D03*
X0120905Y0047448D03*
D242*
X0120905Y0047514D03*
X0127439Y0039264D03*
X0118397Y0030288D03*
X0108959Y0034908D03*
X0090941Y0034908D03*
D243*
X0120806Y0047976D03*
X0128990Y0030354D03*
D244*
X0118463Y0030354D03*
X0090941Y0034842D03*
D245*
X0128891Y0030420D03*
D246*
X0118496Y0030420D03*
X0120872Y0047250D03*
D247*
X0128792Y0030486D03*
D248*
X0128594Y0030684D03*
X0118496Y0030486D03*
X0116846Y0036690D03*
D249*
X0108992Y0030684D03*
X0099950Y0034314D03*
X0091040Y0030486D03*
D250*
X0108959Y0034776D03*
X0118529Y0030552D03*
D251*
X0128660Y0030618D03*
X0114932Y0042630D03*
D252*
X0120938Y0047052D03*
X0120938Y0047118D03*
X0118562Y0030618D03*
X0090974Y0034776D03*
D253*
X0091007Y0030618D03*
X0108959Y0030750D03*
D254*
X0118595Y0030684D03*
D255*
X0108959Y0030816D03*
X0091007Y0030684D03*
D256*
X0128495Y0030750D03*
D257*
X0118595Y0030750D03*
D258*
X0108926Y0030882D03*
X0113282Y0039528D03*
X0130442Y0045270D03*
X0090974Y0030750D03*
D259*
X0090941Y0034710D03*
X0108959Y0034710D03*
X0128363Y0030816D03*
D260*
X0118628Y0030816D03*
X0120938Y0046986D03*
D261*
X0090974Y0030816D03*
D262*
X0116813Y0036756D03*
X0128363Y0030882D03*
X0130673Y0045468D03*
D263*
X0121037Y0043818D03*
X0121037Y0043752D03*
X0120971Y0046722D03*
X0118661Y0030948D03*
X0118661Y0030882D03*
X0128297Y0030948D03*
X0090941Y0034644D03*
D264*
X0090941Y0033654D03*
X0090941Y0033522D03*
X0090941Y0033456D03*
X0090941Y0030882D03*
X0108893Y0030948D03*
X0118991Y0032400D03*
X0118991Y0032532D03*
X0118991Y0032598D03*
D265*
X0118958Y0032268D03*
X0118958Y0032202D03*
X0118958Y0032070D03*
X0090908Y0030948D03*
D266*
X0108959Y0034512D03*
X0121037Y0044016D03*
X0128231Y0031014D03*
D267*
X0118694Y0031014D03*
X0108596Y0031410D03*
X0090644Y0031410D03*
D268*
X0090974Y0033786D03*
X0108860Y0031014D03*
X0116648Y0037086D03*
X0113546Y0039264D03*
X0119090Y0033390D03*
X0119090Y0033258D03*
X0119090Y0033060D03*
X0119024Y0032862D03*
D269*
X0118925Y0031938D03*
X0113975Y0038934D03*
X0108959Y0033984D03*
X0108959Y0033786D03*
X0121037Y0044940D03*
X0121037Y0045138D03*
X0090941Y0033984D03*
X0090875Y0031014D03*
D270*
X0090941Y0034578D03*
X0116747Y0036822D03*
X0120971Y0046524D03*
X0120971Y0046656D03*
X0128165Y0031080D03*
D271*
X0118694Y0031080D03*
D272*
X0119024Y0032730D03*
X0119024Y0032796D03*
X0119090Y0033126D03*
X0119090Y0033192D03*
X0119090Y0033324D03*
X0119090Y0033456D03*
X0116648Y0037020D03*
X0114140Y0038868D03*
X0113414Y0039396D03*
X0108860Y0031080D03*
X0090974Y0033720D03*
X0090974Y0033852D03*
X0127802Y0031542D03*
D273*
X0127835Y0031476D03*
X0118925Y0032004D03*
X0113909Y0039000D03*
X0108959Y0034050D03*
X0108959Y0033918D03*
X0108959Y0033852D03*
X0108959Y0033720D03*
X0121037Y0045006D03*
X0121037Y0045072D03*
X0121037Y0045204D03*
X0121037Y0045270D03*
X0090941Y0034050D03*
X0090941Y0033918D03*
X0090875Y0031080D03*
D274*
X0090941Y0034380D03*
X0090941Y0034446D03*
X0108959Y0034446D03*
X0114767Y0042498D03*
X0121037Y0044280D03*
X0128099Y0031146D03*
D275*
X0118760Y0031146D03*
X0118760Y0031278D03*
X0108662Y0031344D03*
X0121070Y0044148D03*
D276*
X0118892Y0031872D03*
X0118892Y0031806D03*
X0108794Y0031146D03*
X0090842Y0031146D03*
D277*
X0090974Y0034314D03*
X0128066Y0031212D03*
D278*
X0118760Y0031212D03*
X0120938Y0046458D03*
X0090974Y0034512D03*
D279*
X0108761Y0031212D03*
X0108959Y0034314D03*
X0118859Y0031608D03*
X0121037Y0044412D03*
X0121037Y0044610D03*
D280*
X0121004Y0046062D03*
X0090776Y0031212D03*
D281*
X0128033Y0031278D03*
D282*
X0118826Y0031476D03*
X0108728Y0031278D03*
X0121004Y0045996D03*
X0121004Y0046128D03*
D283*
X0120971Y0046194D03*
X0120971Y0046326D03*
X0120971Y0046392D03*
X0118793Y0031344D03*
X0090743Y0031278D03*
D284*
X0090941Y0034182D03*
X0090941Y0034248D03*
X0108959Y0034248D03*
X0108959Y0034182D03*
X0108959Y0034380D03*
X0116681Y0036954D03*
X0118859Y0031674D03*
X0118859Y0031542D03*
X0127967Y0031344D03*
X0121037Y0044346D03*
X0121037Y0044478D03*
X0121037Y0044544D03*
X0121037Y0044676D03*
X0121037Y0044742D03*
D285*
X0121037Y0044082D03*
X0121037Y0043950D03*
X0130607Y0045402D03*
X0108959Y0034578D03*
X0090677Y0031344D03*
D286*
X0090908Y0034116D03*
X0108926Y0034116D03*
X0113810Y0039066D03*
X0119090Y0033786D03*
X0119090Y0033588D03*
X0127934Y0031410D03*
X0130508Y0045336D03*
X0121004Y0045336D03*
X0121004Y0045534D03*
X0121004Y0045666D03*
X0121004Y0045864D03*
X0121004Y0044808D03*
D287*
X0120971Y0046260D03*
X0118793Y0031410D03*
D288*
X0118991Y0032334D03*
X0118991Y0032466D03*
X0118991Y0032664D03*
X0127769Y0031608D03*
X0090941Y0033588D03*
D289*
X0108959Y0033654D03*
X0108959Y0033522D03*
X0108959Y0033456D03*
X0114305Y0038802D03*
X0119057Y0032994D03*
X0119057Y0032928D03*
X0127703Y0031674D03*
D290*
X0127670Y0031740D03*
X0113348Y0039462D03*
D291*
X0118892Y0031740D03*
D292*
X0116615Y0037152D03*
X0113249Y0039594D03*
X0099917Y0034380D03*
X0127637Y0031872D03*
X0127637Y0031806D03*
D293*
X0127571Y0031938D03*
X0114371Y0038736D03*
D294*
X0127538Y0032004D03*
D295*
X0118958Y0032136D03*
D296*
X0111599Y0032928D03*
X0111599Y0032994D03*
D297*
X0115097Y0042828D03*
X0120773Y0048306D03*
X0128495Y0039924D03*
X0128297Y0039792D03*
X0078269Y0033918D03*
X0078269Y0033852D03*
X0078269Y0033720D03*
X0078269Y0033654D03*
X0078269Y0033522D03*
X0078269Y0033456D03*
X0078269Y0033324D03*
X0078269Y0033192D03*
X0078269Y0033126D03*
X0078269Y0032994D03*
X0078269Y0032928D03*
D298*
X0111599Y0033060D03*
D299*
X0078269Y0033060D03*
X0078269Y0033258D03*
X0078269Y0033390D03*
X0078269Y0033588D03*
X0078269Y0033786D03*
X0078269Y0033984D03*
D300*
X0088433Y0033192D03*
X0088433Y0033126D03*
D301*
X0101270Y0035238D03*
X0102722Y0033258D03*
X0119420Y0042960D03*
X0123710Y0041112D03*
X0120212Y0051012D03*
X0076850Y0034314D03*
D302*
X0097640Y0033258D03*
X0118100Y0035766D03*
D303*
X0097838Y0033324D03*
D304*
X0113447Y0039330D03*
X0113645Y0039198D03*
X0119123Y0033522D03*
D305*
X0108959Y0033588D03*
D306*
X0113678Y0039132D03*
X0119090Y0033720D03*
X0119090Y0033654D03*
X0121004Y0044874D03*
X0121004Y0045402D03*
X0121004Y0045468D03*
X0121004Y0045600D03*
X0121004Y0045732D03*
X0121004Y0045798D03*
X0121004Y0045930D03*
D307*
X0123116Y0033918D03*
X0123116Y0033852D03*
D308*
X0123149Y0033984D03*
D309*
X0123149Y0034050D03*
D310*
X0123116Y0034116D03*
D311*
X0121697Y0039660D03*
X0119387Y0043158D03*
X0076949Y0034116D03*
D312*
X0123116Y0034182D03*
D313*
X0123149Y0034248D03*
D314*
X0121763Y0039594D03*
X0119387Y0043026D03*
X0119387Y0043092D03*
X0076883Y0034248D03*
D315*
X0123116Y0034314D03*
D316*
X0125294Y0034380D03*
D317*
X0125393Y0034446D03*
D318*
X0101171Y0034446D03*
D319*
X0125426Y0034512D03*
D320*
X0120641Y0048966D03*
X0101171Y0034512D03*
D321*
X0125492Y0034578D03*
D322*
X0101204Y0034578D03*
D323*
X0115757Y0042300D03*
X0125525Y0034644D03*
D324*
X0108959Y0034644D03*
D325*
X0115823Y0042366D03*
X0125525Y0034710D03*
D326*
X0127901Y0035436D03*
X0101237Y0034710D03*
D327*
X0125558Y0034776D03*
X0125624Y0039198D03*
D328*
X0125393Y0037944D03*
X0117671Y0034776D03*
D329*
X0125591Y0034842D03*
X0125591Y0039132D03*
D330*
X0120905Y0047382D03*
X0108959Y0034842D03*
D331*
X0125591Y0034908D03*
D332*
X0101270Y0034908D03*
D333*
X0125624Y0034974D03*
X0125492Y0039000D03*
D334*
X0108959Y0034974D03*
D335*
X0122522Y0036228D03*
X0122522Y0036294D03*
X0076520Y0034974D03*
D336*
X0125591Y0035040D03*
D337*
X0108959Y0035040D03*
D338*
X0090974Y0035040D03*
D339*
X0076454Y0035040D03*
X0120080Y0051738D03*
X0123248Y0040716D03*
X0122522Y0036360D03*
D340*
X0125624Y0035106D03*
X0129254Y0043620D03*
D341*
X0117770Y0035172D03*
X0117770Y0035106D03*
D342*
X0108992Y0035106D03*
X0090974Y0035106D03*
D343*
X0083681Y0038076D03*
X0101303Y0035106D03*
X0117869Y0035304D03*
X0120377Y0050352D03*
D344*
X0129485Y0043950D03*
X0125657Y0035172D03*
D345*
X0128264Y0039726D03*
X0108992Y0035172D03*
X0090974Y0035172D03*
D346*
X0076355Y0035172D03*
D347*
X0091007Y0035238D03*
D348*
X0120575Y0049296D03*
X0127901Y0035568D03*
X0127901Y0035502D03*
D349*
X0122819Y0035502D03*
X0118001Y0035568D03*
X0115691Y0036492D03*
D350*
X0127835Y0035766D03*
D351*
X0122687Y0035766D03*
D352*
X0127604Y0036228D03*
X0127802Y0035898D03*
X0127802Y0035832D03*
X0120542Y0049494D03*
D353*
X0120542Y0049560D03*
X0127736Y0035964D03*
D354*
X0118298Y0036030D03*
X0083450Y0038274D03*
D355*
X0122456Y0036558D03*
D356*
X0116945Y0036558D03*
D357*
X0122456Y0036624D03*
D358*
X0116846Y0036624D03*
D359*
X0122126Y0037680D03*
X0122390Y0036822D03*
X0122390Y0036756D03*
X0122918Y0040320D03*
D360*
X0120971Y0046590D03*
X0116747Y0036888D03*
D361*
X0122390Y0036954D03*
X0120014Y0052200D03*
D362*
X0120509Y0049692D03*
X0120509Y0049626D03*
X0126581Y0037350D03*
X0126713Y0037218D03*
X0084011Y0037218D03*
X0084011Y0037152D03*
D363*
X0083978Y0037284D03*
X0083978Y0037416D03*
X0115328Y0043158D03*
X0121334Y0039990D03*
X0126152Y0037614D03*
X0120476Y0049758D03*
D364*
X0116582Y0037350D03*
D365*
X0122258Y0037416D03*
D366*
X0116582Y0037416D03*
D367*
X0116549Y0037482D03*
D368*
X0122225Y0037548D03*
D369*
X0116582Y0037548D03*
X0130112Y0044874D03*
D370*
X0116582Y0037614D03*
D371*
X0116615Y0037680D03*
X0113315Y0040056D03*
X0129881Y0044544D03*
D372*
X0117407Y0037746D03*
D373*
X0117374Y0037812D03*
X0127670Y0042564D03*
D374*
X0083813Y0037812D03*
D375*
X0115196Y0041970D03*
X0117374Y0037878D03*
D376*
X0117374Y0037944D03*
D377*
X0119816Y0038010D03*
D378*
X0119948Y0038076D03*
D379*
X0120047Y0038142D03*
D380*
X0120113Y0038208D03*
D381*
X0120146Y0038274D03*
D382*
X0120212Y0038340D03*
D383*
X0120212Y0038406D03*
D384*
X0120212Y0038472D03*
D385*
X0124634Y0038538D03*
D386*
X0130178Y0044940D03*
X0115130Y0038538D03*
D387*
X0124997Y0038604D03*
X0125063Y0038670D03*
X0125393Y0038868D03*
D388*
X0125228Y0038736D03*
X0129452Y0043884D03*
D389*
X0129320Y0043752D03*
X0125294Y0038802D03*
D390*
X0125459Y0038934D03*
D391*
X0125558Y0039066D03*
D392*
X0127703Y0039396D03*
X0120839Y0047778D03*
X0120839Y0047844D03*
D393*
X0120839Y0047910D03*
X0115031Y0042762D03*
X0127835Y0039462D03*
D394*
X0127967Y0039528D03*
X0120839Y0048042D03*
D395*
X0128033Y0039594D03*
D396*
X0128165Y0039660D03*
X0129287Y0041112D03*
D397*
X0113183Y0039792D03*
D398*
X0128396Y0039858D03*
D399*
X0121532Y0039858D03*
X0120410Y0050286D03*
D400*
X0113150Y0039858D03*
D401*
X0113216Y0039924D03*
D402*
X0128528Y0039990D03*
D403*
X0113216Y0039990D03*
D404*
X0115262Y0043092D03*
X0121136Y0040056D03*
D405*
X0115196Y0040122D03*
D406*
X0128726Y0040188D03*
D407*
X0122918Y0040386D03*
X0122720Y0040188D03*
D408*
X0115097Y0040188D03*
D409*
X0114998Y0040254D03*
X0114866Y0040452D03*
D410*
X0120707Y0048504D03*
X0120707Y0048570D03*
X0129089Y0040650D03*
X0129023Y0040518D03*
X0128957Y0040452D03*
X0128891Y0040320D03*
D411*
X0114965Y0040320D03*
X0114767Y0040650D03*
D412*
X0114932Y0040386D03*
D413*
X0114833Y0040518D03*
D414*
X0123083Y0040584D03*
D415*
X0114833Y0040584D03*
D416*
X0120773Y0048438D03*
X0129221Y0040914D03*
X0129155Y0040716D03*
D417*
X0114767Y0040716D03*
D418*
X0115130Y0042894D03*
X0129188Y0040782D03*
D419*
X0123281Y0040782D03*
D420*
X0114734Y0040782D03*
D421*
X0114701Y0040848D03*
D422*
X0114701Y0040914D03*
D423*
X0114734Y0040980D03*
D424*
X0114701Y0041046D03*
X0114701Y0041178D03*
D425*
X0114701Y0041112D03*
D426*
X0129287Y0041178D03*
D427*
X0129221Y0041244D03*
D428*
X0114668Y0041244D03*
D429*
X0127307Y0041310D03*
D430*
X0114701Y0041310D03*
D431*
X0127307Y0041376D03*
D432*
X0114734Y0041376D03*
D433*
X0127340Y0041442D03*
D434*
X0114701Y0041442D03*
D435*
X0127373Y0041508D03*
D436*
X0114734Y0041508D03*
D437*
X0127406Y0041574D03*
D438*
X0114767Y0041574D03*
D439*
X0127439Y0041640D03*
D440*
X0114833Y0041640D03*
D441*
X0127439Y0041706D03*
D442*
X0114899Y0041706D03*
D443*
X0127472Y0041772D03*
D444*
X0127769Y0043224D03*
X0114899Y0041772D03*
D445*
X0127505Y0041838D03*
D446*
X0114998Y0041838D03*
D447*
X0127538Y0041904D03*
D448*
X0115097Y0041904D03*
D449*
X0127505Y0041970D03*
D450*
X0127538Y0042036D03*
D451*
X0115295Y0042036D03*
D452*
X0115493Y0042168D03*
X0127571Y0042168D03*
X0127571Y0042102D03*
D453*
X0115427Y0042102D03*
D454*
X0127604Y0042234D03*
D455*
X0115625Y0042234D03*
D456*
X0127604Y0042300D03*
D457*
X0127637Y0042366D03*
D458*
X0127637Y0042432D03*
D459*
X0115922Y0042432D03*
D460*
X0127670Y0042498D03*
D461*
X0116120Y0042564D03*
D462*
X0127703Y0042630D03*
X0127703Y0042696D03*
D463*
X0114965Y0042696D03*
D464*
X0127736Y0042762D03*
D465*
X0127736Y0042828D03*
X0127736Y0042894D03*
D466*
X0127736Y0042960D03*
D467*
X0127769Y0043026D03*
D468*
X0127769Y0043092D03*
D469*
X0127769Y0043158D03*
D470*
X0127802Y0043290D03*
D471*
X0127802Y0043356D03*
D472*
X0119321Y0043356D03*
D473*
X0127802Y0043422D03*
D474*
X0129155Y0043488D03*
X0129287Y0043686D03*
X0129683Y0044214D03*
D475*
X0129617Y0044148D03*
X0129551Y0044082D03*
X0129419Y0043818D03*
X0129221Y0043554D03*
D476*
X0121037Y0043884D03*
X0120971Y0046788D03*
D477*
X0129551Y0044016D03*
D478*
X0121037Y0044214D03*
D479*
X0129716Y0044280D03*
D480*
X0129749Y0044346D03*
D481*
X0129815Y0044412D03*
D482*
X0129848Y0044478D03*
D483*
X0129947Y0044610D03*
D484*
X0129980Y0044676D03*
D485*
X0130046Y0044742D03*
D486*
X0130079Y0044808D03*
D487*
X0130211Y0045006D03*
D488*
X0130244Y0045072D03*
D489*
X0130772Y0045534D03*
D490*
X0120938Y0046854D03*
X0120938Y0046920D03*
D491*
X0120905Y0047184D03*
D492*
X0120905Y0047316D03*
D493*
X0120872Y0047646D03*
D494*
X0120872Y0047712D03*
D495*
X0120806Y0048108D03*
D496*
X0120707Y0048636D03*
D497*
X0120641Y0048834D03*
D498*
X0120608Y0049164D03*
D499*
X0120311Y0050484D03*
D500*
X0120311Y0050616D03*
D501*
X0120311Y0050682D03*
D502*
X0120047Y0052398D03*
D503*
X0121560Y0024000D02*
X0121562Y0024119D01*
X0121568Y0024237D01*
X0121578Y0024356D01*
X0121592Y0024474D01*
X0121610Y0024591D01*
X0121632Y0024708D01*
X0121657Y0024824D01*
X0121687Y0024939D01*
X0121720Y0025053D01*
X0121758Y0025166D01*
X0121799Y0025277D01*
X0121843Y0025387D01*
X0121892Y0025495D01*
X0121944Y0025602D01*
X0122000Y0025707D01*
X0122059Y0025810D01*
X0122121Y0025911D01*
X0122187Y0026010D01*
X0122256Y0026107D01*
X0122329Y0026201D01*
X0122404Y0026292D01*
X0122483Y0026382D01*
X0122564Y0026468D01*
X0122648Y0026552D01*
X0122736Y0026632D01*
X0122825Y0026710D01*
X0122918Y0026785D01*
X0123012Y0026856D01*
X0123110Y0026925D01*
X0123209Y0026990D01*
X0123310Y0027051D01*
X0123414Y0027110D01*
X0123519Y0027164D01*
X0123627Y0027216D01*
X0123735Y0027263D01*
X0123846Y0027307D01*
X0123958Y0027347D01*
X0124071Y0027383D01*
X0124185Y0027416D01*
X0124300Y0027444D01*
X0124416Y0027469D01*
X0124533Y0027490D01*
X0124651Y0027507D01*
X0124769Y0027520D01*
X0124887Y0027529D01*
X0125006Y0027534D01*
X0125125Y0027535D01*
X0125243Y0027532D01*
X0125362Y0027525D01*
X0125480Y0027514D01*
X0125598Y0027499D01*
X0125715Y0027480D01*
X0125832Y0027457D01*
X0125948Y0027431D01*
X0126062Y0027400D01*
X0126176Y0027366D01*
X0126289Y0027327D01*
X0126400Y0027285D01*
X0126509Y0027240D01*
X0126617Y0027190D01*
X0126724Y0027137D01*
X0126828Y0027081D01*
X0126931Y0027021D01*
X0127031Y0026958D01*
X0127129Y0026891D01*
X0127225Y0026821D01*
X0127319Y0026748D01*
X0127410Y0026672D01*
X0127498Y0026592D01*
X0127584Y0026510D01*
X0127667Y0026425D01*
X0127747Y0026337D01*
X0127824Y0026247D01*
X0127898Y0026154D01*
X0127969Y0026059D01*
X0128036Y0025961D01*
X0128101Y0025861D01*
X0128161Y0025759D01*
X0128219Y0025655D01*
X0128273Y0025549D01*
X0128323Y0025441D01*
X0128369Y0025332D01*
X0128412Y0025221D01*
X0128451Y0025109D01*
X0128487Y0024996D01*
X0128518Y0024881D01*
X0128546Y0024766D01*
X0128570Y0024650D01*
X0128590Y0024532D01*
X0128606Y0024415D01*
X0128618Y0024297D01*
X0128626Y0024178D01*
X0128630Y0024059D01*
X0128630Y0023941D01*
X0128626Y0023822D01*
X0128618Y0023703D01*
X0128606Y0023585D01*
X0128590Y0023468D01*
X0128570Y0023350D01*
X0128546Y0023234D01*
X0128518Y0023119D01*
X0128487Y0023004D01*
X0128451Y0022891D01*
X0128412Y0022779D01*
X0128369Y0022668D01*
X0128323Y0022559D01*
X0128273Y0022451D01*
X0128219Y0022345D01*
X0128161Y0022241D01*
X0128101Y0022139D01*
X0128036Y0022039D01*
X0127969Y0021941D01*
X0127898Y0021846D01*
X0127824Y0021753D01*
X0127747Y0021663D01*
X0127667Y0021575D01*
X0127584Y0021490D01*
X0127498Y0021408D01*
X0127410Y0021328D01*
X0127319Y0021252D01*
X0127225Y0021179D01*
X0127129Y0021109D01*
X0127031Y0021042D01*
X0126931Y0020979D01*
X0126828Y0020919D01*
X0126724Y0020863D01*
X0126617Y0020810D01*
X0126509Y0020760D01*
X0126400Y0020715D01*
X0126289Y0020673D01*
X0126176Y0020634D01*
X0126062Y0020600D01*
X0125948Y0020569D01*
X0125832Y0020543D01*
X0125715Y0020520D01*
X0125598Y0020501D01*
X0125480Y0020486D01*
X0125362Y0020475D01*
X0125243Y0020468D01*
X0125125Y0020465D01*
X0125006Y0020466D01*
X0124887Y0020471D01*
X0124769Y0020480D01*
X0124651Y0020493D01*
X0124533Y0020510D01*
X0124416Y0020531D01*
X0124300Y0020556D01*
X0124185Y0020584D01*
X0124071Y0020617D01*
X0123958Y0020653D01*
X0123846Y0020693D01*
X0123735Y0020737D01*
X0123627Y0020784D01*
X0123519Y0020836D01*
X0123414Y0020890D01*
X0123310Y0020949D01*
X0123209Y0021010D01*
X0123110Y0021075D01*
X0123012Y0021144D01*
X0122918Y0021215D01*
X0122825Y0021290D01*
X0122736Y0021368D01*
X0122648Y0021448D01*
X0122564Y0021532D01*
X0122483Y0021618D01*
X0122404Y0021708D01*
X0122329Y0021799D01*
X0122256Y0021893D01*
X0122187Y0021990D01*
X0122121Y0022089D01*
X0122059Y0022190D01*
X0122000Y0022293D01*
X0121944Y0022398D01*
X0121892Y0022505D01*
X0121843Y0022613D01*
X0121799Y0022723D01*
X0121758Y0022834D01*
X0121720Y0022947D01*
X0121687Y0023061D01*
X0121657Y0023176D01*
X0121632Y0023292D01*
X0121610Y0023409D01*
X0121592Y0023526D01*
X0121578Y0023644D01*
X0121568Y0023763D01*
X0121562Y0023881D01*
X0121560Y0024000D01*
D504*
X0123960Y0024001D02*
X0126095Y0024001D01*
X0126095Y0024535D02*
X0125028Y0025603D01*
X0123960Y0024535D01*
X0123960Y0022400D01*
X0126095Y0022400D02*
X0126095Y0024535D01*
M02*
