G75*
%MOIN*%
%OFA0B0*%
%FSLAX25Y25*%
%IPPOS*%
%LPD*%
%AMOC8*
5,1,8,0,0,1.08239X$1,22.5*
%
%ADD10C,0.12211*%
%ADD11R,0.06306X0.05518*%
%ADD12R,0.02565X0.05124*%
%ADD13R,0.05518X0.06306*%
%ADD14R,0.08274X0.05124*%
%ADD15R,0.04337X0.03943*%
%ADD16R,0.05124X0.05124*%
%ADD17R,0.08601X0.11400*%
%ADD18R,0.03900X0.01601*%
%ADD19R,0.03550X0.05124*%
%ADD20R,0.05912X0.04731*%
%ADD21C,0.06337*%
%ADD22C,0.06400*%
%ADD23C,0.07800*%
%ADD24C,0.04362*%
%ADD25C,0.04165*%
D10*
X0077591Y0070929D03*
X0199638Y0115024D03*
D11*
X0080095Y0091740D03*
X0080095Y0084260D03*
X0069595Y0085760D03*
X0069595Y0093240D03*
X0055095Y0091740D03*
X0055095Y0084260D03*
X0059095Y0074740D03*
X0059095Y0067260D03*
D12*
X0057355Y0059619D03*
X0064835Y0059619D03*
X0064835Y0049381D03*
X0061095Y0049381D03*
X0057355Y0049381D03*
D13*
X0051855Y0042000D03*
X0059335Y0042000D03*
X0163855Y0043500D03*
X0171335Y0043500D03*
X0174335Y0053000D03*
X0166855Y0053000D03*
X0163855Y0067500D03*
X0171335Y0067500D03*
D14*
X0153623Y0068720D03*
X0153623Y0060846D03*
X0153623Y0052972D03*
X0153623Y0045098D03*
X0153623Y0076594D03*
X0153623Y0084469D03*
X0153623Y0092343D03*
X0153623Y0100217D03*
X0094568Y0100217D03*
X0094568Y0092343D03*
X0094568Y0084469D03*
X0094568Y0076594D03*
X0094568Y0068720D03*
X0094568Y0060846D03*
X0094568Y0052972D03*
X0094568Y0045098D03*
D15*
X0061745Y0103929D03*
X0055446Y0103929D03*
X0055446Y0120071D03*
X0061745Y0120071D03*
X0182446Y0082571D03*
X0188745Y0082571D03*
X0188745Y0066429D03*
X0182446Y0066429D03*
D16*
X0179729Y0060500D03*
X0171461Y0060500D03*
D17*
X0188595Y0018500D03*
D18*
X0196900Y0018500D03*
X0196900Y0016531D03*
X0196900Y0014563D03*
X0196900Y0020469D03*
X0196900Y0022437D03*
X0180290Y0022437D03*
X0180290Y0020469D03*
X0180290Y0018500D03*
X0180290Y0016531D03*
X0180290Y0014563D03*
D19*
X0180052Y0032000D03*
X0187138Y0032000D03*
D20*
X0194595Y0041563D03*
X0201595Y0041563D03*
X0201595Y0049437D03*
X0194595Y0049437D03*
D21*
X0168095Y0025969D02*
X0168095Y0020031D01*
X0158095Y0020031D02*
X0158095Y0025969D01*
X0063095Y0026469D02*
X0063095Y0020531D01*
X0053095Y0020531D02*
X0053095Y0026469D01*
D22*
X0087095Y0023500D03*
X0097095Y0023500D03*
X0107095Y0023500D03*
X0125095Y0023500D03*
X0135095Y0023500D03*
X0145095Y0023500D03*
D23*
X0199595Y0059500D03*
X0209595Y0059500D03*
X0219595Y0059500D03*
X0219595Y0069500D03*
X0209595Y0069500D03*
X0199595Y0069500D03*
X0199595Y0079500D03*
X0209595Y0079500D03*
X0219595Y0079500D03*
X0219595Y0089500D03*
X0209595Y0089500D03*
X0199595Y0089500D03*
X0197139Y0100209D03*
X0187291Y0098473D03*
X0177443Y0096736D03*
X0167595Y0095000D03*
D24*
X0171595Y0081500D03*
X0185595Y0087500D03*
X0162595Y0060500D03*
X0160595Y0049500D03*
X0145095Y0038000D03*
X0137095Y0063500D03*
X0145595Y0075000D03*
X0181095Y0054500D03*
X0185595Y0045000D03*
X0210095Y0042000D03*
X0203595Y0011000D03*
X0087595Y0042000D03*
X0064095Y0079500D03*
X0085595Y0100000D03*
D25*
X0055095Y0097500D03*
M02*
