G75*
%MOIN*%
%OFA0B0*%
%FSLAX25Y25*%
%IPPOS*%
%LPD*%
%AMOC8*
5,1,8,0,0,1.08239X$1,22.5*
%
%ADD10C,0.00300*%
%ADD11C,0.00000*%
%ADD12R,0.05906X0.05118*%
%ADD13R,0.02165X0.04724*%
%ADD14R,0.05118X0.05906*%
%ADD15R,0.07874X0.04724*%
%ADD16R,0.03937X0.03543*%
%ADD17R,0.04724X0.04724*%
%ADD18R,0.08201X0.11000*%
%ADD19R,0.03500X0.01201*%
%ADD20R,0.03150X0.04724*%
%ADD21R,0.05512X0.04331*%
%ADD22C,0.05937*%
%ADD23C,0.06000*%
%ADD24C,0.07400*%
%ADD25C,0.03200*%
%ADD26C,0.02400*%
%ADD27C,0.01600*%
%ADD28C,0.03962*%
%ADD29C,0.02000*%
%ADD30C,0.03765*%
%ADD31C,0.01000*%
%ADD32C,0.00850*%
%ADD33C,0.01200*%
D10*
X0046095Y0004000D02*
X0215386Y0004000D01*
X0215386Y0053000D01*
X0225595Y0053000D01*
X0225595Y0095000D01*
X0215386Y0095000D01*
X0215386Y0134709D01*
X0182095Y0134709D01*
X0182095Y0104000D01*
X0068595Y0104000D01*
X0068595Y0134709D01*
X0046095Y0134709D01*
X0046095Y0004000D01*
D11*
X0071685Y0070929D02*
X0071687Y0071082D01*
X0071693Y0071236D01*
X0071703Y0071389D01*
X0071717Y0071541D01*
X0071735Y0071694D01*
X0071757Y0071845D01*
X0071782Y0071996D01*
X0071812Y0072147D01*
X0071846Y0072297D01*
X0071883Y0072445D01*
X0071924Y0072593D01*
X0071969Y0072739D01*
X0072018Y0072885D01*
X0072071Y0073029D01*
X0072127Y0073171D01*
X0072187Y0073312D01*
X0072251Y0073452D01*
X0072318Y0073590D01*
X0072389Y0073726D01*
X0072464Y0073860D01*
X0072541Y0073992D01*
X0072623Y0074122D01*
X0072707Y0074250D01*
X0072795Y0074376D01*
X0072886Y0074499D01*
X0072980Y0074620D01*
X0073078Y0074738D01*
X0073178Y0074854D01*
X0073282Y0074967D01*
X0073388Y0075078D01*
X0073497Y0075186D01*
X0073609Y0075291D01*
X0073723Y0075392D01*
X0073841Y0075491D01*
X0073960Y0075587D01*
X0074082Y0075680D01*
X0074207Y0075769D01*
X0074334Y0075856D01*
X0074463Y0075938D01*
X0074594Y0076018D01*
X0074727Y0076094D01*
X0074862Y0076167D01*
X0074999Y0076236D01*
X0075138Y0076301D01*
X0075278Y0076363D01*
X0075420Y0076421D01*
X0075563Y0076476D01*
X0075708Y0076527D01*
X0075854Y0076574D01*
X0076001Y0076617D01*
X0076149Y0076656D01*
X0076298Y0076692D01*
X0076448Y0076723D01*
X0076599Y0076751D01*
X0076750Y0076775D01*
X0076903Y0076795D01*
X0077055Y0076811D01*
X0077208Y0076823D01*
X0077361Y0076831D01*
X0077514Y0076835D01*
X0077668Y0076835D01*
X0077821Y0076831D01*
X0077974Y0076823D01*
X0078127Y0076811D01*
X0078279Y0076795D01*
X0078432Y0076775D01*
X0078583Y0076751D01*
X0078734Y0076723D01*
X0078884Y0076692D01*
X0079033Y0076656D01*
X0079181Y0076617D01*
X0079328Y0076574D01*
X0079474Y0076527D01*
X0079619Y0076476D01*
X0079762Y0076421D01*
X0079904Y0076363D01*
X0080044Y0076301D01*
X0080183Y0076236D01*
X0080320Y0076167D01*
X0080455Y0076094D01*
X0080588Y0076018D01*
X0080719Y0075938D01*
X0080848Y0075856D01*
X0080975Y0075769D01*
X0081100Y0075680D01*
X0081222Y0075587D01*
X0081341Y0075491D01*
X0081459Y0075392D01*
X0081573Y0075291D01*
X0081685Y0075186D01*
X0081794Y0075078D01*
X0081900Y0074967D01*
X0082004Y0074854D01*
X0082104Y0074738D01*
X0082202Y0074620D01*
X0082296Y0074499D01*
X0082387Y0074376D01*
X0082475Y0074250D01*
X0082559Y0074122D01*
X0082641Y0073992D01*
X0082718Y0073860D01*
X0082793Y0073726D01*
X0082864Y0073590D01*
X0082931Y0073452D01*
X0082995Y0073312D01*
X0083055Y0073171D01*
X0083111Y0073029D01*
X0083164Y0072885D01*
X0083213Y0072739D01*
X0083258Y0072593D01*
X0083299Y0072445D01*
X0083336Y0072297D01*
X0083370Y0072147D01*
X0083400Y0071996D01*
X0083425Y0071845D01*
X0083447Y0071694D01*
X0083465Y0071541D01*
X0083479Y0071389D01*
X0083489Y0071236D01*
X0083495Y0071082D01*
X0083497Y0070929D01*
X0083495Y0070776D01*
X0083489Y0070622D01*
X0083479Y0070469D01*
X0083465Y0070317D01*
X0083447Y0070164D01*
X0083425Y0070013D01*
X0083400Y0069862D01*
X0083370Y0069711D01*
X0083336Y0069561D01*
X0083299Y0069413D01*
X0083258Y0069265D01*
X0083213Y0069119D01*
X0083164Y0068973D01*
X0083111Y0068829D01*
X0083055Y0068687D01*
X0082995Y0068546D01*
X0082931Y0068406D01*
X0082864Y0068268D01*
X0082793Y0068132D01*
X0082718Y0067998D01*
X0082641Y0067866D01*
X0082559Y0067736D01*
X0082475Y0067608D01*
X0082387Y0067482D01*
X0082296Y0067359D01*
X0082202Y0067238D01*
X0082104Y0067120D01*
X0082004Y0067004D01*
X0081900Y0066891D01*
X0081794Y0066780D01*
X0081685Y0066672D01*
X0081573Y0066567D01*
X0081459Y0066466D01*
X0081341Y0066367D01*
X0081222Y0066271D01*
X0081100Y0066178D01*
X0080975Y0066089D01*
X0080848Y0066002D01*
X0080719Y0065920D01*
X0080588Y0065840D01*
X0080455Y0065764D01*
X0080320Y0065691D01*
X0080183Y0065622D01*
X0080044Y0065557D01*
X0079904Y0065495D01*
X0079762Y0065437D01*
X0079619Y0065382D01*
X0079474Y0065331D01*
X0079328Y0065284D01*
X0079181Y0065241D01*
X0079033Y0065202D01*
X0078884Y0065166D01*
X0078734Y0065135D01*
X0078583Y0065107D01*
X0078432Y0065083D01*
X0078279Y0065063D01*
X0078127Y0065047D01*
X0077974Y0065035D01*
X0077821Y0065027D01*
X0077668Y0065023D01*
X0077514Y0065023D01*
X0077361Y0065027D01*
X0077208Y0065035D01*
X0077055Y0065047D01*
X0076903Y0065063D01*
X0076750Y0065083D01*
X0076599Y0065107D01*
X0076448Y0065135D01*
X0076298Y0065166D01*
X0076149Y0065202D01*
X0076001Y0065241D01*
X0075854Y0065284D01*
X0075708Y0065331D01*
X0075563Y0065382D01*
X0075420Y0065437D01*
X0075278Y0065495D01*
X0075138Y0065557D01*
X0074999Y0065622D01*
X0074862Y0065691D01*
X0074727Y0065764D01*
X0074594Y0065840D01*
X0074463Y0065920D01*
X0074334Y0066002D01*
X0074207Y0066089D01*
X0074082Y0066178D01*
X0073960Y0066271D01*
X0073841Y0066367D01*
X0073723Y0066466D01*
X0073609Y0066567D01*
X0073497Y0066672D01*
X0073388Y0066780D01*
X0073282Y0066891D01*
X0073178Y0067004D01*
X0073078Y0067120D01*
X0072980Y0067238D01*
X0072886Y0067359D01*
X0072795Y0067482D01*
X0072707Y0067608D01*
X0072623Y0067736D01*
X0072541Y0067866D01*
X0072464Y0067998D01*
X0072389Y0068132D01*
X0072318Y0068268D01*
X0072251Y0068406D01*
X0072187Y0068546D01*
X0072127Y0068687D01*
X0072071Y0068829D01*
X0072018Y0068973D01*
X0071969Y0069119D01*
X0071924Y0069265D01*
X0071883Y0069413D01*
X0071846Y0069561D01*
X0071812Y0069711D01*
X0071782Y0069862D01*
X0071757Y0070013D01*
X0071735Y0070164D01*
X0071717Y0070317D01*
X0071703Y0070469D01*
X0071693Y0070622D01*
X0071687Y0070776D01*
X0071685Y0070929D01*
X0193732Y0115024D02*
X0193734Y0115177D01*
X0193740Y0115331D01*
X0193750Y0115484D01*
X0193764Y0115636D01*
X0193782Y0115789D01*
X0193804Y0115940D01*
X0193829Y0116091D01*
X0193859Y0116242D01*
X0193893Y0116392D01*
X0193930Y0116540D01*
X0193971Y0116688D01*
X0194016Y0116834D01*
X0194065Y0116980D01*
X0194118Y0117124D01*
X0194174Y0117266D01*
X0194234Y0117407D01*
X0194298Y0117547D01*
X0194365Y0117685D01*
X0194436Y0117821D01*
X0194511Y0117955D01*
X0194588Y0118087D01*
X0194670Y0118217D01*
X0194754Y0118345D01*
X0194842Y0118471D01*
X0194933Y0118594D01*
X0195027Y0118715D01*
X0195125Y0118833D01*
X0195225Y0118949D01*
X0195329Y0119062D01*
X0195435Y0119173D01*
X0195544Y0119281D01*
X0195656Y0119386D01*
X0195770Y0119487D01*
X0195888Y0119586D01*
X0196007Y0119682D01*
X0196129Y0119775D01*
X0196254Y0119864D01*
X0196381Y0119951D01*
X0196510Y0120033D01*
X0196641Y0120113D01*
X0196774Y0120189D01*
X0196909Y0120262D01*
X0197046Y0120331D01*
X0197185Y0120396D01*
X0197325Y0120458D01*
X0197467Y0120516D01*
X0197610Y0120571D01*
X0197755Y0120622D01*
X0197901Y0120669D01*
X0198048Y0120712D01*
X0198196Y0120751D01*
X0198345Y0120787D01*
X0198495Y0120818D01*
X0198646Y0120846D01*
X0198797Y0120870D01*
X0198950Y0120890D01*
X0199102Y0120906D01*
X0199255Y0120918D01*
X0199408Y0120926D01*
X0199561Y0120930D01*
X0199715Y0120930D01*
X0199868Y0120926D01*
X0200021Y0120918D01*
X0200174Y0120906D01*
X0200326Y0120890D01*
X0200479Y0120870D01*
X0200630Y0120846D01*
X0200781Y0120818D01*
X0200931Y0120787D01*
X0201080Y0120751D01*
X0201228Y0120712D01*
X0201375Y0120669D01*
X0201521Y0120622D01*
X0201666Y0120571D01*
X0201809Y0120516D01*
X0201951Y0120458D01*
X0202091Y0120396D01*
X0202230Y0120331D01*
X0202367Y0120262D01*
X0202502Y0120189D01*
X0202635Y0120113D01*
X0202766Y0120033D01*
X0202895Y0119951D01*
X0203022Y0119864D01*
X0203147Y0119775D01*
X0203269Y0119682D01*
X0203388Y0119586D01*
X0203506Y0119487D01*
X0203620Y0119386D01*
X0203732Y0119281D01*
X0203841Y0119173D01*
X0203947Y0119062D01*
X0204051Y0118949D01*
X0204151Y0118833D01*
X0204249Y0118715D01*
X0204343Y0118594D01*
X0204434Y0118471D01*
X0204522Y0118345D01*
X0204606Y0118217D01*
X0204688Y0118087D01*
X0204765Y0117955D01*
X0204840Y0117821D01*
X0204911Y0117685D01*
X0204978Y0117547D01*
X0205042Y0117407D01*
X0205102Y0117266D01*
X0205158Y0117124D01*
X0205211Y0116980D01*
X0205260Y0116834D01*
X0205305Y0116688D01*
X0205346Y0116540D01*
X0205383Y0116392D01*
X0205417Y0116242D01*
X0205447Y0116091D01*
X0205472Y0115940D01*
X0205494Y0115789D01*
X0205512Y0115636D01*
X0205526Y0115484D01*
X0205536Y0115331D01*
X0205542Y0115177D01*
X0205544Y0115024D01*
X0205542Y0114871D01*
X0205536Y0114717D01*
X0205526Y0114564D01*
X0205512Y0114412D01*
X0205494Y0114259D01*
X0205472Y0114108D01*
X0205447Y0113957D01*
X0205417Y0113806D01*
X0205383Y0113656D01*
X0205346Y0113508D01*
X0205305Y0113360D01*
X0205260Y0113214D01*
X0205211Y0113068D01*
X0205158Y0112924D01*
X0205102Y0112782D01*
X0205042Y0112641D01*
X0204978Y0112501D01*
X0204911Y0112363D01*
X0204840Y0112227D01*
X0204765Y0112093D01*
X0204688Y0111961D01*
X0204606Y0111831D01*
X0204522Y0111703D01*
X0204434Y0111577D01*
X0204343Y0111454D01*
X0204249Y0111333D01*
X0204151Y0111215D01*
X0204051Y0111099D01*
X0203947Y0110986D01*
X0203841Y0110875D01*
X0203732Y0110767D01*
X0203620Y0110662D01*
X0203506Y0110561D01*
X0203388Y0110462D01*
X0203269Y0110366D01*
X0203147Y0110273D01*
X0203022Y0110184D01*
X0202895Y0110097D01*
X0202766Y0110015D01*
X0202635Y0109935D01*
X0202502Y0109859D01*
X0202367Y0109786D01*
X0202230Y0109717D01*
X0202091Y0109652D01*
X0201951Y0109590D01*
X0201809Y0109532D01*
X0201666Y0109477D01*
X0201521Y0109426D01*
X0201375Y0109379D01*
X0201228Y0109336D01*
X0201080Y0109297D01*
X0200931Y0109261D01*
X0200781Y0109230D01*
X0200630Y0109202D01*
X0200479Y0109178D01*
X0200326Y0109158D01*
X0200174Y0109142D01*
X0200021Y0109130D01*
X0199868Y0109122D01*
X0199715Y0109118D01*
X0199561Y0109118D01*
X0199408Y0109122D01*
X0199255Y0109130D01*
X0199102Y0109142D01*
X0198950Y0109158D01*
X0198797Y0109178D01*
X0198646Y0109202D01*
X0198495Y0109230D01*
X0198345Y0109261D01*
X0198196Y0109297D01*
X0198048Y0109336D01*
X0197901Y0109379D01*
X0197755Y0109426D01*
X0197610Y0109477D01*
X0197467Y0109532D01*
X0197325Y0109590D01*
X0197185Y0109652D01*
X0197046Y0109717D01*
X0196909Y0109786D01*
X0196774Y0109859D01*
X0196641Y0109935D01*
X0196510Y0110015D01*
X0196381Y0110097D01*
X0196254Y0110184D01*
X0196129Y0110273D01*
X0196007Y0110366D01*
X0195888Y0110462D01*
X0195770Y0110561D01*
X0195656Y0110662D01*
X0195544Y0110767D01*
X0195435Y0110875D01*
X0195329Y0110986D01*
X0195225Y0111099D01*
X0195125Y0111215D01*
X0195027Y0111333D01*
X0194933Y0111454D01*
X0194842Y0111577D01*
X0194754Y0111703D01*
X0194670Y0111831D01*
X0194588Y0111961D01*
X0194511Y0112093D01*
X0194436Y0112227D01*
X0194365Y0112363D01*
X0194298Y0112501D01*
X0194234Y0112641D01*
X0194174Y0112782D01*
X0194118Y0112924D01*
X0194065Y0113068D01*
X0194016Y0113214D01*
X0193971Y0113360D01*
X0193930Y0113508D01*
X0193893Y0113656D01*
X0193859Y0113806D01*
X0193829Y0113957D01*
X0193804Y0114108D01*
X0193782Y0114259D01*
X0193764Y0114412D01*
X0193750Y0114564D01*
X0193740Y0114717D01*
X0193734Y0114871D01*
X0193732Y0115024D01*
D12*
X0080095Y0091740D03*
X0080095Y0084260D03*
X0069595Y0085760D03*
X0069595Y0093240D03*
X0055095Y0091740D03*
X0055095Y0084260D03*
X0059095Y0074740D03*
X0059095Y0067260D03*
D13*
X0057355Y0059619D03*
X0064835Y0059619D03*
X0064835Y0049381D03*
X0061095Y0049381D03*
X0057355Y0049381D03*
D14*
X0059335Y0042000D03*
X0051855Y0042000D03*
X0163855Y0043500D03*
X0171335Y0043500D03*
X0174335Y0053000D03*
X0166855Y0053000D03*
X0163855Y0067500D03*
X0171335Y0067500D03*
D15*
X0153623Y0068720D03*
X0153623Y0060846D03*
X0153623Y0052972D03*
X0153623Y0045098D03*
X0153623Y0076594D03*
X0153623Y0084469D03*
X0153623Y0092343D03*
X0153623Y0100217D03*
X0094568Y0100217D03*
X0094568Y0092343D03*
X0094568Y0084469D03*
X0094568Y0076594D03*
X0094568Y0068720D03*
X0094568Y0060846D03*
X0094568Y0052972D03*
X0094568Y0045098D03*
D16*
X0061745Y0103929D03*
X0055446Y0103929D03*
X0055446Y0120071D03*
X0061745Y0120071D03*
X0182446Y0082571D03*
X0188745Y0082571D03*
X0188745Y0066429D03*
X0182446Y0066429D03*
D17*
X0179729Y0060500D03*
X0171461Y0060500D03*
D18*
X0188595Y0018500D03*
D19*
X0196900Y0018500D03*
X0196900Y0016531D03*
X0196900Y0014563D03*
X0196900Y0020469D03*
X0196900Y0022437D03*
X0180290Y0022437D03*
X0180290Y0020469D03*
X0180290Y0018500D03*
X0180290Y0016531D03*
X0180290Y0014563D03*
D20*
X0180052Y0032000D03*
X0187138Y0032000D03*
D21*
X0194595Y0041563D03*
X0201595Y0041563D03*
X0201595Y0049437D03*
X0194595Y0049437D03*
D22*
X0168095Y0025969D02*
X0168095Y0020031D01*
X0158095Y0020031D02*
X0158095Y0025969D01*
X0063095Y0026469D02*
X0063095Y0020531D01*
X0053095Y0020531D02*
X0053095Y0026469D01*
D23*
X0087095Y0023500D03*
X0097095Y0023500D03*
X0107095Y0023500D03*
X0125095Y0023500D03*
X0135095Y0023500D03*
X0145095Y0023500D03*
D24*
X0199595Y0059500D03*
X0209595Y0059500D03*
X0219595Y0059500D03*
X0219595Y0069500D03*
X0209595Y0069500D03*
X0199595Y0069500D03*
X0199595Y0079500D03*
X0209595Y0079500D03*
X0219595Y0079500D03*
X0219595Y0089500D03*
X0209595Y0089500D03*
X0199595Y0089500D03*
X0197139Y0100209D03*
X0187291Y0098473D03*
X0177443Y0096736D03*
X0167595Y0095000D03*
D25*
X0187138Y0032000D02*
X0188595Y0030543D01*
X0188595Y0018500D01*
X0063095Y0023500D02*
X0059335Y0027260D01*
X0059335Y0042000D01*
X0051855Y0042000D02*
X0051855Y0041500D01*
X0051855Y0024740D01*
X0053095Y0023500D01*
D26*
X0053095Y0010500D01*
X0122095Y0010500D01*
X0171048Y0010500D01*
X0176791Y0016243D01*
X0173590Y0018500D02*
X0173590Y0019500D01*
X0176540Y0019500D01*
X0173590Y0018500D02*
X0170153Y0015063D01*
X0166037Y0015063D01*
X0158100Y0023000D01*
X0158095Y0023000D01*
X0168095Y0023000D02*
X0177643Y0023000D01*
X0177712Y0023069D01*
X0180290Y0023069D01*
X0182775Y0025109D02*
X0180052Y0027833D01*
X0180052Y0032000D01*
X0180490Y0013931D02*
X0180922Y0013931D01*
X0185526Y0013931D01*
X0186595Y0015000D01*
X0185353Y0009500D02*
X0180922Y0013931D01*
X0185353Y0009500D02*
X0203595Y0011000D01*
X0162296Y0049219D02*
X0162296Y0050299D01*
X0160095Y0052500D01*
X0154095Y0052500D01*
X0153623Y0052972D01*
X0162095Y0061000D02*
X0162595Y0060500D01*
X0166855Y0056240D01*
X0166855Y0053000D01*
X0171461Y0060500D02*
X0171461Y0067374D01*
X0171335Y0067500D01*
X0166776Y0070681D02*
X0163725Y0067630D01*
X0162635Y0068720D01*
X0153623Y0068720D01*
X0153776Y0061000D02*
X0153623Y0060846D01*
X0153776Y0061000D02*
X0162095Y0061000D01*
X0163855Y0067500D02*
X0163725Y0067630D01*
X0166776Y0070681D02*
X0166776Y0071281D01*
X0167948Y0072453D01*
X0174723Y0072453D01*
X0180746Y0066429D01*
X0182446Y0066429D01*
X0188745Y0066429D02*
X0191795Y0063379D01*
X0194295Y0063379D01*
X0194595Y0049437D02*
X0201595Y0049437D01*
X0188448Y0082571D02*
X0188448Y0083647D01*
X0185595Y0087500D01*
X0162595Y0100500D02*
X0153906Y0100500D01*
X0153623Y0100217D01*
X0153623Y0092343D02*
X0153965Y0092000D01*
X0137095Y0063500D02*
X0145095Y0038000D01*
X0135095Y0023500D02*
X0122095Y0010500D01*
X0109166Y0018500D02*
X0114166Y0023500D01*
X0125095Y0023500D01*
X0109166Y0018500D02*
X0105024Y0018500D01*
X0100024Y0023500D01*
X0097095Y0023500D01*
X0094166Y0023500D01*
X0089166Y0018500D01*
X0085024Y0018500D01*
X0080024Y0023500D01*
X0063095Y0023500D01*
X0059335Y0042000D02*
X0061095Y0043760D01*
X0061095Y0049381D01*
X0057895Y0049922D02*
X0057895Y0052455D01*
X0059184Y0053744D01*
X0063006Y0053744D01*
X0064295Y0052455D01*
X0064295Y0049922D01*
X0064835Y0049381D01*
X0057895Y0049922D02*
X0057355Y0049381D01*
X0057355Y0059619D02*
X0057355Y0065520D01*
X0059095Y0067260D01*
X0059095Y0074740D02*
X0059335Y0074740D01*
X0064095Y0079500D01*
X0087095Y0078635D02*
X0088595Y0077135D01*
X0088595Y0044000D01*
X0088595Y0042500D01*
X0087595Y0042000D02*
X0091469Y0042000D01*
X0094568Y0045098D01*
X0094568Y0100217D02*
X0085812Y0100217D01*
X0085595Y0100000D01*
D27*
X0080095Y0091740D02*
X0093965Y0091740D01*
X0094568Y0092343D01*
X0094070Y0084966D02*
X0094568Y0084469D01*
X0090656Y0080557D01*
X0089968Y0080557D01*
X0088046Y0078635D01*
X0087095Y0078635D01*
X0074399Y0078635D01*
X0066346Y0070581D01*
X0062416Y0070581D01*
X0059095Y0067260D01*
X0055774Y0070581D01*
X0055480Y0070581D01*
X0054542Y0071518D01*
X0054542Y0077962D01*
X0055095Y0078515D01*
X0055095Y0084260D01*
X0059095Y0080485D02*
X0059648Y0081038D01*
X0059648Y0101832D01*
X0061745Y0103929D01*
X0061745Y0120071D01*
X0055446Y0120071D02*
X0055446Y0103929D01*
X0055446Y0099429D01*
X0055095Y0099079D01*
X0055095Y0097500D01*
X0055095Y0091740D01*
X0059095Y0080485D02*
X0059095Y0074740D01*
X0067111Y0074740D01*
X0073405Y0081035D01*
X0076870Y0081035D01*
X0080095Y0084260D01*
X0094568Y0076594D02*
X0095162Y0076000D01*
X0119095Y0076000D01*
X0119095Y0057500D01*
X0145595Y0031000D01*
X0174595Y0031000D01*
X0176877Y0033282D01*
X0176877Y0035025D01*
X0177814Y0035962D01*
X0189376Y0035962D01*
X0194296Y0031043D01*
X0194296Y0024445D01*
X0196900Y0026467D02*
X0196900Y0039640D01*
X0194884Y0041656D01*
X0194595Y0041563D02*
X0190805Y0041563D01*
X0190342Y0041100D01*
X0176710Y0041100D01*
X0172157Y0036547D01*
X0153612Y0036547D01*
X0148086Y0042073D01*
X0141086Y0077119D01*
X0149023Y0080557D01*
X0149711Y0080557D01*
X0153623Y0084469D01*
X0160168Y0084469D01*
X0169118Y0075519D01*
X0174073Y0075519D01*
X0177576Y0079023D01*
X0177576Y0084546D01*
X0184112Y0091081D01*
X0187078Y0091081D01*
X0189176Y0088983D01*
X0191428Y0085943D01*
X0193153Y0085943D01*
X0199595Y0079500D01*
X0188745Y0082571D02*
X0188448Y0082571D01*
X0188745Y0082571D02*
X0188745Y0066429D01*
X0194295Y0063379D02*
X0194295Y0061000D01*
X0195795Y0059500D01*
X0199595Y0059500D01*
X0199098Y0054200D02*
X0197400Y0054200D01*
X0194295Y0057305D01*
X0194295Y0061000D01*
X0199098Y0054200D02*
X0200095Y0053202D01*
X0205014Y0053202D01*
X0205951Y0052265D01*
X0205951Y0046609D01*
X0205014Y0045672D01*
X0191520Y0045672D01*
X0189348Y0043500D01*
X0187848Y0045000D01*
X0185595Y0045000D01*
X0189348Y0043500D02*
X0171335Y0043500D01*
X0168014Y0040179D01*
X0168014Y0039884D01*
X0167077Y0038947D01*
X0159774Y0038947D01*
X0153623Y0045098D01*
X0174335Y0053000D02*
X0181095Y0054500D01*
X0179729Y0058394D02*
X0179729Y0060500D01*
X0183532Y0060500D01*
X0194595Y0049437D01*
X0205169Y0041637D02*
X0208751Y0041637D01*
X0179729Y0058394D02*
X0174335Y0053000D01*
X0182446Y0066429D02*
X0182446Y0082571D01*
X0175176Y0080017D02*
X0175176Y0086000D01*
X0187291Y0098115D01*
X0187291Y0098473D01*
X0167595Y0095000D02*
X0167595Y0085500D01*
X0170112Y0077919D02*
X0156031Y0092000D01*
X0153965Y0092000D01*
X0170112Y0077919D02*
X0173078Y0077919D01*
X0175176Y0080017D01*
X0145095Y0023500D02*
X0109495Y0059100D01*
X0109495Y0061841D01*
X0102615Y0068720D01*
X0094568Y0068720D01*
X0094568Y0060846D02*
X0107095Y0060846D01*
X0107095Y0023500D01*
X0103595Y0040000D02*
X0103595Y0053000D01*
X0103568Y0052972D01*
X0094568Y0052972D01*
X0103595Y0040000D02*
X0087095Y0023500D01*
D28*
X0087595Y0042000D03*
X0064095Y0079500D03*
X0085595Y0100000D03*
X0137095Y0063500D03*
X0145595Y0075000D03*
X0162595Y0060500D03*
X0160595Y0049500D03*
X0145095Y0038000D03*
X0181095Y0054500D03*
X0185595Y0045000D03*
X0210095Y0042000D03*
X0203595Y0011000D03*
X0171595Y0081500D03*
X0185595Y0087500D03*
D29*
X0177443Y0096736D02*
X0174180Y0100500D01*
X0170043Y0100500D01*
X0168884Y0101312D01*
X0164396Y0100521D01*
X0164382Y0100500D01*
X0162595Y0100500D01*
X0167595Y0085500D02*
X0171595Y0081500D01*
X0153623Y0076594D02*
X0149690Y0076594D01*
X0145595Y0075000D01*
X0160595Y0049500D02*
X0161497Y0049500D01*
X0162296Y0050299D01*
X0162296Y0049219D02*
X0163855Y0047660D01*
X0163855Y0043500D01*
X0185095Y0043700D02*
X0185095Y0044500D01*
X0185595Y0045000D01*
X0194595Y0041563D02*
X0194791Y0041563D01*
X0194884Y0041656D01*
X0201595Y0041563D02*
X0201669Y0041637D01*
X0205169Y0041637D01*
X0180290Y0023069D02*
X0180290Y0022869D01*
X0176817Y0016500D02*
X0176627Y0016500D01*
X0176627Y0016407D01*
X0176791Y0016243D01*
X0180290Y0014131D02*
X0184226Y0014131D01*
X0188595Y0018500D01*
X0186595Y0016500D01*
X0186595Y0015000D01*
X0088595Y0044000D02*
X0087595Y0043000D01*
X0087595Y0042000D01*
X0057355Y0048077D02*
X0054976Y0045698D01*
X0054976Y0045121D01*
X0051855Y0042000D01*
X0051855Y0041500D02*
X0048245Y0045110D01*
X0048245Y0119156D01*
X0051677Y0122588D01*
X0052731Y0123643D01*
X0064459Y0123643D01*
X0065513Y0122588D01*
X0065513Y0101412D01*
X0062248Y0098147D01*
X0062248Y0085760D01*
X0069595Y0085760D01*
X0071095Y0091740D02*
X0080095Y0091740D01*
X0071095Y0091740D02*
X0069595Y0093240D01*
X0057355Y0049381D02*
X0057355Y0048077D01*
D30*
X0055095Y0097500D03*
D31*
X0176540Y0019500D02*
X0177070Y0019500D01*
X0178002Y0018568D01*
X0180222Y0018568D01*
X0180290Y0018500D01*
X0180290Y0016531D02*
X0176627Y0016531D01*
X0176595Y0016500D01*
X0196900Y0014563D02*
X0196968Y0014631D01*
X0196900Y0020469D02*
X0200564Y0020469D01*
X0200595Y0020500D01*
X0203649Y0030387D02*
X0204762Y0031500D01*
D32*
X0194296Y0024445D02*
X0194296Y0023915D01*
X0193925Y0023545D01*
X0193925Y0015424D01*
X0194643Y0014706D01*
X0196757Y0014706D01*
X0196900Y0014563D01*
X0183265Y0021329D02*
X0182547Y0020612D01*
X0180433Y0020612D01*
X0180290Y0020469D01*
X0183265Y0021329D02*
X0183265Y0024619D01*
X0182775Y0025109D01*
D33*
X0196900Y0026467D02*
X0196900Y0022437D01*
X0200595Y0020500D02*
X0200595Y0027333D01*
X0203649Y0030387D01*
X0204762Y0031500D02*
X0208751Y0035489D01*
X0208751Y0041637D01*
X0210095Y0041637D01*
X0210095Y0042000D01*
M02*
