G75*
%MOIN*%
%OFA0B0*%
%FSLAX25Y25*%
%IPPOS*%
%LPD*%
%AMOC8*
5,1,8,0,0,1.08239X$1,22.5*
%
%ADD10C,0.12211*%
%ADD11C,0.06337*%
%ADD12C,0.06400*%
%ADD13C,0.07800*%
%ADD14C,0.04362*%
%ADD15C,0.04165*%
D10*
X0077591Y0070929D03*
X0199638Y0115024D03*
D11*
X0053095Y0026469D02*
X0053095Y0020531D01*
X0063095Y0020531D02*
X0063095Y0026469D01*
X0158095Y0025969D02*
X0158095Y0020031D01*
X0168095Y0020031D02*
X0168095Y0025969D01*
D12*
X0145095Y0023500D03*
X0135095Y0023500D03*
X0125095Y0023500D03*
X0107095Y0023500D03*
X0097095Y0023500D03*
X0087095Y0023500D03*
D13*
X0167595Y0095000D03*
X0177443Y0096736D03*
X0187291Y0098473D03*
X0197139Y0100209D03*
X0199595Y0089500D03*
X0209595Y0089500D03*
X0219595Y0089500D03*
X0219595Y0079500D03*
X0209595Y0079500D03*
X0199595Y0079500D03*
X0199595Y0069500D03*
X0209595Y0069500D03*
X0219595Y0069500D03*
X0219595Y0059500D03*
X0209595Y0059500D03*
X0199595Y0059500D03*
D14*
X0185595Y0045000D03*
X0181095Y0054500D03*
X0162595Y0060500D03*
X0160595Y0049500D03*
X0145095Y0038000D03*
X0137095Y0063500D03*
X0145595Y0075000D03*
X0171595Y0081500D03*
X0185595Y0087500D03*
X0210095Y0042000D03*
X0203595Y0011000D03*
X0087595Y0042000D03*
X0064095Y0079500D03*
X0085595Y0100000D03*
D15*
X0055095Y0097500D03*
M02*
