G75*
%MOIN*%
%OFA0B0*%
%FSLAX25Y25*%
%IPPOS*%
%LPD*%
%AMOC8*
5,1,8,0,0,1.08239X$1,22.5*
%
%ADD10C,0.05937*%
%ADD11C,0.06000*%
%ADD12C,0.07400*%
%ADD13C,0.03962*%
%ADD14C,0.02400*%
%ADD15C,0.02000*%
%ADD16C,0.01600*%
%ADD17C,0.01200*%
%ADD18C,0.03765*%
D10*
X0053095Y0020531D02*
X0053095Y0026469D01*
X0063095Y0026469D02*
X0063095Y0020531D01*
X0158095Y0020031D02*
X0158095Y0025969D01*
X0168095Y0025969D02*
X0168095Y0020031D01*
D11*
X0145095Y0023500D03*
X0135095Y0023500D03*
X0125095Y0023500D03*
X0107095Y0023500D03*
X0097095Y0023500D03*
X0087095Y0023500D03*
D12*
X0167595Y0095000D03*
X0177443Y0096736D03*
X0187291Y0098473D03*
X0197139Y0100209D03*
X0199595Y0089500D03*
X0209595Y0089500D03*
X0219595Y0089500D03*
X0219595Y0079500D03*
X0209595Y0079500D03*
X0199595Y0079500D03*
X0199595Y0069500D03*
X0209595Y0069500D03*
X0219595Y0069500D03*
X0219595Y0059500D03*
X0209595Y0059500D03*
X0199595Y0059500D03*
D13*
X0185595Y0045000D03*
X0181095Y0054500D03*
X0162595Y0060500D03*
X0160595Y0049500D03*
X0145095Y0038000D03*
X0137095Y0063500D03*
X0145595Y0075000D03*
X0171595Y0081500D03*
X0185595Y0087500D03*
X0210095Y0042000D03*
X0203595Y0011000D03*
X0087595Y0042000D03*
X0064095Y0079500D03*
X0085595Y0100000D03*
D14*
X0083095Y0097500D01*
X0055095Y0097500D01*
X0064095Y0079500D02*
X0064095Y0024500D01*
X0063095Y0023500D01*
X0090095Y0043500D02*
X0097095Y0050500D01*
X0125095Y0023500D02*
X0139095Y0009500D01*
X0203595Y0011000D01*
X0210095Y0042000D02*
X0201595Y0050500D01*
X0188595Y0050500D01*
X0187076Y0048981D01*
X0183946Y0048981D01*
X0180465Y0045500D01*
X0145095Y0038000D01*
X0137095Y0063500D02*
X0145595Y0075000D01*
X0185595Y0087500D02*
X0189534Y0087500D01*
X0199595Y0079500D02*
X0209595Y0079500D01*
X0219595Y0079500D01*
X0219595Y0069500D02*
X0209595Y0069500D01*
X0199595Y0069500D01*
X0187595Y0069500D01*
X0187095Y0069000D01*
X0187095Y0052000D01*
X0188595Y0050500D01*
X0199595Y0059500D02*
X0209595Y0059500D01*
X0219595Y0059500D01*
D15*
X0194095Y0086000D02*
X0192095Y0084000D01*
X0187603Y0084160D01*
X0187161Y0083719D01*
X0184029Y0083719D01*
X0180286Y0087462D01*
X0174155Y0087681D01*
X0169035Y0087681D01*
X0166276Y0084922D01*
X0164095Y0085000D01*
X0161761Y0064281D01*
X0161029Y0064281D01*
X0158814Y0062066D01*
X0158814Y0058934D01*
X0160921Y0056827D01*
X0160595Y0049500D01*
X0156095Y0044500D02*
X0175132Y0048537D01*
X0181095Y0054500D01*
X0181095Y0072000D01*
X0171595Y0081500D01*
X0194095Y0086000D02*
X0194095Y0091778D01*
X0201873Y0095000D02*
X0207373Y0089500D01*
X0209595Y0089500D01*
X0185595Y0045000D02*
X0185595Y0044000D01*
X0186595Y0043000D01*
X0203595Y0011000D01*
X0156095Y0044500D02*
X0150095Y0050500D01*
X0097095Y0050500D01*
X0090095Y0043500D02*
X0088595Y0042000D01*
X0087595Y0042000D01*
X0053383Y0023500D02*
X0053095Y0023500D01*
D16*
X0162595Y0060500D02*
X0168014Y0065919D01*
X0168014Y0082983D01*
X0170112Y0085081D01*
X0173078Y0085081D01*
X0185660Y0072500D01*
X0195095Y0072500D01*
X0195095Y0076505D01*
X0194295Y0077305D01*
X0194295Y0081695D01*
X0199595Y0086995D01*
X0199595Y0089500D01*
X0194378Y0091778D02*
X0197400Y0094800D01*
X0201673Y0094800D01*
X0201873Y0095000D01*
X0197139Y0098499D02*
X0197139Y0100209D01*
X0197139Y0098499D02*
X0191495Y0092855D01*
X0191495Y0089461D01*
X0189534Y0087500D01*
X0194095Y0091778D02*
X0194378Y0091778D01*
X0205095Y0102534D02*
X0214579Y0093050D01*
X0216045Y0093050D01*
X0219595Y0089500D01*
X0205095Y0102534D02*
X0205095Y0104000D01*
X0201680Y0104000D01*
X0198381Y0106310D01*
X0194057Y0105548D01*
X0192973Y0104000D01*
X0189352Y0104000D01*
X0188533Y0104574D01*
X0185586Y0104054D01*
D17*
X0184624Y0104054D01*
X0182820Y0102250D01*
X0174845Y0102250D01*
X0167595Y0095000D01*
D18*
X0055095Y0097500D03*
M02*
