G75*
%MOIN*%
%OFA0B0*%
%FSLAX25Y25*%
%IPPOS*%
%LPD*%
%AMOC8*
5,1,8,0,0,1.08239X$1,22.5*
%
%ADD10C,0.00200*%
%ADD11C,0.01200*%
%ADD12C,0.00800*%
%ADD13C,0.00500*%
%ADD14C,0.00600*%
%ADD15R,0.00750X0.03500*%
%ADD16R,0.05512X0.02559*%
%ADD17C,0.01000*%
%ADD18R,0.01575X0.01575*%
D10*
X0050195Y0017467D02*
X0051296Y0017467D01*
X0051663Y0017834D01*
X0051663Y0018201D01*
X0051296Y0018568D01*
X0050195Y0018568D01*
X0050195Y0019669D02*
X0051296Y0019669D01*
X0051663Y0019302D01*
X0051663Y0018935D01*
X0051296Y0018568D01*
X0052405Y0018568D02*
X0053873Y0018568D01*
X0053873Y0018935D02*
X0053873Y0017467D01*
X0053873Y0018935D02*
X0053139Y0019669D01*
X0052405Y0018935D01*
X0052405Y0017467D01*
X0050195Y0017467D02*
X0050195Y0019669D01*
X0054615Y0019669D02*
X0056083Y0019669D01*
X0055349Y0019669D02*
X0055349Y0017467D01*
X0062195Y0017834D02*
X0062562Y0017467D01*
X0063296Y0017467D01*
X0063663Y0017834D01*
X0063663Y0018568D01*
X0062929Y0018568D01*
X0062195Y0019302D02*
X0062195Y0017834D01*
X0062195Y0019302D02*
X0062562Y0019669D01*
X0063296Y0019669D01*
X0063663Y0019302D01*
X0064405Y0019669D02*
X0065873Y0017467D01*
X0065873Y0019669D01*
X0066615Y0019669D02*
X0067716Y0019669D01*
X0068083Y0019302D01*
X0068083Y0017834D01*
X0067716Y0017467D01*
X0066615Y0017467D01*
X0066615Y0019669D01*
X0064405Y0019669D02*
X0064405Y0017467D01*
X0094695Y0039967D02*
X0096163Y0041435D01*
X0096163Y0041802D01*
X0095796Y0042169D01*
X0095062Y0042169D01*
X0094695Y0041802D01*
X0095062Y0043567D02*
X0095796Y0043567D01*
X0096163Y0043934D01*
X0096905Y0043567D02*
X0096905Y0045769D01*
X0097272Y0045035D02*
X0098006Y0045035D01*
X0098373Y0044668D01*
X0098373Y0043567D01*
X0099115Y0043934D02*
X0099482Y0044301D01*
X0100583Y0044301D01*
X0100583Y0044668D02*
X0100583Y0043567D01*
X0099482Y0043567D01*
X0099115Y0043934D01*
X0099482Y0045035D02*
X0100216Y0045035D01*
X0100583Y0044668D01*
X0101325Y0045035D02*
X0101325Y0043567D01*
X0101325Y0044301D02*
X0102059Y0045035D01*
X0102426Y0045035D01*
X0103166Y0045769D02*
X0103533Y0045769D01*
X0103533Y0043567D01*
X0103166Y0043567D02*
X0103900Y0043567D01*
X0104640Y0043934D02*
X0104640Y0044668D01*
X0105007Y0045035D01*
X0105741Y0045035D01*
X0106108Y0044668D01*
X0106108Y0044301D01*
X0104640Y0044301D01*
X0104640Y0043934D02*
X0105007Y0043567D01*
X0105741Y0043567D01*
X0106849Y0043567D02*
X0107950Y0043567D01*
X0108317Y0043934D01*
X0107950Y0044301D01*
X0107216Y0044301D01*
X0106849Y0044668D01*
X0107216Y0045035D01*
X0108317Y0045035D01*
X0106110Y0047167D02*
X0105743Y0047534D01*
X0105743Y0049002D01*
X0105376Y0048635D02*
X0106110Y0048635D01*
X0104634Y0048268D02*
X0104634Y0047901D01*
X0103166Y0047901D01*
X0103166Y0047534D02*
X0103166Y0048268D01*
X0103533Y0048635D01*
X0104267Y0048635D01*
X0104634Y0048268D01*
X0104267Y0047167D02*
X0103533Y0047167D01*
X0103166Y0047534D01*
X0102424Y0047167D02*
X0102424Y0049369D01*
X0100956Y0049369D02*
X0100956Y0047167D01*
X0102424Y0047167D02*
X0100956Y0049369D01*
X0100216Y0048635D02*
X0099849Y0048635D01*
X0099115Y0047901D01*
X0099115Y0047167D02*
X0099115Y0048635D01*
X0098373Y0048268D02*
X0098373Y0047167D01*
X0097272Y0047167D01*
X0096905Y0047534D01*
X0097272Y0047901D01*
X0098373Y0047901D01*
X0098373Y0048268D02*
X0098006Y0048635D01*
X0097272Y0048635D01*
X0096163Y0049002D02*
X0095796Y0049369D01*
X0095062Y0049369D01*
X0094695Y0049002D01*
X0094695Y0047534D01*
X0095062Y0047167D01*
X0095796Y0047167D01*
X0096163Y0047534D01*
X0095796Y0045769D02*
X0095062Y0045769D01*
X0094695Y0045402D01*
X0094695Y0043934D01*
X0095062Y0043567D01*
X0096163Y0045402D02*
X0095796Y0045769D01*
X0096905Y0044668D02*
X0097272Y0045035D01*
X0097272Y0042169D02*
X0098006Y0042169D01*
X0098373Y0041802D01*
X0096905Y0040334D01*
X0097272Y0039967D01*
X0098006Y0039967D01*
X0098373Y0040334D01*
X0098373Y0041802D01*
X0099115Y0041435D02*
X0099849Y0042169D01*
X0099849Y0039967D01*
X0099115Y0039967D02*
X0100583Y0039967D01*
X0101325Y0040334D02*
X0101692Y0039967D01*
X0102426Y0039967D01*
X0102793Y0040334D01*
X0102793Y0040701D01*
X0102426Y0041068D01*
X0101692Y0041068D01*
X0101325Y0041435D01*
X0101325Y0041802D01*
X0101692Y0042169D01*
X0102426Y0042169D01*
X0102793Y0041802D01*
X0102793Y0041435D01*
X0102426Y0041068D01*
X0101692Y0041068D02*
X0101325Y0040701D01*
X0101325Y0040334D01*
X0096905Y0040334D02*
X0096905Y0041802D01*
X0097272Y0042169D01*
X0096163Y0039967D02*
X0094695Y0039967D01*
X0099195Y0026669D02*
X0100296Y0026669D01*
X0100663Y0026302D01*
X0100663Y0025568D01*
X0100296Y0025201D01*
X0099195Y0025201D01*
X0099195Y0024467D02*
X0099195Y0026669D01*
X0101405Y0026669D02*
X0101405Y0024467D01*
X0102139Y0025201D01*
X0102873Y0024467D01*
X0102873Y0026669D01*
X0103615Y0026669D02*
X0104716Y0026669D01*
X0105083Y0026302D01*
X0105083Y0025568D01*
X0104716Y0025201D01*
X0103615Y0025201D01*
X0104349Y0025201D02*
X0105083Y0024467D01*
X0105825Y0023733D02*
X0106559Y0024467D01*
X0106192Y0024467D01*
X0106192Y0024834D01*
X0106559Y0024834D01*
X0106559Y0024467D01*
X0109508Y0024834D02*
X0109875Y0024467D01*
X0110609Y0024467D01*
X0110976Y0024834D01*
X0110976Y0025201D01*
X0110609Y0025568D01*
X0109875Y0025568D01*
X0109508Y0025935D01*
X0109508Y0026302D01*
X0109875Y0026669D01*
X0110609Y0026669D01*
X0110976Y0026302D01*
X0111718Y0026302D02*
X0111718Y0024834D01*
X0112085Y0024467D01*
X0112819Y0024467D01*
X0113186Y0024834D01*
X0113928Y0024467D02*
X0115396Y0024467D01*
X0116138Y0023733D02*
X0116872Y0024467D01*
X0116505Y0024467D01*
X0116505Y0024834D01*
X0116872Y0024834D01*
X0116872Y0024467D01*
X0113928Y0024467D02*
X0113928Y0026669D01*
X0113186Y0026302D02*
X0112819Y0026669D01*
X0112085Y0026669D01*
X0111718Y0026302D01*
X0119821Y0026302D02*
X0119821Y0025935D01*
X0120188Y0025568D01*
X0120922Y0025568D01*
X0121289Y0025201D01*
X0121289Y0024834D01*
X0120922Y0024467D01*
X0120188Y0024467D01*
X0119821Y0024834D01*
X0119821Y0026302D02*
X0120188Y0026669D01*
X0120922Y0026669D01*
X0121289Y0026302D01*
X0122031Y0026669D02*
X0122031Y0024467D01*
X0123131Y0024467D01*
X0123498Y0024834D01*
X0123498Y0026302D01*
X0123131Y0026669D01*
X0122031Y0026669D01*
X0124240Y0025935D02*
X0124974Y0026669D01*
X0125708Y0025935D01*
X0125708Y0024467D01*
X0126450Y0023733D02*
X0127184Y0024467D01*
X0126817Y0024467D01*
X0126817Y0024834D01*
X0127184Y0024834D01*
X0127184Y0024467D01*
X0125708Y0025568D02*
X0124240Y0025568D01*
X0124240Y0025935D02*
X0124240Y0024467D01*
X0130133Y0024834D02*
X0130500Y0024467D01*
X0131234Y0024467D01*
X0131601Y0024834D01*
X0131601Y0025568D01*
X0130867Y0025568D01*
X0130133Y0026302D02*
X0130133Y0024834D01*
X0130133Y0026302D02*
X0130500Y0026669D01*
X0131234Y0026669D01*
X0131601Y0026302D01*
X0132343Y0026669D02*
X0133811Y0024467D01*
X0133811Y0026669D01*
X0134553Y0026669D02*
X0135654Y0026669D01*
X0136021Y0026302D01*
X0136021Y0024834D01*
X0135654Y0024467D01*
X0134553Y0024467D01*
X0134553Y0026669D01*
X0132343Y0026669D02*
X0132343Y0024467D01*
X0149293Y0026967D02*
X0150027Y0027701D01*
X0149293Y0028435D01*
X0151495Y0028435D01*
X0151128Y0029177D02*
X0151495Y0029544D01*
X0151495Y0030277D01*
X0151128Y0030644D01*
X0149660Y0030644D01*
X0149293Y0030277D01*
X0149293Y0029544D01*
X0149660Y0029177D01*
X0151128Y0029177D01*
X0151495Y0026967D02*
X0149293Y0026967D01*
X0149293Y0031386D02*
X0149293Y0032854D01*
X0149293Y0032120D02*
X0151495Y0032120D01*
X0151128Y0033596D02*
X0149660Y0033596D01*
X0149293Y0033963D01*
X0149293Y0034697D01*
X0149660Y0035064D01*
X0151128Y0035064D01*
X0151495Y0034697D01*
X0151495Y0033963D01*
X0151128Y0033596D01*
X0150761Y0035806D02*
X0150761Y0036907D01*
X0150394Y0037274D01*
X0149660Y0037274D01*
X0149293Y0036907D01*
X0149293Y0035806D01*
X0151495Y0035806D01*
X0150761Y0036540D02*
X0151495Y0037274D01*
X0151044Y0043567D02*
X0150310Y0043567D01*
X0150677Y0043567D02*
X0150677Y0045035D01*
X0150310Y0045035D01*
X0149568Y0045035D02*
X0148468Y0045035D01*
X0148101Y0044668D01*
X0148101Y0043934D01*
X0148468Y0043567D01*
X0149568Y0043567D01*
X0149568Y0045769D01*
X0150677Y0045769D02*
X0150677Y0046136D01*
X0153994Y0045402D02*
X0153994Y0043934D01*
X0154361Y0043567D01*
X0155095Y0043567D01*
X0155461Y0043934D01*
X0155461Y0044668D01*
X0154728Y0044668D01*
X0155461Y0045402D02*
X0155095Y0045769D01*
X0154361Y0045769D01*
X0153994Y0045402D01*
X0156203Y0045035D02*
X0156203Y0043934D01*
X0156570Y0043567D01*
X0157671Y0043567D01*
X0157671Y0045035D01*
X0158413Y0045769D02*
X0158780Y0045769D01*
X0158780Y0043567D01*
X0158413Y0043567D02*
X0159147Y0043567D01*
X0159887Y0043934D02*
X0160254Y0043567D01*
X0161355Y0043567D01*
X0162096Y0043934D02*
X0162096Y0044668D01*
X0162463Y0045035D01*
X0163197Y0045035D01*
X0163564Y0044668D01*
X0163564Y0044301D01*
X0162096Y0044301D01*
X0162096Y0043934D02*
X0162463Y0043567D01*
X0163197Y0043567D01*
X0164306Y0043567D02*
X0165040Y0043567D01*
X0164673Y0043567D02*
X0164673Y0045769D01*
X0164306Y0045769D01*
X0165780Y0045035D02*
X0166147Y0045035D01*
X0166147Y0043567D01*
X0165780Y0043567D02*
X0166514Y0043567D01*
X0167253Y0043567D02*
X0167253Y0045769D01*
X0166147Y0045769D02*
X0166147Y0046136D01*
X0167253Y0044301D02*
X0168354Y0043567D01*
X0167253Y0044301D02*
X0168354Y0045035D01*
X0161355Y0045035D02*
X0160254Y0045035D01*
X0159887Y0044668D01*
X0159887Y0043934D01*
X0147359Y0044301D02*
X0146258Y0044301D01*
X0145891Y0043934D01*
X0146258Y0043567D01*
X0147359Y0043567D01*
X0147359Y0044668D01*
X0146992Y0045035D01*
X0146258Y0045035D01*
X0145149Y0045402D02*
X0144782Y0045769D01*
X0144048Y0045769D01*
X0143681Y0045402D01*
X0143681Y0045035D01*
X0144048Y0044668D01*
X0144782Y0044668D01*
X0145149Y0044301D01*
X0145149Y0043934D01*
X0144782Y0043567D01*
X0144048Y0043567D01*
X0143681Y0043934D01*
X0140729Y0043567D02*
X0139628Y0043567D01*
X0139261Y0043934D01*
X0139261Y0044668D01*
X0139628Y0045035D01*
X0140729Y0045035D01*
X0140729Y0045769D02*
X0140729Y0043567D01*
X0138519Y0043567D02*
X0138519Y0044668D01*
X0138152Y0045035D01*
X0137051Y0045035D01*
X0137051Y0043567D01*
X0136309Y0043567D02*
X0136309Y0044668D01*
X0135942Y0045035D01*
X0135208Y0045035D01*
X0135208Y0044301D02*
X0136309Y0044301D01*
X0136309Y0043567D02*
X0135208Y0043567D01*
X0134841Y0043934D01*
X0135208Y0044301D01*
X0131889Y0044668D02*
X0131889Y0043567D01*
X0131155Y0043567D02*
X0131155Y0044668D01*
X0131522Y0045035D01*
X0131889Y0044668D01*
X0131155Y0044668D02*
X0130789Y0045035D01*
X0130422Y0045035D01*
X0130422Y0043567D01*
X0129680Y0043567D02*
X0129680Y0044668D01*
X0129313Y0045035D01*
X0128579Y0045035D01*
X0128579Y0044301D02*
X0129680Y0044301D01*
X0129680Y0043567D02*
X0128579Y0043567D01*
X0128212Y0043934D01*
X0128579Y0044301D01*
X0127470Y0044668D02*
X0127470Y0043567D01*
X0127470Y0044668D02*
X0127103Y0045035D01*
X0126369Y0045035D01*
X0126002Y0044668D01*
X0125260Y0045035D02*
X0125260Y0043200D01*
X0124893Y0042833D01*
X0124526Y0042833D01*
X0124159Y0043567D02*
X0125260Y0043567D01*
X0126002Y0043567D02*
X0126002Y0045769D01*
X0125260Y0045035D02*
X0124159Y0045035D01*
X0123792Y0044668D01*
X0123792Y0043934D01*
X0124159Y0043567D01*
X0123050Y0043567D02*
X0123050Y0044668D01*
X0122683Y0045035D01*
X0121582Y0045035D01*
X0121582Y0043567D01*
X0120843Y0043567D02*
X0120109Y0043567D01*
X0120476Y0043567D02*
X0120476Y0045035D01*
X0120109Y0045035D01*
X0120476Y0045769D02*
X0120476Y0046136D01*
X0119367Y0044668D02*
X0119367Y0043567D01*
X0119367Y0044668D02*
X0119000Y0045035D01*
X0117899Y0045035D01*
X0117899Y0043567D01*
X0117157Y0043567D02*
X0117157Y0044668D01*
X0116790Y0045035D01*
X0115689Y0045035D01*
X0115689Y0043567D01*
X0114947Y0043567D02*
X0114947Y0045035D01*
X0113479Y0045035D02*
X0113479Y0043934D01*
X0113846Y0043567D01*
X0114947Y0043567D01*
X0112737Y0043934D02*
X0112370Y0043567D01*
X0111636Y0043567D01*
X0111269Y0043934D01*
X0111269Y0045402D01*
X0111636Y0045769D01*
X0112370Y0045769D01*
X0112737Y0045402D01*
X0103615Y0026669D02*
X0103615Y0024467D01*
X0081086Y0049067D02*
X0079985Y0049067D01*
X0079985Y0051269D01*
X0081086Y0051269D01*
X0081453Y0050902D01*
X0081453Y0050535D01*
X0081086Y0050168D01*
X0079985Y0050168D01*
X0081086Y0050168D02*
X0081453Y0049801D01*
X0081453Y0049434D01*
X0081086Y0049067D01*
X0080796Y0059967D02*
X0080062Y0059967D01*
X0079695Y0060334D01*
X0079695Y0061802D01*
X0080062Y0062169D01*
X0080796Y0062169D01*
X0081163Y0061802D01*
X0081905Y0061802D02*
X0081905Y0060334D01*
X0082272Y0059967D01*
X0083006Y0059967D01*
X0083373Y0060334D01*
X0083373Y0061802D01*
X0083006Y0062169D01*
X0082272Y0062169D01*
X0081905Y0061802D01*
X0081163Y0060334D02*
X0080796Y0059967D01*
X0084115Y0059967D02*
X0084115Y0062169D01*
X0084849Y0061435D01*
X0085583Y0062169D01*
X0085583Y0059967D01*
X0081663Y0069967D02*
X0081663Y0071435D01*
X0080929Y0072169D01*
X0080195Y0071435D01*
X0080195Y0069967D01*
X0080195Y0071068D02*
X0081663Y0071068D01*
X0063769Y0137467D02*
X0063769Y0139669D01*
X0063035Y0139669D02*
X0064503Y0139669D01*
X0062293Y0139669D02*
X0060825Y0139669D01*
X0060825Y0137467D01*
X0062293Y0137467D01*
X0061559Y0138568D02*
X0060825Y0138568D01*
X0060083Y0138201D02*
X0060083Y0137834D01*
X0059716Y0137467D01*
X0058982Y0137467D01*
X0058615Y0137834D01*
X0058982Y0138568D02*
X0058615Y0138935D01*
X0058615Y0139302D01*
X0058982Y0139669D01*
X0059716Y0139669D01*
X0060083Y0139302D01*
X0059716Y0138568D02*
X0060083Y0138201D01*
X0059716Y0138568D02*
X0058982Y0138568D01*
X0057873Y0139669D02*
X0056405Y0139669D01*
X0056405Y0137467D01*
X0057873Y0137467D01*
X0057139Y0138568D02*
X0056405Y0138568D01*
X0055663Y0138568D02*
X0055296Y0138201D01*
X0054195Y0138201D01*
X0054929Y0138201D02*
X0055663Y0137467D01*
X0055663Y0138568D02*
X0055663Y0139302D01*
X0055296Y0139669D01*
X0054195Y0139669D01*
X0054195Y0137467D01*
X0162695Y0100169D02*
X0162695Y0097967D01*
X0162695Y0098701D02*
X0163796Y0098701D01*
X0164163Y0099068D01*
X0164163Y0099802D01*
X0163796Y0100169D01*
X0162695Y0100169D01*
X0164905Y0100169D02*
X0164905Y0097967D01*
X0165639Y0098701D01*
X0166373Y0097967D01*
X0166373Y0100169D01*
X0167115Y0100169D02*
X0168216Y0100169D01*
X0168583Y0099802D01*
X0168583Y0099068D01*
X0168216Y0098701D01*
X0167115Y0098701D01*
X0167849Y0098701D02*
X0168583Y0097967D01*
X0167115Y0097967D02*
X0167115Y0100169D01*
X0175195Y0101669D02*
X0176663Y0101669D01*
X0175929Y0101669D02*
X0175929Y0099467D01*
X0177405Y0099467D02*
X0178873Y0101669D01*
X0177405Y0101669D02*
X0178873Y0099467D01*
X0187195Y0098302D02*
X0187195Y0097935D01*
X0187562Y0097568D01*
X0188296Y0097568D01*
X0188663Y0097201D01*
X0188663Y0096834D01*
X0188296Y0096467D01*
X0187562Y0096467D01*
X0187195Y0096834D01*
X0187195Y0098302D02*
X0187562Y0098669D01*
X0188296Y0098669D01*
X0188663Y0098302D01*
X0189405Y0098302D02*
X0189772Y0098669D01*
X0190506Y0098669D01*
X0190873Y0098302D01*
X0191615Y0098669D02*
X0191615Y0096467D01*
X0193083Y0096467D01*
X0190873Y0096834D02*
X0190506Y0096467D01*
X0189772Y0096467D01*
X0189405Y0096834D01*
X0189405Y0098302D01*
X0178495Y0090170D02*
X0178495Y0089437D01*
X0178128Y0089070D01*
X0176660Y0090537D01*
X0178128Y0090537D01*
X0178495Y0090170D01*
X0178128Y0089070D02*
X0176660Y0089070D01*
X0176293Y0089437D01*
X0176293Y0090170D01*
X0176660Y0090537D01*
X0176660Y0088328D02*
X0176293Y0087961D01*
X0176293Y0087227D01*
X0176660Y0086860D01*
X0178128Y0086860D01*
X0178495Y0087227D01*
X0178495Y0087961D01*
X0178128Y0088328D01*
X0176660Y0088328D01*
X0176293Y0086120D02*
X0176293Y0085386D01*
X0176293Y0085753D02*
X0178495Y0085753D01*
X0178495Y0085386D02*
X0178495Y0086120D01*
X0177394Y0084644D02*
X0177761Y0084277D01*
X0177761Y0083177D01*
X0178495Y0083177D02*
X0176293Y0083177D01*
X0176293Y0084277D01*
X0176660Y0084644D01*
X0177394Y0084644D01*
X0177394Y0082435D02*
X0177394Y0081701D01*
X0177394Y0082435D02*
X0178128Y0082435D01*
X0178495Y0082068D01*
X0178495Y0081334D01*
X0178128Y0080967D01*
X0176660Y0080967D01*
X0176293Y0081334D01*
X0176293Y0082068D01*
X0176660Y0082435D01*
X0186695Y0074302D02*
X0186695Y0073935D01*
X0187062Y0073568D01*
X0187796Y0073568D01*
X0188163Y0073201D01*
X0188163Y0072834D01*
X0187796Y0072467D01*
X0187062Y0072467D01*
X0186695Y0072834D01*
X0186695Y0074302D02*
X0187062Y0074669D01*
X0187796Y0074669D01*
X0188163Y0074302D01*
X0188905Y0074669D02*
X0190006Y0074669D01*
X0190373Y0074302D01*
X0190373Y0072834D01*
X0190006Y0072467D01*
X0188905Y0072467D01*
X0188905Y0074669D01*
X0191115Y0073935D02*
X0191849Y0074669D01*
X0192583Y0073935D01*
X0192583Y0072467D01*
X0192583Y0073568D02*
X0191115Y0073568D01*
X0191115Y0073935D02*
X0191115Y0072467D01*
X0207695Y0063802D02*
X0207695Y0062334D01*
X0208062Y0061967D01*
X0208796Y0061967D01*
X0209163Y0062334D01*
X0209163Y0063068D01*
X0208429Y0063068D01*
X0207695Y0063802D02*
X0208062Y0064169D01*
X0208796Y0064169D01*
X0209163Y0063802D01*
X0209905Y0064169D02*
X0211373Y0061967D01*
X0211373Y0064169D01*
X0212115Y0064169D02*
X0213216Y0064169D01*
X0213583Y0063802D01*
X0213583Y0062334D01*
X0213216Y0061967D01*
X0212115Y0061967D01*
X0212115Y0064169D01*
X0209905Y0064169D02*
X0209905Y0061967D01*
X0168995Y0025935D02*
X0168995Y0024467D01*
X0167527Y0025935D01*
X0167160Y0025935D01*
X0166793Y0025568D01*
X0166793Y0024834D01*
X0167160Y0024467D01*
X0158995Y0024467D02*
X0158995Y0025935D01*
X0158995Y0025201D02*
X0156793Y0025201D01*
X0157527Y0024467D01*
X0162160Y0017618D02*
X0161793Y0017251D01*
X0161793Y0016517D01*
X0162160Y0016150D01*
X0163628Y0016150D01*
X0163995Y0016517D01*
X0163995Y0017251D01*
X0163628Y0017618D01*
X0162894Y0017618D01*
X0162894Y0016884D01*
X0161793Y0015410D02*
X0161793Y0014677D01*
X0161793Y0015044D02*
X0163995Y0015044D01*
X0163995Y0015410D02*
X0163995Y0014677D01*
X0163628Y0013935D02*
X0163995Y0013568D01*
X0163995Y0012834D01*
X0163628Y0012467D01*
X0162894Y0012834D02*
X0162894Y0013568D01*
X0163261Y0013935D01*
X0163628Y0013935D01*
X0162894Y0012834D02*
X0162527Y0012467D01*
X0162160Y0012467D01*
X0161793Y0012834D01*
X0161793Y0013568D01*
X0162160Y0013935D01*
X0196293Y0013677D02*
X0198495Y0015144D01*
X0196293Y0015144D01*
X0196293Y0015886D02*
X0196293Y0016987D01*
X0196660Y0017354D01*
X0198128Y0017354D01*
X0198495Y0016987D01*
X0198495Y0015886D01*
X0196293Y0015886D01*
X0196293Y0013677D02*
X0198495Y0013677D01*
X0198128Y0012935D02*
X0197394Y0012935D01*
X0197394Y0012201D01*
X0196660Y0012935D02*
X0196293Y0012568D01*
X0196293Y0011834D01*
X0196660Y0011467D01*
X0198128Y0011467D01*
X0198495Y0011834D01*
X0198495Y0012568D01*
X0198128Y0012935D01*
X0201195Y0012935D02*
X0201562Y0012568D01*
X0202296Y0012568D01*
X0202663Y0012201D01*
X0202663Y0011834D01*
X0202296Y0011467D01*
X0201562Y0011467D01*
X0201195Y0011834D01*
X0201195Y0012935D02*
X0201195Y0013302D01*
X0201562Y0013669D01*
X0202296Y0013669D01*
X0202663Y0013302D01*
X0203405Y0013669D02*
X0203405Y0011467D01*
X0204873Y0011467D01*
X0205615Y0011467D02*
X0205615Y0013669D01*
X0206716Y0013669D01*
X0207083Y0013302D01*
X0207083Y0012568D01*
X0206716Y0012201D01*
X0205615Y0012201D01*
X0206349Y0012201D02*
X0207083Y0011467D01*
X0207825Y0012201D02*
X0208559Y0011467D01*
X0209293Y0012201D01*
X0209293Y0013669D01*
X0210035Y0013302D02*
X0210035Y0011834D01*
X0210402Y0011467D01*
X0211136Y0011467D01*
X0211503Y0011834D01*
X0211503Y0013302D01*
X0211136Y0013669D01*
X0210402Y0013669D01*
X0210035Y0013302D01*
X0207825Y0013669D02*
X0207825Y0012201D01*
X0204873Y0013669D02*
X0203405Y0013669D01*
X0203405Y0012568D02*
X0204139Y0012568D01*
X0208062Y0106967D02*
X0207695Y0107334D01*
X0208062Y0106967D02*
X0208796Y0106967D01*
X0209163Y0107334D01*
X0209163Y0107701D01*
X0208796Y0108068D01*
X0208429Y0108068D01*
X0208796Y0108068D02*
X0209163Y0108435D01*
X0209163Y0108802D01*
X0208796Y0109169D01*
X0208062Y0109169D01*
X0207695Y0108802D01*
X0209905Y0107334D02*
X0210272Y0107334D01*
X0210272Y0106967D01*
X0209905Y0106967D01*
X0209905Y0107334D01*
X0211010Y0107334D02*
X0211377Y0106967D01*
X0212111Y0106967D01*
X0212478Y0107334D01*
X0212478Y0107701D01*
X0212111Y0108068D01*
X0211744Y0108068D01*
X0212111Y0108068D02*
X0212478Y0108435D01*
X0212478Y0108802D01*
X0212111Y0109169D01*
X0211377Y0109169D01*
X0211010Y0108802D01*
X0213220Y0109169D02*
X0213220Y0107701D01*
X0213954Y0106967D01*
X0214688Y0107701D01*
X0214688Y0109169D01*
X0208716Y0115467D02*
X0207615Y0115467D01*
X0207615Y0117669D01*
X0208716Y0117669D01*
X0209083Y0117302D01*
X0209083Y0115834D01*
X0208716Y0115467D01*
X0206873Y0115467D02*
X0206873Y0117669D01*
X0205405Y0117669D02*
X0205405Y0115467D01*
X0204663Y0115834D02*
X0204663Y0116568D01*
X0203929Y0116568D01*
X0203195Y0117302D02*
X0203195Y0115834D01*
X0203562Y0115467D01*
X0204296Y0115467D01*
X0204663Y0115834D01*
X0204663Y0117302D02*
X0204296Y0117669D01*
X0203562Y0117669D01*
X0203195Y0117302D01*
X0205405Y0117669D02*
X0206873Y0115467D01*
X0189373Y0116967D02*
X0187905Y0119169D01*
X0187163Y0118802D02*
X0187163Y0118068D01*
X0186796Y0117701D01*
X0185695Y0117701D01*
X0186429Y0117701D02*
X0187163Y0116967D01*
X0187905Y0116967D02*
X0189373Y0119169D01*
X0187163Y0118802D02*
X0186796Y0119169D01*
X0185695Y0119169D01*
X0185695Y0116967D01*
X0194062Y0135967D02*
X0193695Y0136334D01*
X0194062Y0135967D02*
X0194796Y0135967D01*
X0195163Y0136334D01*
X0195163Y0136701D01*
X0194796Y0137068D01*
X0194062Y0137068D01*
X0193695Y0137435D01*
X0193695Y0137802D01*
X0194062Y0138169D01*
X0194796Y0138169D01*
X0195163Y0137802D01*
X0195905Y0137802D02*
X0195905Y0136334D01*
X0196272Y0135967D01*
X0197006Y0135967D01*
X0197373Y0136334D01*
X0198115Y0136701D02*
X0199216Y0136701D01*
X0199583Y0137068D01*
X0199583Y0137802D01*
X0199216Y0138169D01*
X0198115Y0138169D01*
X0198115Y0135967D01*
X0198849Y0136701D02*
X0199583Y0135967D01*
X0200325Y0135967D02*
X0200325Y0138169D01*
X0201793Y0138169D01*
X0202535Y0138169D02*
X0202535Y0135967D01*
X0203269Y0136701D01*
X0204003Y0135967D01*
X0204003Y0138169D01*
X0201793Y0135967D02*
X0200325Y0135967D01*
X0200325Y0137068D02*
X0201059Y0137068D01*
X0197373Y0137802D02*
X0197006Y0138169D01*
X0196272Y0138169D01*
X0195905Y0137802D01*
D11*
X0167595Y0080367D02*
X0167595Y0076367D01*
X0170595Y0065867D02*
X0170595Y0061867D01*
X0167595Y0056367D02*
X0167595Y0052367D01*
X0082095Y0098867D02*
X0078095Y0098867D01*
X0071595Y0100367D02*
X0067595Y0100367D01*
X0057095Y0098867D02*
X0053095Y0098867D01*
X0057095Y0081867D02*
X0061095Y0081867D01*
X0055595Y0054867D02*
X0055595Y0050867D01*
D12*
X0054599Y0062217D02*
X0054599Y0068516D01*
X0059520Y0069501D02*
X0062670Y0069501D01*
X0067591Y0068516D02*
X0067591Y0062217D01*
X0098595Y0035867D02*
X0098595Y0030867D01*
X0101095Y0028367D01*
X0106095Y0028367D01*
X0108595Y0030867D01*
X0111095Y0028367D01*
X0116095Y0028367D01*
X0118595Y0030867D01*
X0121095Y0028367D01*
X0126095Y0028367D01*
X0128595Y0030867D01*
X0131095Y0028367D01*
X0136095Y0028367D01*
X0138595Y0030867D01*
X0138595Y0035867D01*
X0136095Y0038367D01*
X0131095Y0038367D01*
X0128595Y0035867D01*
X0126095Y0038367D01*
X0121095Y0038367D01*
X0118595Y0035867D01*
X0116095Y0038367D01*
X0111095Y0038367D01*
X0108595Y0035867D01*
X0106095Y0038367D01*
X0101095Y0038367D01*
X0098595Y0035867D01*
X0098095Y0021867D02*
X0093095Y0021867D01*
X0090595Y0019367D01*
X0088095Y0021867D01*
X0083095Y0021867D01*
X0080595Y0019367D01*
X0078095Y0021867D01*
X0073095Y0021867D01*
X0070595Y0019367D01*
X0070595Y0014367D01*
X0073095Y0011867D01*
X0078095Y0011867D01*
X0080595Y0014367D01*
X0083095Y0011867D01*
X0088095Y0011867D01*
X0090595Y0014367D01*
X0093095Y0011867D01*
X0098095Y0011867D01*
X0100595Y0014367D01*
X0103095Y0011867D01*
X0108095Y0011867D01*
X0110595Y0014367D01*
X0110595Y0019367D01*
X0108095Y0021867D01*
X0103095Y0021867D01*
X0100595Y0019367D01*
X0098095Y0021867D01*
X0113595Y0019367D02*
X0113595Y0014367D01*
X0116095Y0011867D01*
X0121095Y0011867D01*
X0123595Y0014367D01*
X0126095Y0011867D01*
X0131095Y0011867D01*
X0133595Y0014367D01*
X0136095Y0011867D01*
X0141095Y0011867D01*
X0143595Y0014367D01*
X0146095Y0011867D01*
X0151095Y0011867D01*
X0153595Y0014367D01*
X0153595Y0019367D01*
X0151095Y0021867D01*
X0146095Y0021867D01*
X0143595Y0019367D01*
X0141095Y0021867D01*
X0136095Y0021867D01*
X0133595Y0019367D01*
X0131095Y0021867D01*
X0126095Y0021867D01*
X0123595Y0019367D01*
X0121095Y0021867D01*
X0116095Y0021867D01*
X0113595Y0019367D01*
X0179590Y0077099D02*
X0179590Y0093634D01*
X0175849Y0102245D02*
X0172953Y0104273D01*
X0170925Y0101377D01*
X0166001Y0100508D01*
X0163105Y0102536D01*
X0162237Y0107460D01*
X0164265Y0110357D01*
X0169189Y0111225D01*
X0172085Y0109197D01*
X0174113Y0112093D01*
X0179037Y0112961D01*
X0181933Y0110933D01*
X0183961Y0113830D01*
X0188885Y0114698D01*
X0191781Y0112670D01*
X0193809Y0115566D01*
X0198733Y0116434D01*
X0201629Y0114406D01*
X0202498Y0109482D01*
X0200470Y0106586D01*
X0195546Y0105718D01*
X0192649Y0107746D01*
X0190622Y0104850D01*
X0185698Y0103981D01*
X0182801Y0106009D01*
X0180773Y0103113D01*
X0175849Y0102245D01*
X0191601Y0093634D02*
X0191601Y0077099D01*
X0064601Y0114599D02*
X0064601Y0131134D01*
X0052590Y0131134D02*
X0052590Y0114599D01*
D13*
X0092599Y0144548D02*
X0092599Y0050060D01*
X0155591Y0050060D01*
X0155591Y0144548D01*
X0092599Y0144548D01*
X0100473Y0113839D02*
X0100473Y0054784D01*
X0147717Y0054784D01*
X0147717Y0113839D01*
X0100473Y0113839D01*
X0180572Y0035467D02*
X0180574Y0035497D01*
X0180580Y0035526D01*
X0180590Y0035554D01*
X0180603Y0035581D01*
X0180620Y0035605D01*
X0180640Y0035627D01*
X0180663Y0035647D01*
X0180688Y0035663D01*
X0180715Y0035675D01*
X0180743Y0035684D01*
X0180773Y0035689D01*
X0180802Y0035690D01*
X0180832Y0035687D01*
X0180861Y0035680D01*
X0180889Y0035669D01*
X0180915Y0035655D01*
X0180939Y0035637D01*
X0180960Y0035617D01*
X0180979Y0035593D01*
X0180994Y0035568D01*
X0181006Y0035540D01*
X0181014Y0035511D01*
X0181018Y0035482D01*
X0181018Y0035452D01*
X0181014Y0035423D01*
X0181006Y0035394D01*
X0180994Y0035366D01*
X0180979Y0035341D01*
X0180960Y0035317D01*
X0180939Y0035297D01*
X0180915Y0035279D01*
X0180889Y0035265D01*
X0180861Y0035254D01*
X0180832Y0035247D01*
X0180802Y0035244D01*
X0180773Y0035245D01*
X0180743Y0035250D01*
X0180715Y0035259D01*
X0180688Y0035271D01*
X0180663Y0035287D01*
X0180640Y0035307D01*
X0180620Y0035329D01*
X0180603Y0035353D01*
X0180590Y0035380D01*
X0180580Y0035408D01*
X0180574Y0035437D01*
X0180572Y0035467D01*
X0182690Y0035866D02*
X0194501Y0035866D01*
X0194501Y0022867D02*
X0182690Y0022867D01*
D14*
X0182595Y0019867D02*
X0185095Y0017367D01*
X0187595Y0019867D01*
X0192595Y0019867D01*
X0195095Y0017367D01*
X0195095Y0012367D01*
X0192595Y0009867D01*
X0187595Y0009867D01*
X0185095Y0012367D01*
X0182595Y0009867D01*
X0177595Y0009867D01*
X0175095Y0012367D01*
X0172595Y0009867D01*
X0167595Y0009867D01*
X0165095Y0012367D01*
X0165095Y0017367D01*
X0167595Y0019867D01*
X0172595Y0019867D01*
X0175095Y0017367D01*
X0177595Y0019867D01*
X0182595Y0019867D01*
X0185095Y0017367D02*
X0185095Y0012367D01*
X0175095Y0012367D02*
X0175095Y0017367D01*
X0182414Y0040504D02*
X0184776Y0040504D01*
X0184776Y0045229D02*
X0182414Y0045229D01*
X0176595Y0069867D02*
X0176595Y0072867D01*
X0174595Y0071367D01*
X0176595Y0069867D01*
X0176595Y0069930D02*
X0176511Y0069930D01*
X0176595Y0070528D02*
X0175713Y0070528D01*
X0174915Y0071127D02*
X0176595Y0071127D01*
X0176595Y0071725D02*
X0175073Y0071725D01*
X0175871Y0072324D02*
X0176595Y0072324D01*
X0137680Y0123844D02*
X0135478Y0123844D01*
X0134744Y0124578D01*
X0135478Y0125312D01*
X0137680Y0125312D01*
X0137680Y0126046D02*
X0137680Y0123844D01*
X0137680Y0126046D02*
X0136946Y0126780D01*
X0135478Y0126780D01*
X0133076Y0126046D02*
X0133076Y0123844D01*
X0133076Y0126046D02*
X0132342Y0126780D01*
X0130140Y0126780D01*
X0130140Y0123844D01*
X0128472Y0123844D02*
X0128472Y0126046D01*
X0127738Y0126780D01*
X0125536Y0126780D01*
X0125536Y0123844D01*
X0123868Y0125312D02*
X0120932Y0125312D01*
X0120932Y0126046D02*
X0121666Y0126780D01*
X0123134Y0126780D01*
X0123868Y0126046D01*
X0123868Y0125312D01*
X0123134Y0123844D02*
X0121666Y0123844D01*
X0120932Y0124578D01*
X0120932Y0126046D01*
X0119331Y0126780D02*
X0117863Y0126780D01*
X0118597Y0127514D02*
X0118597Y0124578D01*
X0119331Y0123844D01*
X0116195Y0123844D02*
X0116195Y0126046D01*
X0115461Y0126780D01*
X0113259Y0126780D01*
X0113259Y0123844D01*
X0111591Y0123844D02*
X0111591Y0126780D01*
X0110123Y0128248D01*
X0108655Y0126780D01*
X0108655Y0123844D01*
X0108655Y0126046D02*
X0111591Y0126046D01*
X0076095Y0075367D02*
X0071095Y0075367D01*
X0068595Y0072867D01*
X0068595Y0067867D01*
X0071095Y0065367D01*
X0076095Y0065367D01*
X0078595Y0067867D01*
X0078595Y0072867D01*
X0076095Y0075367D01*
X0076095Y0065367D02*
X0078595Y0062867D01*
X0078595Y0057867D01*
X0076095Y0055367D01*
X0078595Y0052867D01*
X0078595Y0047867D01*
X0076095Y0045367D01*
X0071095Y0045367D01*
X0068595Y0047867D01*
X0068595Y0052867D01*
X0071095Y0055367D01*
X0068595Y0057867D01*
X0068595Y0062867D01*
X0071095Y0065367D01*
X0071095Y0055367D02*
X0076095Y0055367D01*
X0075721Y0043241D02*
X0075721Y0041666D01*
X0075721Y0043241D02*
X0077296Y0043241D01*
X0089894Y0043241D02*
X0091469Y0043241D01*
X0091469Y0041666D01*
X0091469Y0029067D02*
X0091469Y0027493D01*
X0089894Y0027493D01*
X0077296Y0027493D02*
X0075721Y0027493D01*
X0075721Y0029067D01*
D15*
X0174667Y0071367D03*
D16*
X0194589Y0059246D03*
X0194589Y0053446D03*
X0201589Y0053446D03*
X0201589Y0059246D03*
D17*
X0048095Y0039367D02*
X0048095Y0021867D01*
X0068095Y0021867D01*
X0068095Y0039367D01*
X0048095Y0039367D01*
X0048095Y0046867D01*
X0068095Y0046867D01*
X0068095Y0039367D01*
X0153095Y0038867D02*
X0153095Y0021367D01*
X0173095Y0021367D01*
X0173095Y0038867D01*
X0153095Y0038867D01*
X0153095Y0046367D01*
X0173095Y0046367D01*
X0173095Y0038867D01*
D18*
X0090682Y0042453D03*
M02*
