%
M48
M72
T01C0.02165
T02C0.02362
T03C0.02756
T04C0.03150
T05C0.03937
T06C0.04000
T07C0.11811
%
T01
X55095Y108367
T02
X64095Y90367
X85595Y110867
X87595Y52867
X171595Y92367
X185595Y98367
X181095Y65367
X185595Y55867
X203595Y21867
T03
X95595Y40867
T04
X107595Y44867
X115095Y52867
X123095Y52367
X136595Y56867
X143595Y56867
X144095Y30867
X86095Y89367
X50595Y76867
T05
X53095Y34367
X63095Y34367
X158095Y33867
X168095Y33867
T06
X170095Y14867
X180095Y14867
X190095Y14867
X148595Y16867
X138595Y16867
X128595Y16867
X118595Y16867
X105595Y16867
X95595Y16867
X85595Y16867
X75595Y16867
X103595Y33367
X113595Y33367
X123595Y33367
X133595Y33367
X73595Y50367
X73595Y60367
X73595Y70367
X167595Y105867
X177443Y107603
X187291Y109340
X197139Y111076
T07
X199638Y125890
X77591Y81796
M30
